<svg version="1.1" viewBox="0.0 0.0 960.0 540.0" fill="none" stroke="none" stroke-linecap="square" stroke-miterlimit="10" xmlns:xlink="http://www.w3.org/1999/xlink" xmlns="http://www.w3.org/2000/svg"><clipPath id="g6bf8c4e454_0_564.0"><path d="m0 0l960.0 0l0 540.0l-960.0 0l0 -540.0z" clip-rule="nonzero"/></clipPath><g clip-path="url(#g6bf8c4e454_0_564.0)"><path fill="#ffffff" d="m0 0l960.0 0l0 540.0l-960.0 0z" fill-rule="evenodd"/><path fill="#000000" fill-opacity="0.0" d="m364.98425 420.39108l582.2047 0l0 103.77951l-582.2047 0z" fill-rule="evenodd"/><path fill="#000000" d="m378.1405 444.75107l0 -10.109375l-3.78125 0l0 -1.34375l9.078125 0l0 1.34375l-3.78125 0l0 10.109375l-1.515625 0zm6.6796875 0l0 -11.453125l1.40625 0l0 4.109375q0.984375 -1.140625 2.484375 -1.140625q0.921875 0 1.59375 0.359375q0.6875 0.359375 0.96875 1.0q0.296875 0.640625 0.296875 1.859375l0 5.265625l-1.40625 0l0 -5.265625q0 -1.046875 -0.453125 -1.53125q-0.453125 -0.484375 -1.296875 -0.484375q-0.625 0 -1.171875 0.328125q-0.546875 0.328125 -0.78125 0.890625q-0.234375 0.546875 -0.234375 1.515625l0 4.546875l-1.40625 0zm14.5703125 -2.671875l1.453125 0.171875q-0.34375 1.28125 -1.28125 1.984375q-0.921875 0.703125 -2.359375 0.703125q-1.828125 0 -2.890625 -1.125q-1.0625 -1.125 -1.0625 -3.140625q0 -2.09375 1.078125 -3.25q1.078125 -1.15625 2.796875 -1.15625q1.65625 0 2.703125 1.140625q1.0625 1.125 1.0625 3.171875q0 0.125 0 0.375l-6.1875 0q0.078125 1.375 0.765625 2.109375q0.703125 0.71875 1.734375 0.71875q0.78125 0 1.328125 -0.40625q0.546875 -0.40625 0.859375 -1.296875zm-4.609375 -2.28125l4.625 0q-0.09375 -1.046875 -0.53125 -1.5625q-0.671875 -0.8125 -1.734375 -0.8125q-0.96875 0 -1.640625 0.65625q-0.65625 0.640625 -0.71875 1.71875zm15.34375 3.6875l0.203125 1.25q-0.59375 0.125 -1.0625 0.125q-0.765625 0 -1.1875 -0.234375q-0.421875 -0.25 -0.59375 -0.640625q-0.171875 -0.40625 -0.171875 -1.671875l0 -4.765625l-1.03125 0l0 -1.09375l1.03125 0l0 -2.0625l1.40625 -0.84375l0 2.90625l1.40625 0l0 1.09375l-1.40625 0l0 4.84375q0 0.609375 0.0625 0.78125q0.078125 0.171875 0.25 0.28125q0.171875 0.09375 0.484375 0.09375q0.234375 0 0.609375 -0.0625zm6.8203125 1.265625l0 -1.21875q-0.96875 1.40625 -2.640625 1.40625q-0.734375 0 -1.375 -0.28125q-0.625 -0.28125 -0.9375 -0.703125q-0.3125 -0.4375 -0.4375 -1.046875q-0.078125 -0.421875 -0.078125 -1.3125l0 -5.140625l1.40625 0l0 4.59375q0 1.109375 0.078125 1.484375q0.140625 0.5625 0.5625 0.875q0.4375 0.3125 1.0625 0.3125q0.640625 0 1.1875 -0.3125q0.5625 -0.328125 0.78125 -0.890625q0.234375 -0.5625 0.234375 -1.625l0 -4.4375l1.40625 0l0 8.296875l-1.25 0zm3.4609375 0l0 -8.296875l1.265625 0l0 1.171875q0.90625 -1.359375 2.640625 -1.359375q0.75 0 1.375 0.265625q0.625 0.265625 0.9375 0.703125q0.3125 0.4375 0.4375 1.046875q0.078125 0.390625 0.078125 1.359375l0 5.109375l-1.40625 0l0 -5.046875q0 -0.859375 -0.171875 -1.28125q-0.15625 -0.4375 -0.578125 -0.6875q-0.40625 -0.25 -0.96875 -0.25q-0.90625 0 -1.5625 0.578125q-0.640625 0.5625 -0.640625 2.15625l0 4.53125l-1.40625 0zm8.8984375 0l0 -8.296875l1.265625 0l0 1.171875q0.90625 -1.359375 2.640625 -1.359375q0.75 0 1.375 0.265625q0.625 0.265625 0.9375 0.703125q0.3125 0.4375 0.4375 1.046875q0.078125 0.390625 0.078125 1.359375l0 5.109375l-1.40625 0l0 -5.046875q0 -0.859375 -0.171875 -1.28125q-0.15625 -0.4375 -0.578125 -0.6875q-0.40625 -0.25 -0.96875 -0.25q-0.90625 0 -1.5625 0.578125q-0.640625 0.5625 -0.640625 2.15625l0 4.53125l-1.40625 0zm14.5703125 -2.671875l1.453125 0.171875q-0.34375 1.28125 -1.28125 1.984375q-0.921875 0.703125 -2.359375 0.703125q-1.828125 0 -2.890625 -1.125q-1.0625 -1.125 -1.0625 -3.140625q0 -2.09375 1.078125 -3.25q1.078125 -1.15625 2.796875 -1.15625q1.65625 0 2.703125 1.140625q1.0625 1.125 1.0625 3.171875q0 0.125 0 0.375l-6.1875 0q0.078125 1.375 0.765625 2.109375q0.703125 0.71875 1.734375 0.71875q0.78125 0 1.328125 -0.40625q0.546875 -0.40625 0.859375 -1.296875zm-4.609375 -2.28125l4.625 0q-0.09375 -1.046875 -0.53125 -1.5625q-0.671875 -0.8125 -1.734375 -0.8125q-0.96875 0 -1.640625 0.65625q-0.65625 0.640625 -0.71875 1.71875zm7.8046875 4.953125l0 -11.453125l1.40625 0l0 11.453125l-1.40625 0zm8.359375 0l0 -7.203125l-1.234375 0l0 -1.09375l1.234375 0l0 -0.890625q0 -0.828125 0.15625 -1.234375q0.203125 -0.546875 0.703125 -0.890625q0.515625 -0.34375 1.4375 -0.34375q0.59375 0 1.3125 0.140625l-0.203125 1.234375q-0.4375 -0.078125 -0.828125 -0.078125q-0.640625 0 -0.90625 0.28125q-0.265625 0.265625 -0.265625 1.015625l0 0.765625l1.609375 0l0 1.09375l-1.609375 0l0 7.203125l-1.40625 0zm3.5859375 -4.15625q0 -2.296875 1.28125 -3.40625q1.078125 -0.921875 2.609375 -0.921875q1.71875 0 2.796875 1.125q1.09375 1.109375 1.09375 3.09375q0 1.59375 -0.484375 2.515625q-0.484375 0.921875 -1.40625 1.4375q-0.90625 0.5 -2.0 0.5q-1.734375 0 -2.8125 -1.109375q-1.078125 -1.125 -1.078125 -3.234375zm1.453125 0q0 1.59375 0.6875 2.390625q0.703125 0.796875 1.75 0.796875q1.046875 0 1.734375 -0.796875q0.703125 -0.796875 0.703125 -2.4375q0 -1.53125 -0.703125 -2.328125q-0.6875 -0.796875 -1.734375 -0.796875q-1.046875 0 -1.75 0.796875q-0.6875 0.78125 -0.6875 2.375zm7.9609375 4.15625l0 -8.296875l1.265625 0l0 1.25q0.484375 -0.875 0.890625 -1.15625q0.40625 -0.28125 0.90625 -0.28125q0.703125 0 1.4375 0.453125l-0.484375 1.296875q-0.515625 -0.296875 -1.03125 -0.296875q-0.453125 0 -0.828125 0.28125q-0.359375 0.265625 -0.515625 0.765625q-0.234375 0.75 -0.234375 1.640625l0 4.34375l-1.40625 0zm6.875 0l-2.546875 -8.296875l1.453125 0l1.328125 4.78125l0.484375 1.78125q0.03125 -0.125 0.4375 -1.703125l1.3125 -4.859375l1.453125 0l1.234375 4.8125l0.421875 1.578125l0.46875 -1.59375l1.421875 -4.796875l1.375 0l-2.59375 8.296875l-1.46875 0l-1.3125 -4.96875l-0.328125 -1.421875l-1.671875 6.390625l-1.46875 0zm15.4296875 -1.03125q-0.78125 0.671875 -1.5 0.953125q-0.71875 0.265625 -1.546875 0.265625q-1.375 0 -2.109375 -0.671875q-0.734375 -0.671875 -0.734375 -1.703125q0 -0.609375 0.28125 -1.109375q0.28125 -0.515625 0.71875 -0.8125q0.453125 -0.3125 1.015625 -0.46875q0.421875 -0.109375 1.25 -0.203125q1.703125 -0.203125 2.515625 -0.484375q0 -0.296875 0 -0.375q0 -0.859375 -0.390625 -1.203125q-0.546875 -0.484375 -1.609375 -0.484375q-0.984375 0 -1.46875 0.359375q-0.46875 0.34375 -0.6875 1.21875l-1.375 -0.1875q0.1875 -0.875 0.609375 -1.421875q0.4375 -0.546875 1.25 -0.828125q0.8125 -0.296875 1.875 -0.296875q1.0625 0 1.71875 0.25q0.671875 0.25 0.984375 0.625q0.3125 0.375 0.4375 0.953125q0.078125 0.359375 0.078125 1.296875l0 1.875q0 1.96875 0.078125 2.484375q0.09375 0.515625 0.359375 1.0l-1.46875 0q-0.21875 -0.4375 -0.28125 -1.03125zm-0.109375 -3.140625q-0.765625 0.3125 -2.296875 0.53125q-0.875 0.125 -1.234375 0.28125q-0.359375 0.15625 -0.5625 0.46875q-0.1875 0.296875 -0.1875 0.65625q0 0.5625 0.421875 0.9375q0.4375 0.375 1.25 0.375q0.8125 0 1.4375 -0.34375q0.640625 -0.359375 0.9375 -0.984375q0.234375 -0.46875 0.234375 -1.40625l0 -0.515625zm3.5859375 4.171875l0 -8.296875l1.265625 0l0 1.25q0.484375 -0.875 0.890625 -1.15625q0.40625 -0.28125 0.90625 -0.28125q0.703125 0 1.4375 0.453125l-0.484375 1.296875q-0.515625 -0.296875 -1.03125 -0.296875q-0.453125 0 -0.828125 0.28125q-0.359375 0.265625 -0.515625 0.765625q-0.234375 0.75 -0.234375 1.640625l0 4.34375l-1.40625 0zm10.71875 0l0 -1.046875q-0.78125 1.234375 -2.3125 1.234375q-1.0 0 -1.828125 -0.546875q-0.828125 -0.546875 -1.296875 -1.53125q-0.453125 -0.984375 -0.453125 -2.25q0 -1.25 0.40625 -2.25q0.421875 -1.015625 1.25 -1.546875q0.828125 -0.546875 1.859375 -0.546875q0.75 0 1.328125 0.3125q0.59375 0.3125 0.953125 0.828125l0 -4.109375l1.40625 0l0 11.453125l-1.3125 0zm-4.4375 -4.140625q0 1.59375 0.671875 2.390625q0.671875 0.78125 1.578125 0.78125q0.921875 0 1.5625 -0.75q0.65625 -0.765625 0.65625 -2.3125q0 -1.703125 -0.65625 -2.5q-0.65625 -0.796875 -1.625 -0.796875q-0.9375 0 -1.5625 0.765625q-0.625 0.765625 -0.625 2.421875zm7.3984375 1.65625l1.390625 -0.21875q0.109375 0.84375 0.640625 1.296875q0.546875 0.4375 1.5 0.4375q0.96875 0 1.4375 -0.390625q0.46875 -0.40625 0.46875 -0.9375q0 -0.46875 -0.40625 -0.75q-0.296875 -0.1875 -1.4375 -0.46875q-1.546875 -0.390625 -2.15625 -0.671875q-0.59375 -0.296875 -0.90625 -0.796875q-0.296875 -0.5 -0.296875 -1.109375q0 -0.5625 0.25 -1.03125q0.25 -0.46875 0.6875 -0.78125q0.328125 -0.25 0.890625 -0.40625q0.578125 -0.171875 1.21875 -0.171875q0.984375 0 1.71875 0.28125q0.734375 0.28125 1.078125 0.765625q0.359375 0.46875 0.5 1.28125l-1.375 0.1875q-0.09375 -0.640625 -0.546875 -1.0q-0.453125 -0.359375 -1.265625 -0.359375q-0.96875 0 -1.390625 0.328125q-0.40625 0.3125 -0.40625 0.734375q0 0.28125 0.171875 0.5q0.171875 0.21875 0.53125 0.375q0.21875 0.078125 1.25 0.359375q1.484375 0.390625 2.078125 0.65625q0.59375 0.25 0.921875 0.734375q0.34375 0.484375 0.34375 1.203125q0 0.703125 -0.421875 1.328125q-0.40625 0.609375 -1.1875 0.953125q-0.765625 0.34375 -1.734375 0.34375q-1.625 0 -2.46875 -0.671875q-0.84375 -0.671875 -1.078125 -2.0zm18.414062 1.453125q-0.78125 0.671875 -1.5 0.953125q-0.71875 0.265625 -1.546875 0.265625q-1.375 0 -2.109375 -0.671875q-0.734375 -0.671875 -0.734375 -1.703125q0 -0.609375 0.28125 -1.109375q0.28125 -0.515625 0.71875 -0.8125q0.453125 -0.3125 1.015625 -0.46875q0.421875 -0.109375 1.25 -0.203125q1.703125 -0.203125 2.515625 -0.484375q0 -0.296875 0 -0.375q0 -0.859375 -0.390625 -1.203125q-0.546875 -0.484375 -1.609375 -0.484375q-0.984375 0 -1.46875 0.359375q-0.46875 0.34375 -0.6875 1.21875l-1.375 -0.1875q0.1875 -0.875 0.609375 -1.421875q0.4375 -0.546875 1.25 -0.828125q0.8125 -0.296875 1.875 -0.296875q1.0625 0 1.71875 0.25q0.671875 0.25 0.984375 0.625q0.3125 0.375 0.4375 0.953125q0.078125 0.359375 0.078125 1.296875l0 1.875q0 1.96875 0.078125 2.484375q0.09375 0.515625 0.359375 1.0l-1.46875 0q-0.21875 -0.4375 -0.28125 -1.03125zm-0.109375 -3.140625q-0.765625 0.3125 -2.296875 0.53125q-0.875 0.125 -1.234375 0.28125q-0.359375 0.15625 -0.5625 0.46875q-0.1875 0.296875 -0.1875 0.65625q0 0.5625 0.421875 0.9375q0.4375 0.375 1.25 0.375q0.8125 0 1.4375 -0.34375q0.640625 -0.359375 0.9375 -0.984375q0.234375 -0.46875 0.234375 -1.40625l0 -0.515625zm3.5703125 4.171875l0 -11.453125l1.40625 0l0 11.453125l-1.40625 0zm3.5546875 0l0 -11.453125l1.40625 0l0 11.453125l-1.40625 0zm8.015625 0l0 -8.296875l1.265625 0l0 1.25q0.484375 -0.875 0.890625 -1.15625q0.40625 -0.28125 0.90625 -0.28125q0.703125 0 1.4375 0.453125l-0.484375 1.296875q-0.515625 -0.296875 -1.03125 -0.296875q-0.453125 0 -0.828125 0.28125q-0.359375 0.265625 -0.515625 0.765625q-0.234375 0.75 -0.234375 1.640625l0 4.34375l-1.40625 0zm11.015625 -2.671875l1.453125 0.171875q-0.34375 1.28125 -1.28125 1.984375q-0.921875 0.703125 -2.359375 0.703125q-1.828125 0 -2.890625 -1.125q-1.0625 -1.125 -1.0625 -3.140625q0 -2.09375 1.078125 -3.25q1.078125 -1.15625 2.796875 -1.15625q1.65625 0 2.703125 1.140625q1.0625 1.125 1.0625 3.171875q0 0.125 0 0.375l-6.1875 0q0.078125 1.375 0.765625 2.109375q0.703125 0.71875 1.734375 0.71875q0.78125 0 1.328125 -0.40625q0.546875 -0.40625 0.859375 -1.296875zm-4.609375 -2.28125l4.625 0q-0.09375 -1.046875 -0.53125 -1.5625q-0.671875 -0.8125 -1.734375 -0.8125q-0.96875 0 -1.640625 0.65625q-0.65625 0.640625 -0.71875 1.71875zm13.1171875 8.140625l0 -4.078125q-0.328125 0.46875 -0.921875 0.78125q-0.578125 0.296875 -1.25 0.296875q-1.46875 0 -2.546875 -1.171875q-1.0625 -1.1875 -1.0625 -3.25q0 -1.25 0.4375 -2.234375q0.4375 -1.0 1.25 -1.5q0.828125 -0.515625 1.8125 -0.515625q1.546875 0 2.421875 1.296875l0 -1.109375l1.265625 0l0 11.484375l-1.40625 0zm-4.328125 -7.359375q0 1.59375 0.671875 2.40625q0.671875 0.796875 1.609375 0.796875q0.890625 0 1.53125 -0.765625q0.65625 -0.765625 0.65625 -2.3125q0 -1.65625 -0.6875 -2.484375q-0.671875 -0.84375 -1.59375 -0.84375q-0.921875 0 -1.5625 0.78125q-0.625 0.765625 -0.625 2.421875zm13.3828125 4.171875l0 -1.21875q-0.96875 1.40625 -2.640625 1.40625q-0.734375 0 -1.375 -0.28125q-0.625 -0.28125 -0.9375 -0.703125q-0.3125 -0.4375 -0.4375 -1.046875q-0.078125 -0.421875 -0.078125 -1.3125l0 -5.140625l1.40625 0l0 4.59375q0 1.109375 0.078125 1.484375q0.140625 0.5625 0.5625 0.875q0.4375 0.3125 1.0625 0.3125q0.640625 0 1.1875 -0.3125q0.5625 -0.328125 0.78125 -0.890625q0.234375 -0.5625 0.234375 -1.625l0 -4.4375l1.40625 0l0 8.296875l-1.25 0zm9.1328125 -2.671875l1.453125 0.171875q-0.34375 1.28125 -1.28125 1.984375q-0.921875 0.703125 -2.359375 0.703125q-1.828125 0 -2.890625 -1.125q-1.0625 -1.125 -1.0625 -3.140625q0 -2.09375 1.078125 -3.25q1.078125 -1.15625 2.796875 -1.15625q1.65625 0 2.703125 1.140625q1.0625 1.125 1.0625 3.171875q0 0.125 0 0.375l-6.1875 0q0.078125 1.375 0.765625 2.109375q0.703125 0.71875 1.734375 0.71875q0.78125 0 1.328125 -0.40625q0.546875 -0.40625 0.859375 -1.296875zm-4.609375 -2.28125l4.625 0q-0.09375 -1.046875 -0.53125 -1.5625q-0.671875 -0.8125 -1.734375 -0.8125q-0.96875 0 -1.640625 0.65625q-0.65625 0.640625 -0.71875 1.71875zm7.2734375 2.46875l1.390625 -0.21875q0.109375 0.84375 0.640625 1.296875q0.546875 0.4375 1.5 0.4375q0.96875 0 1.4375 -0.390625q0.46875 -0.40625 0.46875 -0.9375q0 -0.46875 -0.40625 -0.75q-0.296875 -0.1875 -1.4375 -0.46875q-1.546875 -0.390625 -2.15625 -0.671875q-0.59375 -0.296875 -0.90625 -0.796875q-0.296875 -0.5 -0.296875 -1.109375q0 -0.5625 0.25 -1.03125q0.25 -0.46875 0.6875 -0.78125q0.328125 -0.25 0.890625 -0.40625q0.578125 -0.171875 1.21875 -0.171875q0.984375 0 1.71875 0.28125q0.734375 0.28125 1.078125 0.765625q0.359375 0.46875 0.5 1.28125l-1.375 0.1875q-0.09375 -0.640625 -0.546875 -1.0q-0.453125 -0.359375 -1.265625 -0.359375q-0.96875 0 -1.390625 0.328125q-0.40625 0.3125 -0.40625 0.734375q0 0.28125 0.171875 0.5q0.171875 0.21875 0.53125 0.375q0.21875 0.078125 1.25 0.359375q1.484375 0.390625 2.078125 0.65625q0.59375 0.25 0.921875 0.734375q0.34375 0.484375 0.34375 1.203125q0 0.703125 -0.421875 1.328125q-0.40625 0.609375 -1.1875 0.953125q-0.765625 0.34375 -1.734375 0.34375q-1.625 0 -2.46875 -0.671875q-0.84375 -0.671875 -1.078125 -2.0zm11.625 1.21875l0.203125 1.25q-0.59375 0.125 -1.0625 0.125q-0.765625 0 -1.1875 -0.234375q-0.421875 -0.25 -0.59375 -0.640625q-0.171875 -0.40625 -0.171875 -1.671875l0 -4.765625l-1.03125 0l0 -1.09375l1.03125 0l0 -2.0625l1.40625 -0.84375l0 2.90625l1.40625 0l0 1.09375l-1.40625 0l0 4.84375q0 0.609375 0.0625 0.78125q0.078125 0.171875 0.25 0.28125q0.171875 0.09375 0.484375 0.09375q0.234375 0 0.609375 -0.0625zm0.8203125 -1.21875l1.390625 -0.21875q0.109375 0.84375 0.640625 1.296875q0.546875 0.4375 1.5 0.4375q0.96875 0 1.4375 -0.390625q0.46875 -0.40625 0.46875 -0.9375q0 -0.46875 -0.40625 -0.75q-0.296875 -0.1875 -1.4375 -0.46875q-1.546875 -0.390625 -2.15625 -0.671875q-0.59375 -0.296875 -0.90625 -0.796875q-0.296875 -0.5 -0.296875 -1.109375q0 -0.5625 0.25 -1.03125q0.25 -0.46875 0.6875 -0.78125q0.328125 -0.25 0.890625 -0.40625q0.578125 -0.171875 1.21875 -0.171875q0.984375 0 1.71875 0.28125q0.734375 0.28125 1.078125 0.765625q0.359375 0.46875 0.5 1.28125l-1.375 0.1875q-0.09375 -0.640625 -0.546875 -1.0q-0.453125 -0.359375 -1.265625 -0.359375q-0.96875 0 -1.390625 0.328125q-0.40625 0.3125 -0.40625 0.734375q0 0.28125 0.171875 0.5q0.171875 0.21875 0.53125 0.375q0.21875 0.078125 1.25 0.359375q1.484375 0.390625 2.078125 0.65625q0.59375 0.25 0.921875 0.734375q0.34375 0.484375 0.34375 1.203125q0 0.703125 -0.421875 1.328125q-0.40625 0.609375 -1.1875 0.953125q-0.765625 0.34375 -1.734375 0.34375q-1.625 0 -2.46875 -0.671875q-0.84375 -0.671875 -1.078125 -2.0zm16.070312 1.21875l0.203125 1.25q-0.59375 0.125 -1.0625 0.125q-0.765625 0 -1.1875 -0.234375q-0.421875 -0.25 -0.59375 -0.640625q-0.171875 -0.40625 -0.171875 -1.671875l0 -4.765625l-1.03125 0l0 -1.09375l1.03125 0l0 -2.0625l1.40625 -0.84375l0 2.90625l1.40625 0l0 1.09375l-1.40625 0l0 4.84375q0 0.609375 0.0625 0.78125q0.078125 0.171875 0.25 0.28125q0.171875 0.09375 0.484375 0.09375q0.234375 0 0.609375 -0.0625zm0.8515625 -2.890625q0 -2.296875 1.28125 -3.40625q1.078125 -0.921875 2.609375 -0.921875q1.71875 0 2.796875 1.125q1.09375 1.109375 1.09375 3.09375q0 1.59375 -0.484375 2.515625q-0.484375 0.921875 -1.40625 1.4375q-0.90625 0.5 -2.0 0.5q-1.734375 0 -2.8125 -1.109375q-1.078125 -1.125 -1.078125 -3.234375zm1.453125 0q0 1.59375 0.6875 2.390625q0.703125 0.796875 1.75 0.796875q1.046875 0 1.734375 -0.796875q0.703125 -0.796875 0.703125 -2.4375q0 -1.53125 -0.703125 -2.328125q-0.6875 -0.796875 -1.734375 -0.796875q-1.046875 0 -1.75 0.796875q-0.6875 0.78125 -0.6875 2.375zm15.484375 2.890625l0.203125 1.25q-0.59375 0.125 -1.0625 0.125q-0.765625 0 -1.1875 -0.234375q-0.421875 -0.25 -0.59375 -0.640625q-0.171875 -0.40625 -0.171875 -1.671875l0 -4.765625l-1.03125 0l0 -1.09375l1.03125 0l0 -2.0625l1.40625 -0.84375l0 2.90625l1.40625 0l0 1.09375l-1.40625 0l0 4.84375q0 0.609375 0.0625 0.78125q0.078125 0.171875 0.25 0.28125q0.171875 0.09375 0.484375 0.09375q0.234375 0 0.609375 -0.0625zm1.3828125 1.265625l0 -11.453125l1.40625 0l0 4.109375q0.984375 -1.140625 2.484375 -1.140625q0.921875 0 1.59375 0.359375q0.6875 0.359375 0.96875 1.0q0.296875 0.640625 0.296875 1.859375l0 5.265625l-1.40625 0l0 -5.265625q0 -1.046875 -0.453125 -1.53125q-0.453125 -0.484375 -1.296875 -0.484375q-0.625 0 -1.171875 0.328125q-0.546875 0.328125 -0.78125 0.890625q-0.234375 0.546875 -0.234375 1.515625l0 4.546875l-1.40625 0zm14.5703125 -2.671875l1.453125 0.171875q-0.34375 1.28125 -1.28125 1.984375q-0.921875 0.703125 -2.359375 0.703125q-1.828125 0 -2.890625 -1.125q-1.0625 -1.125 -1.0625 -3.140625q0 -2.09375 1.078125 -3.25q1.078125 -1.15625 2.796875 -1.15625q1.65625 0 2.703125 1.140625q1.0625 1.125 1.0625 3.171875q0 0.125 0 0.375l-6.1875 0q0.078125 1.375 0.765625 2.109375q0.703125 0.71875 1.734375 0.71875q0.78125 0 1.328125 -0.40625q0.546875 -0.40625 0.859375 -1.296875zm-4.609375 -2.28125l4.625 0q-0.09375 -1.046875 -0.53125 -1.5625q-0.671875 -0.8125 -1.734375 -0.8125q-0.96875 0 -1.640625 0.65625q-0.65625 0.640625 -0.71875 1.71875zm12.71875 4.953125l0 -11.453125l1.515625 0l0 11.453125l-1.515625 0zm3.7265625 -5.578125q0 -2.859375 1.53125 -4.46875q1.53125 -1.609375 3.953125 -1.609375q1.578125 0 2.84375 0.765625q1.28125 0.75 1.953125 2.109375q0.671875 1.34375 0.671875 3.0625q0 1.75 -0.703125 3.125q-0.703125 1.375 -2.0 2.09375q-1.28125 0.703125 -2.78125 0.703125q-1.609375 0 -2.890625 -0.78125q-1.265625 -0.796875 -1.921875 -2.140625q-0.65625 -1.359375 -0.65625 -2.859375zm1.5625 0.015625q0 2.078125 1.109375 3.265625q1.109375 1.1875 2.796875 1.1875q1.703125 0 2.8125 -1.203125q1.109375 -1.203125 1.109375 -3.40625q0 -1.40625 -0.484375 -2.4375q-0.46875 -1.046875 -1.375 -1.625q-0.90625 -0.578125 -2.046875 -0.578125q-1.609375 0 -2.765625 1.109375q-1.15625 1.109375 -1.15625 3.6875zm14.2578125 5.5625l0 -10.109375l-3.78125 0l0 -1.34375l9.078125 0l0 1.34375l-3.78125 0l0 10.109375l-1.515625 0zm6.8984375 0l0 -11.453125l1.515625 0l0 4.703125l5.953125 0l0 -4.703125l1.515625 0l0 11.453125l-1.515625 0l0 -5.40625l-5.953125 0l0 5.40625l-1.515625 0zm11.7265625 0l0 -1.609375l1.609375 0l0 1.609375l-1.609375 0z" fill-rule="nonzero"/><path fill="#eeeeee" d="m455.45914 56.56016l0 0c-1.5621033 -9.517609 3.5665894 -18.939465 13.209778 -24.267525c9.643188 -5.328062 22.10968 -5.627903 32.109467 -0.7722893l0 0c3.5422363 -5.5339336 10.025543 -9.3547325 17.488892 -10.306679c7.463318 -0.95194817 15.030029 1.076767 20.411438 5.472494l0 0c3.017517 -5.017418 8.942444 -8.388483 15.672363 -8.916964c6.7299194 -0.52848244 13.312378 1.8604145 17.411499 6.318981l0 0c5.451599 -5.318451 14.125244 -7.5577393 22.267761 -5.748913c8.142517 1.8088245 14.291504 7.340885 15.786194 14.202427l0 0c6.679138 1.5104599 12.242737 5.350258 15.253296 10.527309c3.010559 5.1770477 3.1728516 11.183495 0.44482422 16.467464l0 0c6.5769653 7.0969467 8.1154785 16.553543 4.041382 24.84076c-4.0740967 8.287209 -13.148682 14.159981 -23.837402 15.426689c-0.07531738 7.7778473 -5.220276 14.914703 -13.451782 18.659714c-8.231567 3.7450104 -18.264221 3.513382 -26.231018 -0.6056061c-3.3934326 9.315315 -12.944824 16.169441 -24.527588 17.601128c-11.582764 1.4316864 -23.120544 -2.8157043 -29.62851 -10.90715c-7.9773865 3.9882965 -17.549622 5.137207 -26.557373 3.1875381c-9.007721 -1.9496689 -16.69223 -6.8336716 -21.320007 -13.550278l0 0c-8.151886 0.7909012 -16.03366 -2.7107544 -19.733612 -8.767105c-3.6999207 -6.056343 -2.4303894 -13.378136 3.1785278 -18.331589l0 0c-7.2717285 -3.5484161 -10.982178 -10.589653 -9.196533 -17.451988c1.7856445 -6.8623276 8.66275 -11.990719 17.045197 -12.710918z" fill-rule="evenodd"/><path fill="#000000" fill-opacity="0.0" d="m447.4493 87.08989l0 0c3.431549 1.6745148 7.3957825 2.434105 11.360474 2.1768036m5.1928406 24.9225c1.704956 -0.1654129 3.3761292 -0.5157013 4.970459 -1.0418243m42.90454 11.404121c-1.1991577 -1.490921 -2.2031555 -3.0841064 -2.994873 -4.7523956m57.153015 -1.9418564l0 0c0.6187134 -1.6983185 1.0195312 -3.4462585 1.1958618 -5.2146606m38.485474 -12.838791c0.080200195 -8.280716 -5.5926514 -15.862625 -14.581909 -19.489075m34.377686 -20.777504c-1.4557495 2.8197403 -3.6781616 5.3210907 -6.492981 7.3079376m-9.203735 -34.30345l0 0c0.24804688 1.1386757 0.362854 2.294464 0.34283447 3.4513474m-38.39612 -11.904516l0 0c-1.3599243 1.3266907 -2.4802856 2.809248 -3.326294 4.401512m-29.757935 -1.8041077l0 0c-0.72473145 1.2050209 -1.2658691 2.4801407 -1.611023 3.7959843m-36.289825 1.0382977l0 0c2.1159668 1.0274448 4.0734863 2.2640858 5.8296204 3.6827526m-51.148285 21.357197l0 0c0.21530151 1.3117752 0.55548096 2.607376 1.0173645 3.8746796" fill-rule="evenodd"/><path stroke="#595959" stroke-width="1.0" stroke-linejoin="round" stroke-linecap="butt" d="m455.45914 56.56016l0 0c-1.5621033 -9.517609 3.5665894 -18.939465 13.209778 -24.267525c9.643188 -5.328062 22.10968 -5.627903 32.109467 -0.7722893l0 0c3.5422363 -5.5339336 10.025543 -9.3547325 17.488892 -10.306679c7.463318 -0.95194817 15.030029 1.076767 20.411438 5.472494l0 0c3.017517 -5.017418 8.942444 -8.388483 15.672363 -8.916964c6.7299194 -0.52848244 13.312378 1.8604145 17.411499 6.318981l0 0c5.451599 -5.318451 14.125244 -7.5577393 22.267761 -5.748913c8.142517 1.8088245 14.291504 7.340885 15.786194 14.202427l0 0c6.679138 1.5104599 12.242737 5.350258 15.253296 10.527309c3.010559 5.1770477 3.1728516 11.183495 0.44482422 16.467464l0 0c6.5769653 7.0969467 8.1154785 16.553543 4.041382 24.84076c-4.0740967 8.287209 -13.148682 14.159981 -23.837402 15.426689c-0.07531738 7.7778473 -5.220276 14.914703 -13.451782 18.659714c-8.231567 3.7450104 -18.264221 3.513382 -26.231018 -0.6056061c-3.3934326 9.315315 -12.944824 16.169441 -24.527588 17.601128c-11.582764 1.4316864 -23.120544 -2.8157043 -29.62851 -10.90715c-7.9773865 3.9882965 -17.549622 5.137207 -26.557373 3.1875381c-9.007721 -1.9496689 -16.69223 -6.8336716 -21.320007 -13.550278l0 0c-8.151886 0.7909012 -16.03366 -2.7107544 -19.733612 -8.767105c-3.6999207 -6.056343 -2.4303894 -13.378136 3.1785278 -18.331589l0 0c-7.2717285 -3.5484161 -10.982178 -10.589653 -9.196533 -17.451988c1.7856445 -6.8623276 8.66275 -11.990719 17.045197 -12.710918z" fill-rule="evenodd"/><path stroke="#595959" stroke-width="1.0" stroke-linejoin="round" stroke-linecap="butt" d="m447.4493 87.08989l0 0c3.431549 1.6745148 7.3957825 2.434105 11.360474 2.1768036m5.1928406 24.9225c1.704956 -0.1654129 3.3761292 -0.5157013 4.970459 -1.0418243m42.90454 11.404121c-1.1991577 -1.490921 -2.2031555 -3.0841064 -2.994873 -4.7523956m57.153015 -1.9418564l0 0c0.6187134 -1.6983185 1.0195312 -3.4462585 1.1958618 -5.2146606m38.485474 -12.838791c0.080200195 -8.280716 -5.5926514 -15.862625 -14.581909 -19.489075m34.377686 -20.777504c-1.4557495 2.8197403 -3.6781616 5.3210907 -6.492981 7.3079376m-9.203735 -34.30345l0 0c0.24804688 1.1386757 0.362854 2.294464 0.34283447 3.4513474m-38.39612 -11.904516l0 0c-1.3599243 1.3266907 -2.4802856 2.809248 -3.326294 4.401512m-29.757935 -1.8041077l0 0c-0.72473145 1.2050209 -1.2658691 2.4801407 -1.611023 3.7959843m-36.289825 1.0382977l0 0c2.1159668 1.0274448 4.0734863 2.2640858 5.8296204 3.6827526m-51.148285 21.357197l0 0c0.21530151 1.3117752 0.55548096 2.607376 1.0173645 3.8746796" fill-rule="evenodd"/><path fill="#000000" d="m482.1613 69.49301l0 -13.359371l1.765625 0l0 13.359371l-1.765625 0zm4.355194 -6.499996q0 -3.328125 1.78125 -5.203125q1.78125 -1.890625 4.609375 -1.890625q1.84375 0 3.328125 0.890625q1.484375 0.875 2.265625 2.46875q0.78125 1.578125 0.78125 3.578125q0 2.0312462 -0.828125 3.6406212q-0.8125 1.59375 -2.3125 2.421875q-1.5 0.828125 -3.25 0.828125q-1.875 0 -3.359375 -0.90625q-1.484375 -0.921875 -2.25 -2.5q-0.765625 -1.578125 -0.765625 -3.3281212zm1.8125 0.015625q0 2.4218712 1.296875 3.8124962q1.296875 1.390625 3.265625 1.390625q2.0 0 3.28125 -1.40625q1.28125 -1.40625 1.28125 -3.9843712q0 -1.625 -0.546875 -2.84375q-0.546875 -1.21875 -1.609375 -1.875q-1.0625 -0.671875 -2.375 -0.671875q-1.890625 0 -3.25 1.296875q-1.34375 1.28125 -1.34375 4.28125zm16.636414 6.484371l0 -11.781246l-4.40625 0l0 -1.578125l10.578125 0l0 1.578125l-4.40625 0l0 11.781246l-1.765625 0zm12.242065 -4.296875l1.65625 -0.140625q0.125 1.0 0.546875 1.640625q0.4375 0.640625 1.34375 1.046875q0.921875 0.390625 2.0625 0.390625q1.0 0 1.78125 -0.296875q0.78125 -0.296875 1.15625 -0.8125q0.375 -0.53125 0.375 -1.15625q0 -0.625 -0.375 -1.09375q-0.359375 -0.46875 -1.1875 -0.7968712q-0.546875 -0.203125 -2.390625 -0.640625q-1.828125 -0.453125 -2.5625 -0.84375q-0.96875 -0.5 -1.4375 -1.234375q-0.46875 -0.75 -0.46875 -1.671875q0 -1.0 0.578125 -1.875q0.578125 -0.890625 1.671875 -1.34375q1.109375 -0.453125 2.453125 -0.453125q1.484375 0 2.609375 0.484375q1.140625 0.46875 1.75 1.40625q0.609375 0.921875 0.65625 2.09375l-1.6875 0.125q-0.140625 -1.265625 -0.9375 -1.90625q-0.78125 -0.65625 -2.3125 -0.65625q-1.609375 0 -2.34375 0.59375q-0.734375 0.59375 -0.734375 1.421875q0 0.71875 0.53125 1.171875q0.5 0.46875 2.65625 0.96875q2.15625 0.484375 2.953125 0.84375q1.171875 0.53125 1.71875 1.359375q0.5625 0.8281212 0.5625 1.9062462q0 1.0625 -0.609375 2.015625q-0.609375 0.9375 -1.75 1.46875q-1.140625 0.515625 -2.578125 0.515625q-1.8125 0 -3.046875 -0.53125q-1.21875 -0.53125 -1.921875 -1.59375q-0.6875 -1.0625 -0.71875 -2.40625zm19.459167 1.1875l1.6875 0.203125q-0.40625 1.484375 -1.484375 2.3125q-1.078125 0.8125 -2.765625 0.8125q-2.125 0 -3.375 -1.296875q-1.234375 -1.3125 -1.234375 -3.671875q0 -2.4531212 1.25 -3.7968712q1.265625 -1.34375 3.265625 -1.34375q1.9375 0 3.15625 1.328125q1.234375 1.3125 1.234375 3.7031212q0 0.15625 0 0.4375l-7.21875 0q0.09375 1.59375 0.90625 2.453125q0.8125 0.84375 2.015625 0.84375q0.90625 0 1.546875 -0.46875q0.640625 -0.484375 1.015625 -1.515625zm-5.390625 -2.6562462l5.40625 0q-0.109375 -1.21875 -0.625 -1.828125q-0.78125 -0.953125 -2.03125 -0.953125q-1.125 0 -1.90625 0.765625q-0.765625 0.75 -0.84375 2.015625zm15.453857 2.2187462l1.609375 0.21875q-0.265625 1.65625 -1.359375 2.609375q-1.078125 0.9375 -2.671875 0.9375q-1.984375 0 -3.1875 -1.296875q-1.203125 -1.296875 -1.203125 -3.71875q0 -1.5781212 0.515625 -2.7499962q0.515625 -1.171875 1.578125 -1.75q1.0625 -0.59375 2.3125 -0.59375q1.578125 0 2.578125 0.796875q1.0 0.796875 1.28125 2.265625l-1.59375 0.234375q-0.234375 -0.96875 -0.8125 -1.453125q-0.578125 -0.5 -1.390625 -0.5q-1.234375 0 -2.015625 0.890625q-0.78125 0.890625 -0.78125 2.8124962q0 1.953125 0.75 2.84375q0.75 0.875 1.953125 0.875q0.96875 0 1.609375 -0.59375q0.65625 -0.59375 0.828125 -1.828125zm9.34375 3.546875l0 -1.421875q-1.125 1.640625 -3.0625 1.640625q-0.859375 0 -1.609375 -0.328125q-0.734375 -0.328125 -1.09375 -0.828125q-0.359375 -0.5 -0.5 -1.21875q-0.109375 -0.46875 -0.109375 -1.53125l0 -5.984371l1.640625 0l0 5.359371q0 1.28125 0.109375 1.734375q0.15625 0.640625 0.65625 1.015625q0.5 0.375 1.234375 0.375q0.734375 0 1.375 -0.375q0.65625 -0.390625 0.921875 -1.03125q0.265625 -0.65625 0.265625 -1.890625l0 -5.187496l1.640625 0l0 9.671871l-1.46875 0zm4.0319824 0l0 -9.671871l1.46875 0l0 1.46875q0.5625 -1.03125 1.03125 -1.359375q0.484375 -0.328125 1.0625 -0.328125q0.828125 0 1.6875 0.53125l-0.5625 1.515625q-0.609375 -0.359375 -1.203125 -0.359375q-0.546875 0 -0.96875 0.328125q-0.421875 0.328125 -0.609375 0.890625q-0.28125 0.875 -0.28125 1.9218712l0 5.0625l-1.625 0zm12.8532715 -3.109375l1.6875 0.203125q-0.40625 1.484375 -1.484375 2.3125q-1.078125 0.8125 -2.765625 0.8125q-2.125 0 -3.375 -1.296875q-1.234375 -1.3125 -1.234375 -3.671875q0 -2.4531212 1.25 -3.7968712q1.265625 -1.34375 3.265625 -1.34375q1.9375 0 3.15625 1.328125q1.234375 1.3125 1.234375 3.7031212q0 0.15625 0 0.4375l-7.21875 0q0.09375 1.59375 0.90625 2.453125q0.8125 0.84375 2.015625 0.84375q0.90625 0 1.546875 -0.46875q0.640625 -0.484375 1.015625 -1.515625zm-5.390625 -2.6562462l5.40625 0q-0.109375 -1.21875 -0.625 -1.828125q-0.78125 -0.953125 -2.03125 -0.953125q-1.125 0 -1.90625 0.765625q-0.765625 0.75 -0.84375 2.015625z" fill-rule="nonzero"/><path fill="#000000" d="m514.54736 86.80551l1.765625 0.453125q-0.5625 2.171875 -2.0 3.328125q-1.4375 1.140625 -3.53125 1.140625q-2.15625 0 -3.515625 -0.875q-1.34375 -0.890625 -2.0625 -2.546875q-0.703125 -1.671875 -0.703125 -3.59375q0 -2.078125 0.796875 -3.625q0.796875 -1.5625 2.265625 -2.359375q1.484375 -0.8125 3.25 -0.8125q2.0 0 3.359375 1.015625q1.375 1.015625 1.90625 2.875l-1.734375 0.40625q-0.46875 -1.453125 -1.359375 -2.109375q-0.875 -0.671875 -2.203125 -0.671875q-1.546875 0 -2.578125 0.734375q-1.03125 0.734375 -1.453125 1.984375q-0.421875 1.234375 -0.421875 2.5625q0 1.703125 0.5 2.96875q0.5 1.265625 1.546875 1.90625q1.046875 0.625 2.265625 0.625q1.484375 0 2.515625 -0.859375q1.03125 -0.859375 1.390625 -2.546875zm3.6917114 4.6875l0 -13.359375l1.640625 0l0 13.359375l-1.640625 0zm3.5822754 -4.84375q0 -2.6875 1.484375 -3.96875q1.25 -1.078125 3.046875 -1.078125q2.0 0 3.265625 1.3125q1.265625 1.296875 1.265625 3.609375q0 1.859375 -0.5625 2.9375q-0.5625 1.0625 -1.640625 1.65625q-1.0625 0.59375 -2.328125 0.59375q-2.03125 0 -3.28125 -1.296875q-1.25 -1.3125 -1.25 -3.765625zm1.6875 0q0 1.859375 0.796875 2.796875q0.8125 0.921875 2.046875 0.921875q1.21875 0 2.03125 -0.921875q0.8125 -0.9375 0.8125 -2.84375q0 -1.796875 -0.8125 -2.71875q-0.8125 -0.921875 -2.03125 -0.921875q-1.234375 0 -2.046875 0.921875q-0.796875 0.90625 -0.796875 2.765625zm15.625732 4.84375l0 -1.421875q-1.125 1.640625 -3.0625 1.640625q-0.859375 0 -1.609375 -0.328125q-0.734375 -0.328125 -1.09375 -0.828125q-0.359375 -0.5 -0.5 -1.21875q-0.109375 -0.46875 -0.109375 -1.53125l0 -5.984375l1.640625 0l0 5.359375q0 1.28125 0.109375 1.734375q0.15625 0.640625 0.65625 1.015625q0.5 0.375 1.234375 0.375q0.734375 0 1.375 -0.375q0.65625 -0.390625 0.921875 -1.03125q0.265625 -0.65625 0.265625 -1.890625l0 -5.1875l1.640625 0l0 9.671875l-1.46875 0zm10.313232 0l0 -1.21875q-0.90625 1.4375 -2.703125 1.4375q-1.15625 0 -2.125 -0.640625q-0.96875 -0.640625 -1.5 -1.78125q-0.53125 -1.140625 -0.53125 -2.625q0 -1.453125 0.484375 -2.625q0.484375 -1.1875 1.4375 -1.8125q0.96875 -0.625 2.171875 -0.625q0.875 0 1.546875 0.375q0.6875 0.359375 1.109375 0.953125l0 -4.796875l1.640625 0l0 13.359375l-1.53125 0zm-5.171875 -4.828125q0 1.859375 0.78125 2.78125q0.78125 0.921875 1.84375 0.921875q1.078125 0 1.828125 -0.875q0.75 -0.890625 0.75 -2.6875q0 -1.984375 -0.765625 -2.90625q-0.765625 -0.9375 -1.890625 -0.9375q-1.078125 0 -1.8125 0.890625q-0.734375 0.890625 -0.734375 2.8125z" fill-rule="nonzero"/><path fill="#eeeeee" d="m774.958 296.79004l0 0c0 -22.995941 17.718262 -41.637802 39.57483 -41.637802c21.856506 0 39.574768 18.641861 39.574768 41.637802c0 22.99591 -17.718262 41.637787 -39.574768 41.637787c-21.856567 0 -39.57483 -18.641876 -39.57483 -41.637787z" fill-rule="evenodd"/><path fill="#bebebe" d="m797.7318 284.33725c0 -2.3954163 1.8457031 -4.3372803 4.1223755 -4.3372803c2.2767334 0 4.1223755 1.941864 4.1223755 4.3372803c0 2.3953857 -1.8456421 4.3372498 -4.1223755 4.3372498c-2.2766724 0 -4.1223755 -1.941864 -4.1223755 -4.3372498m25.357239 0c0 -2.3954163 1.8456421 -4.3372803 4.1223755 -4.3372803c2.2766724 0 4.1223755 1.941864 4.1223755 4.3372803c0 2.3953857 -1.8457031 4.3372498 -4.1223755 4.3372498c-2.2767334 0 -4.1223755 -1.941864 -4.1223755 -4.3372498" fill-rule="evenodd"/><path fill="#000000" fill-opacity="0.0" d="m793.083 314.94855q21.44983 15.499237 42.849487 0" fill-rule="evenodd"/><path fill="#000000" fill-opacity="0.0" d="m774.958 296.79004l0 0c0 -22.995941 17.718262 -41.637802 39.57483 -41.637802c21.856506 0 39.574768 18.641861 39.574768 41.637802c0 22.99591 -17.718262 41.637787 -39.574768 41.637787c-21.856567 0 -39.57483 -18.641876 -39.57483 -41.637787z" fill-rule="evenodd"/><path stroke="#595959" stroke-width="1.0" stroke-linejoin="round" stroke-linecap="butt" d="m797.7318 284.33725c0 -2.3954163 1.8457031 -4.3372803 4.1223755 -4.3372803c2.2767334 0 4.1223755 1.941864 4.1223755 4.3372803c0 2.3953857 -1.8456421 4.3372498 -4.1223755 4.3372498c-2.2766724 0 -4.1223755 -1.941864 -4.1223755 -4.3372498m25.357239 0c0 -2.3954163 1.8456421 -4.3372803 4.1223755 -4.3372803c2.2766724 0 4.1223755 1.941864 4.1223755 4.3372803c0 2.3953857 -1.8457031 4.3372498 -4.1223755 4.3372498c-2.2767334 0 -4.1223755 -1.941864 -4.1223755 -4.3372498" fill-rule="evenodd"/><path stroke="#595959" stroke-width="1.0" stroke-linejoin="round" stroke-linecap="butt" d="m793.083 314.94855q21.44983 15.499237 42.849487 0" fill-rule="evenodd"/><path stroke="#595959" stroke-width="1.0" stroke-linejoin="round" stroke-linecap="butt" d="m774.958 296.79004l0 0c0 -22.995941 17.718262 -41.637802 39.57483 -41.637802c21.856506 0 39.574768 18.641861 39.574768 41.637802c0 22.99591 -17.718262 41.637787 -39.574768 41.637787c-21.856567 0 -39.57483 -18.641876 -39.57483 -41.637787z" fill-rule="evenodd"/><path fill="#000000" fill-opacity="0.0" d="m443.54276 100.580055l160.75589 -2.4881897" fill-rule="evenodd"/><path stroke="#595959" stroke-width="1.0" stroke-linejoin="round" stroke-linecap="butt" d="m443.54276 100.580055l160.75589 -2.4881897" fill-rule="evenodd"/><path fill="#000000" fill-opacity="0.0" d="m456.61942 92.565895l150.4252 0l0 21.6063l-150.4252 0z" fill-rule="evenodd"/><path fill="#000000" d="m512.96844 111.80589l0 -7.625l2.875 0q0.75 0 1.15625 0.0625q0.5625 0.09375 0.9375 0.359375q0.390625 0.265625 0.609375 0.75q0.234375 0.46875 0.234375 1.03125q0 0.96875 -0.625 1.65625q-0.609375 0.671875 -2.234375 0.671875l-1.953125 0l0 3.09375l-1.0 0zm1.0 -4.0l1.96875 0q0.984375 0 1.390625 -0.359375q0.421875 -0.375 0.421875 -1.03125q0 -0.484375 -0.25 -0.8125q-0.234375 -0.34375 -0.640625 -0.453125q-0.25 -0.078125 -0.9375 -0.078125l-1.953125 0l0 2.734375zm5.982666 4.0l0 -7.625l0.9375 0l0 4.34375l2.21875 -2.25l1.21875 0l-2.125 2.0625l2.328125 3.46875l-1.15625 0l-1.8125 -2.828125l-0.671875 0.640625l0 2.1875l-0.9375 0zm10.257507 -1.234375l0 -2.09375l-2.078125 0l0 -0.875l2.078125 0l0 -2.078125l0.875 0l0 2.078125l2.078125 0l0 0.875l-2.078125 0l0 2.09375l-0.875 0zm12.777466 -1.4375l1.015625 0.25q-0.328125 1.25 -1.15625 1.90625q-0.8125 0.640625 -2.015625 0.640625q-1.234375 0 -2.0 -0.5q-0.765625 -0.5 -1.171875 -1.453125q-0.40625 -0.953125 -0.40625 -2.046875q0 -1.1875 0.453125 -2.078125q0.453125 -0.890625 1.296875 -1.34375q0.84375 -0.46875 1.84375 -0.46875q1.15625 0 1.9375 0.59375q0.78125 0.578125 1.078125 1.640625l-0.984375 0.234375q-0.265625 -0.84375 -0.78125 -1.21875q-0.5 -0.375 -1.265625 -0.375q-0.875 0 -1.46875 0.421875q-0.59375 0.421875 -0.828125 1.140625q-0.234375 0.703125 -0.234375 1.453125q0 0.96875 0.28125 1.703125q0.28125 0.71875 0.875 1.078125q0.59375 0.359375 1.296875 0.359375q0.84375 0 1.4375 -0.484375q0.59375 -0.5 0.796875 -1.453125zm1.4143677 2.671875l2.921875 -7.625l1.09375 0l3.125 7.625l-1.15625 0l-0.890625 -2.3125l-3.1875 0l-0.828125 2.3125l-1.078125 0zm2.203125 -3.125l2.578125 0l-0.796875 -2.125q-0.359375 -0.953125 -0.53125 -1.578125q-0.15625 0.734375 -0.421875 1.453125l-0.828125 2.25z" fill-rule="nonzero"/><path fill="#000000" fill-opacity="0.0" d="m748.5801 343.7848l131.90546 0l0 31.338562l-131.90546 0z" fill-rule="evenodd"/><path fill="#000000" d="m762.06445 361.24353l0.96875 0.125q-0.234375 0.84375 -0.859375 1.3125q-0.609375 0.46875 -1.578125 0.46875q-1.203125 0 -1.921875 -0.75q-0.703125 -0.75 -0.703125 -2.09375q0 -1.390625 0.71875 -2.15625q0.71875 -0.78125 1.859375 -0.78125q1.109375 0 1.8125 0.765625q0.703125 0.75 0.703125 2.125q0 0.078125 0 0.234375l-4.125 0q0.046875 0.921875 0.515625 1.40625q0.46875 0.484375 1.15625 0.484375q0.515625 0 0.875 -0.265625q0.359375 -0.28125 0.578125 -0.875zm-3.078125 -1.515625l3.09375 0q-0.0625 -0.6875 -0.359375 -1.046875q-0.453125 -0.53125 -1.15625 -0.53125q-0.640625 0 -1.09375 0.4375q-0.4375 0.421875 -0.484375 1.140625zm4.5983276 3.296875l2.015625 -2.875l-1.859375 -2.65625l1.171875 0l0.84375 1.296875q0.234375 0.375 0.390625 0.625q0.21875 -0.34375 0.40625 -0.609375l0.9375 -1.3125l1.125 0l-1.921875 2.609375l2.0625 2.921875l-1.15625 0l-1.125 -1.71875l-0.296875 -0.46875l-1.453125 2.1875l-1.140625 0zm8.0 -0.84375l0.125 0.828125q-0.390625 0.09375 -0.703125 0.09375q-0.5 0 -0.78125 -0.15625q-0.28125 -0.171875 -0.40625 -0.4375q-0.109375 -0.265625 -0.109375 -1.109375l0 -3.171875l-0.6875 0l0 -0.734375l0.6875 0l0 -1.359375l0.9375 -0.5625l0 1.921875l0.9375 0l0 0.734375l-0.9375 0l0 3.234375q0 0.390625 0.046875 0.515625q0.046875 0.109375 0.15625 0.1875q0.109375 0.0625 0.328125 0.0625q0.15625 0 0.40625 -0.046875zm4.6950684 -0.9375l0.96875 0.125q-0.234375 0.84375 -0.859375 1.3125q-0.609375 0.46875 -1.578125 0.46875q-1.203125 0 -1.921875 -0.75q-0.703125 -0.75 -0.703125 -2.09375q0 -1.390625 0.71875 -2.15625q0.71875 -0.78125 1.859375 -0.78125q1.109375 0 1.8125 0.765625q0.703125 0.75 0.703125 2.125q0 0.078125 0 0.234375l-4.125 0q0.046875 0.921875 0.515625 1.40625q0.46875 0.484375 1.15625 0.484375q0.515625 0 0.875 -0.265625q0.359375 -0.28125 0.578125 -0.875zm-3.078125 -1.515625l3.09375 0q-0.0625 -0.6875 -0.359375 -1.046875q-0.453125 -0.53125 -1.15625 -0.53125q-0.640625 0 -1.09375 0.4375q-0.4375 0.421875 -0.484375 1.140625zm5.2077026 3.296875l0 -5.53125l0.84375 0l0 0.84375q0.328125 -0.59375 0.59375 -0.78125q0.28125 -0.1875 0.609375 -0.1875q0.46875 0 0.953125 0.3125l-0.3125 0.859375q-0.34375 -0.203125 -0.6875 -0.203125q-0.3125 0 -0.5625 0.1875q-0.234375 0.1875 -0.34375 0.515625q-0.15625 0.5 -0.15625 1.09375l0 2.890625l-0.9375 0zm3.56427 0l0 -5.53125l0.84375 0l0 0.796875q0.609375 -0.921875 1.75 -0.921875q0.5 0 0.921875 0.1875q0.421875 0.171875 0.625 0.46875q0.21875 0.296875 0.296875 0.6875q0.046875 0.265625 0.046875 0.921875l0 3.390625l-0.9375 0l0 -3.359375q0 -0.578125 -0.109375 -0.859375q-0.109375 -0.28125 -0.390625 -0.453125q-0.265625 -0.171875 -0.640625 -0.171875q-0.59375 0 -1.03125 0.390625q-0.4375 0.375 -0.4375 1.4375l0 3.015625l-0.9375 0zm9.535889 -0.6875q-0.53125 0.453125 -1.015625 0.640625q-0.46875 0.171875 -1.015625 0.171875q-0.921875 0 -1.40625 -0.4375q-0.484375 -0.453125 -0.484375 -1.140625q0 -0.40625 0.171875 -0.734375q0.1875 -0.34375 0.484375 -0.546875q0.3125 -0.203125 0.6875 -0.3125q0.265625 -0.0625 0.828125 -0.140625q1.125 -0.125 1.671875 -0.3125q0 -0.203125 0 -0.25q0 -0.578125 -0.265625 -0.8125q-0.359375 -0.3125 -1.0625 -0.3125q-0.65625 0 -0.984375 0.234375q-0.3125 0.234375 -0.453125 0.8125l-0.921875 -0.125q0.125 -0.578125 0.40625 -0.9375q0.296875 -0.375 0.828125 -0.5625q0.546875 -0.203125 1.25 -0.203125q0.71875 0 1.15625 0.171875q0.4375 0.171875 0.640625 0.421875q0.21875 0.25 0.296875 0.640625q0.046875 0.234375 0.046875 0.859375l0 1.25q0 1.296875 0.0625 1.65625q0.0625 0.34375 0.234375 0.65625l-0.96875 0q-0.15625 -0.296875 -0.1875 -0.6875zm-0.078125 -2.078125q-0.515625 0.203125 -1.53125 0.34375q-0.578125 0.078125 -0.828125 0.1875q-0.234375 0.109375 -0.359375 0.3125q-0.125 0.1875 -0.125 0.4375q0 0.375 0.28125 0.625q0.28125 0.25 0.828125 0.25q0.53125 0 0.953125 -0.234375q0.421875 -0.234375 0.625 -0.65625q0.15625 -0.3125 0.15625 -0.9375l0 -0.328125zm2.3795776 2.765625l0 -7.625l0.9375 0l0 7.625l-0.9375 0zm5.34375 -6.546875l0 -1.078125l0.9375 0l0 1.078125l-0.9375 0zm0 6.546875l0 -5.53125l0.9375 0l0 5.53125l-0.9375 0zm5.9456177 0l0 -0.703125q-0.515625 0.828125 -1.546875 0.828125q-0.65625 0 -1.21875 -0.359375q-0.546875 -0.375 -0.859375 -1.015625q-0.296875 -0.65625 -0.296875 -1.5q0 -0.828125 0.28125 -1.5q0.28125 -0.6875 0.828125 -1.046875q0.546875 -0.359375 1.234375 -0.359375q0.5 0 0.890625 0.21875q0.390625 0.203125 0.625 0.546875l0 -2.734375l0.9375 0l0 7.625l-0.875 0zm-2.953125 -2.75q0 1.046875 0.4375 1.578125q0.453125 0.53125 1.0625 0.53125q0.609375 0 1.03125 -0.5q0.4375 -0.515625 0.4375 -1.53125q0 -1.140625 -0.4375 -1.671875q-0.4375 -0.53125 -1.078125 -0.53125q-0.609375 0 -1.03125 0.515625q-0.421875 0.5 -0.421875 1.609375zm9.082764 0.96875l0.96875 0.125q-0.234375 0.84375 -0.859375 1.3125q-0.609375 0.46875 -1.578125 0.46875q-1.203125 0 -1.921875 -0.75q-0.703125 -0.75 -0.703125 -2.09375q0 -1.390625 0.71875 -2.15625q0.71875 -0.78125 1.859375 -0.78125q1.109375 0 1.8125 0.765625q0.703125 0.75 0.703125 2.125q0 0.078125 0 0.234375l-4.125 0q0.046875 0.921875 0.515625 1.40625q0.46875 0.484375 1.15625 0.484375q0.515625 0 0.875 -0.265625q0.359375 -0.28125 0.578125 -0.875zm-3.078125 -1.515625l3.09375 0q-0.0625 -0.6875 -0.359375 -1.046875q-0.453125 -0.53125 -1.15625 -0.53125q-0.640625 0 -1.09375 0.4375q-0.4375 0.421875 -0.484375 1.140625zm5.2233887 3.296875l0 -5.53125l0.84375 0l0 0.796875q0.609375 -0.921875 1.75 -0.921875q0.5 0 0.921875 0.1875q0.421875 0.171875 0.625 0.46875q0.21875 0.296875 0.296875 0.6875q0.046875 0.265625 0.046875 0.921875l0 3.390625l-0.9375 0l0 -3.359375q0 -0.578125 -0.109375 -0.859375q-0.109375 -0.28125 -0.390625 -0.453125q-0.265625 -0.171875 -0.640625 -0.171875q-0.59375 0 -1.03125 0.390625q-0.4375 0.375 -0.4375 1.4375l0 3.015625l-0.9375 0zm7.9733276 -0.84375l0.125 0.828125q-0.390625 0.09375 -0.703125 0.09375q-0.5 0 -0.78125 -0.15625q-0.28125 -0.171875 -0.40625 -0.4375q-0.109375 -0.265625 -0.109375 -1.109375l0 -3.171875l-0.6875 0l0 -0.734375l0.6875 0l0 -1.359375l0.9375 -0.5625l0 1.921875l0.9375 0l0 0.734375l-0.9375 0l0 3.234375q0 0.390625 0.046875 0.515625q0.046875 0.109375 0.15625 0.1875q0.109375 0.0625 0.328125 0.0625q0.15625 0 0.40625 -0.046875zm0.91381836 -5.703125l0 -1.078125l0.9375 0l0 1.078125l-0.9375 0zm0 6.546875l0 -5.53125l0.9375 0l0 5.53125l-0.9375 0zm4.4143066 -0.84375l0.125 0.828125q-0.390625 0.09375 -0.703125 0.09375q-0.5 0 -0.78125 -0.15625q-0.28125 -0.171875 -0.40625 -0.4375q-0.109375 -0.265625 -0.109375 -1.109375l0 -3.171875l-0.6875 0l0 -0.734375l0.6875 0l0 -1.359375l0.9375 -0.5625l0 1.921875l0.9375 0l0 0.734375l-0.9375 0l0 3.234375q0 0.390625 0.046875 0.515625q0.046875 0.109375 0.15625 0.1875q0.109375 0.0625 0.328125 0.0625q0.15625 0 0.40625 -0.046875zm0.86694336 2.96875l-0.09375 -0.875q0.296875 0.078125 0.53125 0.078125q0.3125 0 0.5 -0.109375q0.1875 -0.09375 0.3125 -0.28125q0.078125 -0.140625 0.28125 -0.703125q0.03125 -0.078125 0.078125 -0.21875l-2.09375 -5.546875l1.015625 0l1.140625 3.203125q0.234375 0.609375 0.40625 1.28125q0.15625 -0.640625 0.375 -1.265625l1.1875 -3.21875l0.9375 0l-2.109375 5.625q-0.328125 0.90625 -0.515625 1.25q-0.25 0.46875 -0.578125 0.6875q-0.3125 0.21875 -0.765625 0.21875q-0.265625 0 -0.609375 -0.125zm10.132507 0.125q-0.78125 -0.984375 -1.328125 -2.296875q-0.53125 -1.3125 -0.53125 -2.71875q0 -1.234375 0.40625 -2.375q0.46875 -1.3125 1.453125 -2.625l0.65625 0q-0.625 1.09375 -0.828125 1.546875q-0.3125 0.71875 -0.5 1.5q-0.21875 0.984375 -0.21875 1.96875q0 2.5 1.546875 5.0l-0.65625 0zm5.376709 -2.25l0 -0.8125q-0.65625 0.9375 -1.75 0.9375q-0.5 0 -0.921875 -0.1875q-0.421875 -0.1875 -0.625 -0.46875q-0.203125 -0.28125 -0.296875 -0.703125q-0.046875 -0.265625 -0.046875 -0.875l0 -3.421875l0.9375 0l0 3.0625q0 0.734375 0.046875 1.0q0.09375 0.359375 0.375 0.578125q0.296875 0.203125 0.703125 0.203125q0.421875 0 0.796875 -0.203125q0.375 -0.21875 0.515625 -0.59375q0.15625 -0.375 0.15625 -1.078125l0 -2.96875l0.9375 0l0 5.53125l-0.828125 0zm1.9265137 -1.65625l0.921875 -0.140625q0.078125 0.5625 0.4375 0.859375q0.359375 0.296875 1.0 0.296875q0.640625 0 0.953125 -0.265625q0.3125 -0.265625 0.3125 -0.625q0 -0.3125 -0.28125 -0.5q-0.1875 -0.125 -0.953125 -0.3125q-1.03125 -0.265625 -1.4375 -0.453125q-0.390625 -0.1875 -0.59375 -0.515625q-0.203125 -0.34375 -0.203125 -0.75q0 -0.359375 0.171875 -0.671875q0.171875 -0.328125 0.453125 -0.53125q0.21875 -0.15625 0.59375 -0.265625q0.390625 -0.125 0.8125 -0.125q0.65625 0 1.140625 0.1875q0.5 0.1875 0.734375 0.515625q0.234375 0.3125 0.3125 0.859375l-0.90625 0.125q-0.0625 -0.4375 -0.375 -0.671875q-0.296875 -0.234375 -0.828125 -0.234375q-0.65625 0 -0.9375 0.21875q-0.265625 0.203125 -0.265625 0.484375q0 0.1875 0.109375 0.328125q0.125 0.15625 0.359375 0.25q0.140625 0.0625 0.828125 0.25q1.0 0.265625 1.390625 0.4375q0.390625 0.15625 0.609375 0.484375q0.234375 0.3125 0.234375 0.796875q0 0.46875 -0.28125 0.890625q-0.265625 0.40625 -0.78125 0.640625q-0.515625 0.21875 -1.171875 0.21875q-1.078125 0 -1.640625 -0.4375q-0.5625 -0.453125 -0.71875 -1.34375zm9.484375 -0.125l0.96875 0.125q-0.234375 0.84375 -0.859375 1.3125q-0.609375 0.46875 -1.578125 0.46875q-1.203125 0 -1.921875 -0.75q-0.703125 -0.75 -0.703125 -2.09375q0 -1.390625 0.71875 -2.15625q0.71875 -0.78125 1.859375 -0.78125q1.109375 0 1.8125 0.765625q0.703125 0.75 0.703125 2.125q0 0.078125 0 0.234375l-4.125 0q0.046875 0.921875 0.515625 1.40625q0.46875 0.484375 1.15625 0.484375q0.515625 0 0.875 -0.265625q0.359375 -0.28125 0.578125 -0.875zm-3.078125 -1.515625l3.09375 0q-0.0625 -0.6875 -0.359375 -1.046875q-0.453125 -0.53125 -1.15625 -0.53125q-0.640625 0 -1.09375 0.4375q-0.4375 0.421875 -0.484375 1.140625zm5.2077637 3.296875l0 -5.53125l0.84375 0l0 0.84375q0.328125 -0.59375 0.59375 -0.78125q0.28125 -0.1875 0.609375 -0.1875q0.46875 0 0.953125 0.3125l-0.3125 0.859375q-0.34375 -0.203125 -0.6875 -0.203125q-0.3125 0 -0.5625 0.1875q-0.234375 0.1875 -0.34375 0.515625q-0.15625 0.5 -0.15625 1.09375l0 2.890625l-0.9375 0zm4.173584 2.25l-0.671875 0q1.5625 -2.5 1.5625 -5.0q0 -0.984375 -0.21875 -1.953125q-0.1875 -0.78125 -0.5 -1.5q-0.203125 -0.46875 -0.84375 -1.5625l0.671875 0q0.984375 1.3125 1.453125 2.625q0.390625 1.140625 0.390625 2.375q0 1.40625 -0.53125 2.71875q-0.53125 1.3125 -1.3125 2.296875z" fill-rule="nonzero"/><path fill="#000000" d="m779.8254 376.02478l0 -7.625l2.875 0q0.75 0 1.15625 0.0625q0.5625 0.09375 0.9375 0.359375q0.390625 0.265625 0.609375 0.75q0.234375 0.46875 0.234375 1.03125q0 0.96875 -0.625 1.65625q-0.609375 0.671875 -2.234375 0.671875l-1.953125 0l0 3.09375l-1.0 0zm1.0 -4.0l1.96875 0q0.984375 0 1.390625 -0.359375q0.421875 -0.375 0.421875 -1.03125q0 -0.484375 -0.25 -0.8125q-0.234375 -0.34375 -0.640625 -0.453125q-0.25 -0.078125 -0.9375 -0.078125l-1.953125 0l0 2.734375zm6.06073 4.0l0 -7.625l1.015625 0l0 3.78125l3.78125 -3.78125l1.375 0l-3.203125 3.09375l3.34375 4.53125l-1.34375 0l-2.71875 -3.859375l-1.234375 1.21875l0 2.640625l-1.015625 0zm11.958923 -1.234375l0 -2.09375l-2.078125 0l0 -0.875l2.078125 0l0 -2.078125l0.875 0l0 2.078125l2.078125 0l0 0.875l-2.078125 0l0 2.09375l-0.875 0zm10.824341 -0.796875l0.921875 0.125q-0.15625 0.953125 -0.78125 1.5q-0.625 0.53125 -1.53125 0.53125q-1.125 0 -1.8125 -0.734375q-0.6875 -0.75 -0.6875 -2.125q0 -0.90625 0.296875 -1.578125q0.296875 -0.671875 0.890625 -1.0q0.609375 -0.34375 1.328125 -0.34375q0.890625 0 1.46875 0.46875q0.578125 0.453125 0.734375 1.28125l-0.90625 0.140625q-0.140625 -0.546875 -0.46875 -0.828125q-0.328125 -0.28125 -0.796875 -0.28125q-0.703125 0 -1.15625 0.515625q-0.4375 0.5 -0.4375 1.59375q0 1.109375 0.421875 1.625q0.4375 0.5 1.125 0.5q0.546875 0 0.90625 -0.34375q0.375 -0.34375 0.484375 -1.046875zm5.5 0.25l0.96875 0.125q-0.234375 0.84375 -0.859375 1.3125q-0.609375 0.46875 -1.578125 0.46875q-1.203125 0 -1.921875 -0.75q-0.703125 -0.75 -0.703125 -2.09375q0 -1.390625 0.71875 -2.15625q0.71875 -0.78125 1.859375 -0.78125q1.109375 0 1.8125 0.765625q0.703125 0.75 0.703125 2.125q0 0.078125 0 0.234375l-4.125 0q0.046875 0.921875 0.515625 1.40625q0.46875 0.484375 1.15625 0.484375q0.515625 0 0.875 -0.265625q0.359375 -0.28125 0.578125 -0.875zm-3.078125 -1.515625l3.09375 0q-0.0625 -0.6875 -0.359375 -1.046875q-0.453125 -0.53125 -1.15625 -0.53125q-0.640625 0 -1.09375 0.4375q-0.4375 0.421875 -0.484375 1.140625zm5.2077637 3.296875l0 -5.53125l0.84375 0l0 0.84375q0.328125 -0.59375 0.59375 -0.78125q0.28125 -0.1875 0.609375 -0.1875q0.46875 0 0.953125 0.3125l-0.3125 0.859375q-0.34375 -0.203125 -0.6875 -0.203125q-0.3125 0 -0.5625 0.1875q-0.234375 0.1875 -0.34375 0.515625q-0.15625 0.5 -0.15625 1.09375l0 2.890625l-0.9375 0zm5.611084 -0.84375l0.125 0.828125q-0.390625 0.09375 -0.703125 0.09375q-0.5 0 -0.78125 -0.15625q-0.28125 -0.171875 -0.40625 -0.4375q-0.109375 -0.265625 -0.109375 -1.109375l0 -3.171875l-0.6875 0l0 -0.734375l0.6875 0l0 -1.359375l0.9375 -0.5625l0 1.921875l0.9375 0l0 0.734375l-0.9375 0l0 3.234375q0 0.390625 0.046875 0.515625q0.046875 0.109375 0.15625 0.1875q0.109375 0.0625 0.328125 0.0625q0.15625 0 0.40625 -0.046875zm5.8432007 -0.390625l0 -2.09375l-2.078125 0l0 -0.875l2.078125 0l0 -2.078125l0.875 0l0 2.078125l2.078125 0l0 0.875l-2.078125 0l0 2.09375l-0.875 0zm12.777466 -1.4375l1.015625 0.25q-0.328125 1.25 -1.15625 1.90625q-0.8125 0.640625 -2.015625 0.640625q-1.234375 0 -2.0 -0.5q-0.765625 -0.5 -1.171875 -1.453125q-0.40625 -0.953125 -0.40625 -2.046875q0 -1.1875 0.453125 -2.078125q0.453125 -0.890625 1.296875 -1.34375q0.84375 -0.46875 1.84375 -0.46875q1.15625 0 1.9375 0.59375q0.78125 0.578125 1.078125 1.640625l-0.984375 0.234375q-0.265625 -0.84375 -0.78125 -1.21875q-0.5 -0.375 -1.265625 -0.375q-0.875 0 -1.46875 0.421875q-0.59375 0.421875 -0.828125 1.140625q-0.234375 0.703125 -0.234375 1.453125q0 0.96875 0.28125 1.703125q0.28125 0.71875 0.875 1.078125q0.59375 0.359375 1.296875 0.359375q0.84375 0 1.4375 -0.484375q0.59375 -0.5 0.796875 -1.453125zm1.4143677 2.671875l2.921875 -7.625l1.09375 0l3.125 7.625l-1.15625 0l-0.890625 -2.3125l-3.1875 0l-0.828125 2.3125l-1.078125 0zm2.203125 -3.125l2.578125 0l-0.796875 -2.125q-0.359375 -0.953125 -0.53125 -1.578125q-0.15625 0.734375 -0.421875 1.453125l-0.828125 2.25z" fill-rule="nonzero"/><path fill="#000000" fill-opacity="0.0" d="m10.409449 12.010499l336.7559 0l0 515.6221l-336.7559 0z" fill-rule="evenodd"/><path stroke="#595959" stroke-width="1.0" stroke-linejoin="round" stroke-linecap="butt" stroke-dasharray="4.0,3.0,1.0,3.0" d="m10.409449 12.010499l336.7559 0l0 515.6221l-336.7559 0z" fill-rule="evenodd"/><path fill="#eeeeee" d="m241.0 151.79002l98.04724 0l0 91.086624l-98.04724 0z" fill-rule="evenodd"/><path stroke="#595959" stroke-width="1.0" stroke-linejoin="round" stroke-linecap="butt" d="m241.0 151.79002l98.04724 0l0 91.086624l-98.04724 0z" fill-rule="evenodd"/><path fill="#000000" d="m269.47617 204.25333l0 -13.359375l1.765625 0l0 13.359375l-1.765625 0zm4.355194 -6.5q0 -3.328125 1.78125 -5.203125q1.78125 -1.890625 4.609375 -1.890625q1.84375 0 3.328125 0.890625q1.484375 0.875 2.265625 2.46875q0.78125 1.578125 0.78125 3.578125q0 2.03125 -0.828125 3.640625q-0.8125 1.59375 -2.3125 2.421875q-1.5 0.828125 -3.25 0.828125q-1.875 0 -3.359375 -0.90625q-1.484375 -0.921875 -2.25 -2.5q-0.765625 -1.578125 -0.765625 -3.328125zm1.8125 0.015625q0 2.421875 1.296875 3.8125q1.296875 1.390625 3.265625 1.390625q2.0 0 3.28125 -1.40625q1.28125 -1.40625 1.28125 -3.984375q0 -1.625 -0.546875 -2.84375q-0.546875 -1.21875 -1.609375 -1.875q-1.0625 -0.671875 -2.375 -0.671875q-1.890625 0 -3.25 1.296875q-1.34375 1.28125 -1.34375 4.28125zm16.636414 6.484375l0 -11.78125l-4.40625 0l0 -1.578125l10.578125 0l0 1.578125l-4.40625 0l0 11.78125l-1.765625 0zm8.052246 0l0 -13.359375l1.765625 0l0 5.484375l6.9375 0l0 -5.484375l1.765625 0l0 13.359375l-1.765625 0l0 -6.296875l-6.9375 0l0 6.296875l-1.765625 0z" fill-rule="nonzero"/><path fill="#eeeeee" d="m241.0 242.88715l98.04724 0l0 27.118103l-98.04724 0z" fill-rule="evenodd"/><path stroke="#595959" stroke-width="1.0" stroke-linejoin="round" stroke-linecap="butt" d="m241.0 242.88715l98.04724 0l0 27.118103l-98.04724 0z" fill-rule="evenodd"/><path fill="#990000" d="m261.12128 261.2462l0 -9.54686l3.59375 0q1.09375 0 1.75 0.296875q0.65625 0.28125 1.03125 0.890625q0.375 0.609375 0.375 1.265625q0 0.609375 -0.34375 1.15625q-0.328125 0.53125 -0.984375 0.85935974q0.859375 0.25 1.328125 0.875q0.46875 0.609375 0.46875 1.4375q0 0.671875 -0.296875 1.25q-0.28125 0.578125 -0.703125 0.890625q-0.40625 0.3125 -1.03125 0.46875q-0.625 0.15625 -1.546875 0.15625l-3.640625 0zm1.265625 -5.5312347l2.0625 0q0.84375 0 1.203125 -0.109375q0.484375 -0.140625 0.71875 -0.46875q0.25 -0.34375 0.25 -0.84375q0 -0.46875 -0.234375 -0.828125q-0.21875 -0.359375 -0.640625 -0.5q-0.421875 -0.140625 -1.453125 -0.140625l-1.90625 0l0 2.890625zm0 4.4062347l2.375 0q0.609375 0 0.859375 -0.046875q0.4375 -0.078125 0.734375 -0.25q0.296875 -0.1875 0.484375 -0.53125q0.1875 -0.359375 0.1875 -0.8125q0 -0.53125 -0.28125 -0.921875q-0.265625 -0.40625 -0.75 -0.5625q-0.484375 -0.15625 -1.40625 -0.15625l-2.203125 0l0 3.28125zm7.29599 -3.515625q0 -2.3749847 1.28125 -3.7187347q1.28125 -1.34375 3.296875 -1.34375q1.3125 0 2.375 0.625q1.0625 0.625 1.609375 1.765625q0.5625 1.125 0.5625 2.5624847q0 1.4375 -0.59375 2.59375q-0.578125 1.140625 -1.65625 1.734375q-1.0625 0.578125 -2.3125 0.578125q-1.34375 0 -2.40625 -0.640625q-1.0625 -0.65625 -1.609375 -1.78125q-0.546875 -1.125 -0.546875 -2.375zm1.3125 0.015625q0 1.71875 0.921875 2.71875q0.921875 0.984375 2.328125 0.984375q1.421875 0 2.34375 -1.0q0.921875 -1.0 0.921875 -2.84375q0 -1.1562347 -0.40625 -2.0312347q-0.390625 -0.875 -1.15625 -1.34375q-0.75 -0.484375 -1.6875 -0.484375q-1.34375 0 -2.3125 0.921875q-0.953125 0.921875 -0.953125 3.0781097zm9.054535 -0.015625q0 -2.3749847 1.28125 -3.7187347q1.28125 -1.34375 3.296875 -1.34375q1.3125 0 2.375 0.625q1.0625 0.625 1.609375 1.765625q0.5625 1.125 0.5625 2.5624847q0 1.4375 -0.59375 2.59375q-0.578125 1.140625 -1.65625 1.734375q-1.0625 0.578125 -2.3125 0.578125q-1.34375 0 -2.40625 -0.640625q-1.0625 -0.65625 -1.609375 -1.78125q-0.546875 -1.125 -0.546875 -2.375zm1.3125 0.015625q0 1.71875 0.921875 2.71875q0.921875 0.984375 2.328125 0.984375q1.421875 0 2.34375 -1.0q0.921875 -1.0 0.921875 -2.84375q0 -1.1562347 -0.40625 -2.0312347q-0.390625 -0.875 -1.15625 -1.34375q-0.75 -0.484375 -1.6875 -0.484375q-1.34375 0 -2.3125 0.921875q-0.953125 0.921875 -0.953125 3.0781097zm11.867065 4.625l0 -8.42186l-3.140625 0l0 -1.125l7.5625 0l0 1.125l-3.15625 0l0 8.42186l-1.265625 0zm15.978455 -3.34375l1.265625 0.3125q-0.390625 1.5625 -1.421875 2.375q-1.03125 0.8125 -2.53125 0.8125q-1.53125 0 -2.5 -0.625q-0.96875 -0.625 -1.484375 -1.8125q-0.5 -1.1875 -0.5 -2.5625q0 -1.4843597 0.5625 -2.5937347q0.578125 -1.109375 1.625 -1.6875q1.0625 -0.578125 2.328125 -0.578125q1.421875 0 2.390625 0.734375q0.984375 0.71875 1.375 2.046875l-1.25 0.296875q-0.328125 -1.046875 -0.96875 -1.515625q-0.625 -0.484375 -1.578125 -0.484375q-1.09375 0 -1.84375 0.53125q-0.734375 0.53125 -1.03125 1.421875q-0.296875 0.875 -0.296875 1.8281097q0 1.21875 0.34375 2.125q0.359375 0.90625 1.109375 1.359375q0.75 0.4375 1.625 0.4375q1.0625 0 1.796875 -0.609375q0.734375 -0.609375 0.984375 -1.8125zm1.7814026 3.34375l3.65625 -9.54686l1.359375 0l3.90625 9.54686l-1.4375 0l-1.109375 -2.890625l-3.984375 0l-1.046875 2.890625l-1.34375 0zm2.75 -3.921875l3.234375 0l-1.0 -2.6406097q-0.453125 -1.203125 -0.671875 -1.96875q-0.1875 0.90625 -0.515625 1.8125l-1.046875 2.7968597z" fill-rule="nonzero"/><path fill="#eeeeee" d="m241.0 270.08313l98.04724 0l0 27.118103l-98.04724 0z" fill-rule="evenodd"/><path stroke="#595959" stroke-width="1.0" stroke-linejoin="round" stroke-linecap="butt" d="m241.0 270.08313l98.04724 0l0 27.118103l-98.04724 0z" fill-rule="evenodd"/><path fill="#000000" d="m266.4258 288.4422l0 -9.546875l3.59375 0q0.953125 0 1.453125 0.09375q0.703125 0.125 1.171875 0.453125q0.484375 0.328125 0.765625 0.921875q0.296875 0.59375 0.296875 1.296875q0 1.21875 -0.78125 2.0625q-0.765625 0.84375 -2.796875 0.84375l-2.4375 0l0 3.875l-1.265625 0zm1.265625 -5.0l2.453125 0q1.234375 0 1.75 -0.453125q0.515625 -0.46875 0.515625 -1.28125q0 -0.609375 -0.3125 -1.03125q-0.296875 -0.421875 -0.796875 -0.5625q-0.3125 -0.09375 -1.171875 -0.09375l-2.4375 0l0 3.421875zm7.48349 5.0l0 -9.546875l1.171875 0l0 5.453125l2.765625 -2.8125l1.515625 0l-2.640625 2.5625l2.90625 4.34375l-1.4375 0l-2.28125 -3.53125l-0.828125 0.796875l0 2.734375l-1.171875 0zm12.82019 -1.546875l0 -2.609375l-2.609375 0l0 -1.09375l2.609375 0l0 -2.59375l1.09375 0l0 2.59375l2.609375 0l0 1.09375l-2.609375 0l0 2.609375l-1.09375 0zm15.970764 -1.796875l1.265625 0.3125q-0.390625 1.5625 -1.421875 2.375q-1.03125 0.8125 -2.53125 0.8125q-1.53125 0 -2.5 -0.625q-0.96875 -0.625 -1.484375 -1.8125q-0.5 -1.1875 -0.5 -2.5625q0 -1.484375 0.5625 -2.59375q0.578125 -1.109375 1.625 -1.6875q1.0625 -0.578125 2.328125 -0.578125q1.421875 0 2.390625 0.734375q0.984375 0.71875 1.375 2.046875l-1.25 0.296875q-0.328125 -1.046875 -0.96875 -1.515625q-0.625 -0.484375 -1.578125 -0.484375q-1.09375 0 -1.84375 0.53125q-0.734375 0.53125 -1.03125 1.421875q-0.296875 0.875 -0.296875 1.828125q0 1.21875 0.34375 2.125q0.359375 0.90625 1.109375 1.359375q0.75 0.4375 1.625 0.4375q1.0625 0 1.796875 -0.609375q0.734375 -0.609375 0.984375 -1.8125zm1.7814331 3.34375l3.65625 -9.546875l1.359375 0l3.90625 9.546875l-1.4375 0l-1.109375 -2.890625l-3.984375 0l-1.046875 2.890625l-1.34375 0zm2.75 -3.921875l3.234375 0l-1.0 -2.640625q-0.453125 -1.203125 -0.671875 -1.96875q-0.1875 0.90625 -0.515625 1.8125l-1.046875 2.796875z" fill-rule="nonzero"/><path fill="#eeeeee" d="m490.06168 234.87665l115.62204 0l0 170.64566l-115.62204 0z" fill-rule="evenodd"/><path stroke="#595959" stroke-width="1.0" stroke-linejoin="round" stroke-linecap="butt" d="m490.06168 234.87665l115.62204 0l0 170.64566l-115.62204 0z" fill-rule="evenodd"/><path fill="#000000" d="m527.2697 325.65073l0.234375 1.453125q-0.6875 0.140625 -1.234375 0.140625q-0.890625 0 -1.390625 -0.28125q-0.484375 -0.28125 -0.6875 -0.734375q-0.203125 -0.46875 -0.203125 -1.9375l0 -5.578125l-1.203125 0l0 -1.265625l1.203125 0l0 -2.390625l1.625 -0.984375l0 3.375l1.65625 0l0 1.265625l-1.65625 0l0 5.671875q0 0.6875 0.078125 0.890625q0.09375 0.203125 0.28125 0.328125q0.203125 0.109375 0.578125 0.109375q0.265625 0 0.71875 -0.0625zm7.9332886 1.46875l0 -1.421875q-1.125 1.640625 -3.0625 1.640625q-0.859375 0 -1.609375 -0.328125q-0.734375 -0.328125 -1.09375 -0.828125q-0.359375 -0.5 -0.5 -1.21875q-0.109375 -0.46875 -0.109375 -1.53125l0 -5.984375l1.640625 0l0 5.359375q0 1.28125 0.109375 1.734375q0.15625 0.640625 0.65625 1.015625q0.5 0.375 1.234375 0.375q0.734375 0 1.375 -0.375q0.65625 -0.390625 0.921875 -1.03125q0.265625 -0.65625 0.265625 -1.890625l0 -5.1875l1.640625 0l0 9.671875l-1.46875 0zm4.0476074 0l0 -9.671875l1.46875 0l0 1.375q1.0625 -1.59375 3.078125 -1.59375q0.875 0 1.609375 0.3125q0.734375 0.3125 1.09375 0.828125q0.375 0.5 0.515625 1.203125q0.09375 0.453125 0.09375 1.59375l0 5.953125l-1.640625 0l0 -5.890625q0 -1.0 -0.203125 -1.484375q-0.1875 -0.5 -0.671875 -0.796875q-0.484375 -0.296875 -1.140625 -0.296875q-1.046875 0 -1.8125 0.671875q-0.75 0.65625 -0.75 2.515625l0 5.28125l-1.640625 0zm10.375732 0l0 -9.671875l1.46875 0l0 1.375q1.0625 -1.59375 3.078125 -1.59375q0.875 0 1.609375 0.3125q0.734375 0.3125 1.09375 0.828125q0.375 0.5 0.515625 1.203125q0.09375 0.453125 0.09375 1.59375l0 5.953125l-1.640625 0l0 -5.890625q0 -1.0 -0.203125 -1.484375q-0.1875 -0.5 -0.671875 -0.796875q-0.484375 -0.296875 -1.140625 -0.296875q-1.046875 0 -1.8125 0.671875q-0.75 0.65625 -0.75 2.515625l0 5.28125l-1.640625 0zm17.000671 -3.109375l1.6875 0.203125q-0.40625 1.484375 -1.484375 2.3125q-1.078125 0.8125 -2.765625 0.8125q-2.125 0 -3.375 -1.296875q-1.234375 -1.3125 -1.234375 -3.671875q0 -2.453125 1.25 -3.796875q1.265625 -1.34375 3.265625 -1.34375q1.9375 0 3.15625 1.328125q1.234375 1.3125 1.234375 3.703125q0 0.15625 0 0.4375l-7.21875 0q0.09375 1.59375 0.90625 2.453125q0.8125 0.84375 2.015625 0.84375q0.90625 0 1.546875 -0.46875q0.640625 -0.484375 1.015625 -1.515625zm-5.390625 -2.65625l5.40625 0q-0.109375 -1.21875 -0.625 -1.828125q-0.78125 -0.953125 -2.03125 -0.953125q-1.125 0 -1.90625 0.765625q-0.765625 0.75 -0.84375 2.015625zm9.094482 5.765625l0 -13.359375l1.640625 0l0 13.359375l-1.640625 0z" fill-rule="nonzero"/><path fill="#000000" fill-opacity="0.0" d="m534.83966 135.176l0.22052002 95.653534" fill-rule="evenodd"/><path stroke="#595959" stroke-width="1.0" stroke-linejoin="round" stroke-linecap="butt" stroke-dasharray="1.0,3.0" d="m534.83966 135.17598l0.20666504 89.65358" fill-rule="evenodd"/><path fill="#595959" stroke="#595959" stroke-width="1.0" stroke-linecap="butt" d="m533.3946 224.83336l1.6621704 4.5342865l1.6412964 -4.5419006z" fill-rule="evenodd"/><path fill="#000000" fill-opacity="0.0" d="m550.83966 135.176l0.22052002 95.653534" fill-rule="evenodd"/><path stroke="#595959" stroke-width="1.0" stroke-linejoin="round" stroke-linecap="butt" stroke-dasharray="1.0,3.0" d="m550.8535 141.17596l0.20666504 89.65358" fill-rule="evenodd"/><path fill="#595959" stroke="#595959" stroke-width="1.0" stroke-linecap="butt" d="m552.50525 141.17216l-1.6621704 -4.5342865l-1.6412964 4.5419006z" fill-rule="evenodd"/><path fill="#000000" fill-opacity="0.0" d="m339.03806 197.33333l151.02362 122.866135" fill-rule="evenodd"/><path stroke="#595959" stroke-width="1.0" stroke-linejoin="round" stroke-linecap="butt" stroke-dasharray="1.0,3.0" d="m343.69235 201.11986l146.36932 119.079605" fill-rule="evenodd"/><path fill="#595959" stroke="#595959" stroke-width="1.0" stroke-linecap="butt" d="m344.7347 199.83858l-4.562622 -1.5826569l2.4778748 4.1452026z" fill-rule="evenodd"/><path fill="#000000" fill-opacity="0.0" d="m774.958 296.79004l-169.25983 23.40155" fill-rule="evenodd"/><path stroke="#595959" stroke-width="1.0" stroke-linejoin="round" stroke-linecap="butt" stroke-dasharray="1.0,3.0" d="m774.958 296.79004l-163.3164 22.579834" fill-rule="evenodd"/><path fill="#595959" stroke="#595959" stroke-width="1.0" stroke-linecap="butt" d="m611.4154 317.7337l-4.269104 2.2576904l4.7215576 1.0146484z" fill-rule="evenodd"/><path fill="#000000" fill-opacity="0.0" d="m394.1458 205.38477l67.590546 54.393707l-16.031494 19.905518l-67.590546 -54.393707z" fill-rule="evenodd"/><path fill="#000000" d="m393.7229 227.13358l0.639801 0.6753235q-0.719574 0.6443634 -1.5494995 0.6784363q-0.8201599 0.021896362 -1.5261841 -0.5462799q-0.8764343 -0.705307 -0.9513855 -1.7082825q-0.06518555 -1.015152 0.7972717 -2.086029q0.5684509 -0.70581055 1.2211609 -1.0429535q0.65270996 -0.33714294 1.321106 -0.22044373q0.69033813 0.11433411 1.2503052 0.56495667q0.69384766 0.5583801 0.8502197 1.2859039q0.16616821 0.71536255 -0.23153687 1.4582825l-0.79422 -0.45864868q0.23345947 -0.51408386 0.15423584 -0.93885803q-0.07922363 -0.4247589 -0.44439697 -0.7186432q-0.54776 -0.44082642 -1.2242126 -0.32333374q-0.65444946 0.11512756 -1.3405151 0.9669647q-0.6958313 0.8639984 -0.6906128 1.5300751q0.02722168 0.6636963 0.5628357 1.0947266q0.4260254 0.342865 0.92163086 0.30046082q0.50775146 -0.03262329 1.0339966 -0.5116577zm4.1280212 3.6429443l0.67630005 0.70469666q-0.7118225 0.5101929 -1.4927673 0.48342896q-0.7687378 -0.016983032 -1.523468 -0.6243439q-0.9372864 -0.7542877 -1.026825 -1.789032q-0.07733154 -1.0249329 0.76553345 -2.0714722q0.8722534 -1.0830536 1.9124451 -1.228714q1.0499878 -0.15783691 1.9385986 0.5572815q0.8642578 0.6955261 0.93182373 1.7326355q0.07733154 1.0249329 -0.78512573 2.09581q-0.04901123 0.06085205 -0.14703369 0.1825409l-3.2135925 -2.5861664q-0.54174805 0.7473602 -0.4803772 1.4184875q0.06137085 0.67111206 0.59695435 1.1021423q0.40170288 0.3232727 0.8482971 0.34170532q0.45639038 0.0062713623 0.99923706 -0.31900024zm-1.4473572 -3.1102448l2.4102173 1.9396362q0.38253784 -0.57463074 0.37664795 -1.0406342q-0.01977539 -0.69784546 -0.5675659 -1.1386719q-0.49908447 -0.40164185 -1.1264954 -0.34498596q-0.60546875 0.054275513 -1.092804 0.58465576zm1.9891663 5.8326874l3.4694824 -4.3078613l0.6573181 0.5289917l-0.52923584 0.657135q0.62805176 -0.25671387 0.9526062 -0.23620605q0.33670044 0.030303955 0.5923462 0.23602295q0.36517334 0.29388428 0.5465088 0.8409424l-0.7824707 0.4733734q-0.14041138 -0.37371826 -0.40820312 -0.5892334q-0.24346924 -0.19592285 -0.55584717 -0.20661926q-0.3001709 -9.1552734E-4 -0.59121704 0.18606567q-0.43533325 0.29144287 -0.8077698 0.75387573l-1.8131409 2.2512665l-0.7303772 -0.5877533zm4.900635 2.8607483l-0.4220581 0.72332764q-0.36312866 -0.171875 -0.6065674 -0.36779785q-0.38952637 -0.31347656 -0.51065063 -0.611496q-0.11129761 -0.31019592 -0.042053223 -0.5954437q0.08139038 -0.2754364 0.6106262 -0.9325714l1.989563 -2.4703217l-0.535614 -0.43103027l0.46063232 -0.5719452l0.535614 0.43103027l0.85266113 -1.0587158l1.0831909 0.14968872l-1.2054749 1.4967957l0.7303467 0.58776855l-0.46063232 0.5719452l-0.7303467 -0.58776855l-2.028778 2.5189972q-0.24499512 0.30422974 -0.28689575 0.43096924q-0.032073975 0.11456299 0.004119873 0.24398804q0.046020508 0.117248535 0.21643066 0.25439453q0.12173462 0.097961426 0.34588623 0.21818542zm4.289154 -3.8688202l0.676239 -0.83966064l0.7303772 0.58776855l-0.676239 0.83966064l-0.7303772 -0.58776855zm-4.1065063 5.0988464l3.469452 -4.3078613l0.7303772 0.58776855l-3.469452 4.3078613l-0.7303772 -0.58776855zm2.0148315 1.6214294l3.0088196 -3.7359009l-0.6451721 -0.51919556l0.46066284 -0.5719452l0.6451416 0.51919556l0.36264038 -0.45025635q0.35281372 -0.43807983 0.6046448 -0.5763855q0.33258057 -0.21369934 0.73760986 -0.16854858q0.41479492 0.032974243 0.8895569 0.4150238q0.3043213 0.24490356 0.62286377 0.6215973l-0.6289978 0.5567932q-0.19207764 -0.23480225 -0.38684082 -0.39154053q-0.32867432 -0.2644806 -0.5923462 -0.23600769q-0.25152588 0.038269043 -0.5651245 0.42767334l-0.31362915 0.38941956l0.8399048 0.67593384l-0.46063232 0.5719452l-0.8399048 -0.67593384l-3.0088196 3.7359009l-0.7303772 -0.58776855zm6.2426147 -3.3798065l0.676239 -0.83966064l0.7303772 0.58776855l-0.67626953 0.83966064l-0.7303467 -0.58776855zm-4.1065063 5.0988464l3.469452 -4.3078613l0.7303772 0.58776855l-3.4694824 4.3078613l-0.7303467 -0.58776855zm5.93042 2.165207l0.6397705 0.6753235q-0.719574 0.64434814 -1.5494995 0.678421q-0.8201294 0.021911621 -1.5261536 -0.54626465q-0.87646484 -0.70532227 -0.951416 -1.7082977q-0.06518555 -1.0151367 0.79730225 -2.0860138q0.5684204 -0.70581055 1.2211304 -1.0429535q0.6527405 -0.33714294 1.321106 -0.22044373q0.69036865 0.11433411 1.2503052 0.5649414q0.69384766 0.5583801 0.8502197 1.2859192q0.16616821 0.7153473 -0.23153687 1.4582672l-0.79422 -0.45864868q0.23345947 -0.51408386 0.15423584 -0.9388428q-0.079193115 -0.4247589 -0.44439697 -0.7186432q-0.54776 -0.44082642 -1.2242126 -0.32333374q-0.65444946 0.11512756 -1.3405151 0.9669647q-0.6958313 0.8639984 -0.6905823 1.5300751q0.027191162 0.6636963 0.5628052 1.0947266q0.4260559 0.342865 0.92163086 0.30046082q0.507782 -0.03262329 1.0340271 -0.5116577zm3.3080444 4.3870087q-0.6980896 0.019836426 -1.1930542 -0.13781738q-0.47299194 -0.16001892 -0.89904785 -0.5028839q-0.7182007 -0.5779724 -0.8211365 -1.2223816q-0.09313965 -0.6565857 0.33810425 -1.1920166q0.25482178 -0.31640625 0.59454346 -0.46418762q0.36169434 -0.150177 0.72036743 -0.12223816q0.37088013 0.037719727 0.7316284 0.18763733q0.24612427 0.11785889 0.7333679 0.40968323q0.954834 0.60795593 1.4985046 0.8047943q0.12741089 -0.15820312 0.15679932 -0.19470215q0.36264038 -0.45025635 0.30270386 -0.79933167q-0.08395386 -0.46868896 -0.6317444 -0.9095154q-0.511261 -0.411438 -0.9138794 -0.4346161q-0.3904724 -0.013381958 -0.8626709 0.3487091l-0.6397705 -0.6753235q0.45999146 -0.3718872 0.904541 -0.4754486q0.4664917 -0.10592651 0.99798584 0.081100464q0.5534363 0.18467712 1.1012268 0.6254883q0.5599365 0.45062256 0.79296875 0.8587799q0.23303223 0.4081421 0.23446655 0.73020935q0.01361084 0.33184814 -0.17053223 0.6850586q-0.11050415 0.21191406 -0.50253296 0.6986847l-0.7840576 0.973526q-0.81344604 1.010025 -0.99017334 1.3291016q-0.16693115 0.30690002 -0.22903442 0.65805054l-0.7547302 -0.60736084q0.06448364 -0.32917786 0.28515625 -0.6529999zm1.2426453 -1.6674652q-0.52911377 -0.16506958 -1.4085693 -0.69229126q-0.49938965 -0.30162048 -0.76275635 -0.37316895q-0.2511902 -0.06175232 -0.47598267 0.018066406q-0.21499634 0.06765747 -0.37179565 0.26237488q-0.23522949 0.29205322 -0.17294312 0.66308594q0.062316895 0.3710327 0.4883423 0.7138977q0.4138794 0.33306885 0.8895569 0.4150238q0.4756775 0.081954956 0.8985596 -0.11924744q0.31774902 -0.14543152 0.70977783 -0.6321869l0.20581055 -0.2555542zm2.255188 4.281784l-0.4220581 0.72332764q-0.36312866 -0.171875 -0.6065979 -0.36779785q-0.38952637 -0.31347656 -0.5106201 -0.611496q-0.11129761 -0.31019592 -0.04208374 -0.5954437q0.0814209 -0.2754364 0.61065674 -0.9325714l1.9895325 -2.4703217l-0.5355835 -0.43103027l0.46063232 -0.5719452l0.5355835 0.43103027l0.85266113 -1.0587158l1.0832214 0.14968872l-1.2055054 1.4967957l0.7303772 0.5877533l-0.46063232 0.57196045l-0.7303772 -0.58776855l-2.0287476 2.5189972q-0.24502563 0.30422974 -0.28689575 0.43096924q-0.032104492 0.11456299 0.004119873 0.24398804q0.04598999 0.117248535 0.21640015 0.25439453q0.12173462 0.097961426 0.34591675 0.21818542zm4.2457275 2.2134094l0.67633057 0.7047119q-0.711853 0.5101776 -1.4927673 0.4834137q-0.7687683 -0.016983032 -1.5234985 -0.6243286q-0.9372864 -0.754303 -1.0267944 -1.7890472q-0.07736206 -1.0249329 0.7655029 -2.0714722q0.87228394 -1.0830536 1.9124451 -1.228714q1.0499878 -0.15783691 1.9385986 0.5572815q0.86428833 0.6955261 0.93182373 1.7326355q0.07733154 1.0249329 -0.78512573 2.09581q-0.04901123 0.06085205 -0.14700317 0.1825409l-3.213623 -2.5861664q-0.5417175 0.7473602 -0.4803772 1.4184875q0.06137085 0.6711273 0.59698486 1.1021423q0.40170288 0.3232727 0.8482666 0.34172058q0.45639038 0.0062561035 0.99923706 -0.3190155zm-1.4473572 -3.1102295l2.4102173 1.939621q0.38253784 -0.57463074 0.37667847 -1.0406342q-0.019805908 -0.69784546 -0.5675659 -1.1386719q-0.49908447 -0.4016266 -1.1265259 -0.34498596q-0.60546875 0.054275513 -1.092804 0.584671z" fill-rule="nonzero"/><path fill="#000000" fill-opacity="0.0" d="m639.9674 289.52124l86.078735 -10.834656l3.2126465 25.385834l-86.078735 10.834656z" fill-rule="evenodd"/><path fill="#000000" d="m655.33624 304.9313l0.9303589 0.008880615q-0.035339355 0.9651184 -0.586792 1.5856934q-0.55340576 0.60510254 -1.4525757 0.71829224q-1.1162109 0.14047241 -1.8905029 -0.5022278q-0.77630615 -0.6582031 -0.9489136 -2.0223083q-0.11376953 -0.89907837 0.09643555 -1.6027222q0.21020508 -0.7036438 0.75805664 -1.103302q0.5614624 -0.41714478 1.2745972 -0.506897q0.883667 -0.11123657 1.5161133 0.2816162q0.63049316 0.37734985 0.88946533 1.1793823l-0.8814697 0.25271606q-0.20819092 -0.5249939 -0.5690918 -0.7630615q-0.36083984 -0.23803711 -0.82592773 -0.1795044q-0.69763184 0.08782959 -1.0824585 0.6559448q-0.37127686 0.5506897 -0.23400879 1.6357727q0.13928223 1.1006165 0.6226196 1.5594788q0.49682617 0.44140625 1.1789551 0.3555298q0.54260254 -0.06829834 0.85601807 -0.45419312q0.32891846 -0.38787842 0.3491211 -1.0990906zm5.4883423 -0.43884277l0.9768677 0.0030517578q-0.12658691 0.866333 -0.6878662 1.4094238q-0.54577637 0.5411377 -1.506897 0.6621094q-1.1937256 0.15026855 -2.0010376 -0.5040283q-0.79174805 -0.6562805 -0.9604492 -1.9893799q-0.17462158 -1.3796387 0.4423828 -2.2289429q0.61505127 -0.86483765 1.7467651 -1.0072937q1.100647 -0.1385498 1.8944092 0.53323364q0.7918091 0.65625 0.9644165 2.0203552q0.00982666 0.07751465 0.029418945 0.23254395l-4.0927124 0.5151367q0.16223145 0.9087219 0.6881714 1.330719q0.5258789 0.42199707 1.2080078 0.33615112q0.5115967 -0.06439209 0.83477783 -0.37280273q0.32128906 -0.32388306 0.46374512 -0.9402771zm-3.2443237 -1.1192017l3.069519 -0.38638306q-0.14831543 -0.6742554 -0.48797607 -0.9937134q-0.5162964 -0.47045898 -1.2138672 -0.3826294q-0.6356201 0.07998657 -1.0302734 0.5706177q-0.38110352 0.47317505 -0.33740234 1.1921082zm5.5809326 2.6204224l-0.694458 -5.487488l0.8371582 -0.1053772l0.105895996 0.83706665q0.2510376 -0.6300354 0.49102783 -0.84921265q0.25549316 -0.22113037 0.5810547 -0.26211548q0.4650879 -0.058532715 0.9849243 0.19100952l-0.20214844 0.89160156q-0.36657715 -0.15859985 -0.7076416 -0.11566162q-0.3100586 0.039001465 -0.5345459 0.2562561q-0.20898438 0.215271 -0.27630615 0.5544739q-0.092285156 0.51556396 -0.01776123 1.1046143l0.36291504 2.8677368l-0.93011475 0.11709595zm5.4612427 -1.5378113l0.22796631 0.8059387q-0.37579346 0.14181519 -0.68585205 0.18081665q-0.4960327 0.062469482 -0.79473877 -0.057434082q-0.30059814 -0.1354065 -0.4580078 -0.38330078q-0.1418457 -0.24987793 -0.24780273 -1.0869446l-0.39819336 -3.1467896l-0.6821289 0.085876465l-0.09222412 -0.72857666l0.6821289 -0.08584595l-0.1706543 -1.3486328l0.8595581 -0.67510986l0.24127197 1.9066467l0.9301758 -0.11706543l0.092163086 0.72857666l-0.93011475 0.11706543l0.4060669 3.2087708q0.04901123 0.38754272 0.111206055 0.5057068q0.0602417 0.10266113 0.17858887 0.1665039q0.11639404 0.048339844 0.33337402 0.021026611q0.1550293 -0.019500732 0.3972168 -0.097229004zm0.1906128 -5.7721252l-0.13537598 -1.0695801l0.9301758 -0.11709595l0.13531494 1.0696106l-0.93011475 0.11706543zm0.82196045 6.4950867l-0.694458 -5.487488l0.9301758 -0.11709595l0.694397 5.487488l-0.93011475 0.11709595zm2.565979 -0.32299805l-0.6022949 -4.758911l-0.82159424 0.10342407l-0.09222412 -0.72857666l0.8216553 -0.10342407l-0.0725708 -0.57354736q-0.070617676 -0.55804443 0.0045166016 -0.8352356q0.07696533 -0.38763428 0.39056396 -0.647583q0.31158447 -0.27545166 0.91619873 -0.35153198q0.38757324 -0.048797607 0.87994385 -0.01626587l-0.035583496 0.8391113q-0.30236816 -0.024932861 -0.55041504 0.006286621q-0.4185791 0.052703857 -0.5810547 0.26211548q-0.14697266 0.20748901 -0.084228516 0.70355225l0.062805176 0.4960327l1.0696411 -0.13464355l0.09222412 0.72857666l-1.0697021 0.13464355l0.6022339 4.758911l-0.93011475 0.11706543zm1.8984375 -6.837494l-0.13531494 -1.0695801l0.93011475 -0.11709595l0.13537598 1.0696106l-0.9301758 0.11706543zm0.82196045 6.4950867l-0.694458 -5.487488l0.9301758 -0.11706543l0.694458 5.4874573l-0.9301758 0.11709595zm5.675049 -2.7615967l0.9303589 0.008880615q-0.035339355 0.9651184 -0.586792 1.5856934q-0.55340576 0.60510254 -1.4525757 0.71829224q-1.1162109 0.14050293 -1.8905029 -0.5022278q-0.77630615 -0.6582031 -0.9489136 -2.0223083q-0.11376953 -0.89907837 0.09637451 -1.6027222q0.21020508 -0.7036438 0.7581177 -1.103302q0.5614624 -0.41714478 1.2745972 -0.506897q0.883667 -0.11123657 1.5161133 0.2816162q0.63049316 0.37734985 0.88946533 1.1793823l-0.88153076 0.25271606q-0.20812988 -0.5249939 -0.56903076 -0.7630615q-0.36083984 -0.23803711 -0.82592773 -0.1795044q-0.69763184 0.08782959 -1.0824585 0.6559448q-0.3713379 0.5506897 -0.23400879 1.6357727q0.13928223 1.1006165 0.6226196 1.5594788q0.49682617 0.44140625 1.1789551 0.3555298q0.54260254 -0.06829834 0.85601807 -0.45419312q0.32885742 -0.38787842 0.3491211 -1.0990906zm5.455139 0.6677246q-0.47021484 0.51589966 -0.9272461 0.76239014q-0.44354248 0.22906494 -0.986084 0.29736328q-0.91467285 0.115112305 -1.4501953 -0.25842285q-0.5374756 -0.3890686 -0.6237793 -1.071106q-0.05102539 -0.40304565 0.078308105 -0.7500305q0.1428833 -0.36444092 0.41192627 -0.60305786q0.2845459 -0.24053955 0.6428833 -0.39587402q0.2557373 -0.095184326 0.8040161 -0.24291992q1.1004639 -0.26452637 1.6195068 -0.51882935q-0.02545166 -0.20150757 -0.03137207 -0.24801636q-0.0725708 -0.57354736 -0.36553955 -0.7729187q-0.395813 -0.26513672 -1.0934448 -0.17733765q-0.651062 0.081970215 -0.9472046 0.35546875q-0.28063965 0.2715454 -0.3475952 0.8626709l-0.9303589 -0.008911133q0.051452637 -0.58914185 0.2854004 -0.98080444q0.24743652 -0.40911865 0.75097656 -0.6614685q0.5171509 -0.2698059 1.2147217 -0.3576355q0.71313477 -0.0897522 1.1688232 0.026123047q0.45562744 0.115875244 0.6885376 0.3385315q0.24841309 0.22070312 0.375 0.5984802q0.075927734 0.22668457 0.15441895 0.8467407l0.15692139 1.2401123q0.1628418 1.2865906 0.2699585 1.635315q0.105163574 0.33325195 0.3149414 0.62179565l-0.96118164 0.1210022q-0.19232178 -0.2750244 -0.27233887 -0.6586609zm-0.33843994 -2.0519104q-0.48608398 0.26589966 -1.4760742 0.5322571q-0.5638428 0.14968872 -0.79815674 0.2894287q-0.21881104 0.13778687 -0.31732178 0.35488892q-0.10046387 0.20162964 -0.0690918 0.4496765q0.04711914 0.37200928 0.35754395 0.5849304q0.3104248 0.21289062 0.85302734 0.14459229q0.5270996 -0.066345215 0.91625977 -0.3515625q0.38909912 -0.28518677 0.5376587 -0.72909546q0.11584473 -0.32955933 0.037353516 -0.94958496l-0.04119873 -0.325531zm4.6486206 1.3518982l0.22802734 0.80596924q-0.37579346 0.14178467 -0.68585205 0.18081665q-0.49609375 0.062438965 -0.79473877 -0.057434082q-0.30065918 -0.1354065 -0.4580078 -0.3833313q-0.14190674 -0.24984741 -0.24780273 -1.0869141l-0.3982544 -3.1467896l-0.6821289 0.08584595l-0.092163086 -0.72854614l0.6821289 -0.085876465l-0.17071533 -1.3486023l0.8595581 -0.6751404l0.24127197 1.9066772l0.9301758 -0.11706543l0.09222412 0.72854614l-0.9301758 0.11709595l0.4060669 3.2087708q0.049072266 0.38754272 0.11126709 0.5057068q0.0602417 0.102630615 0.17852783 0.1665039q0.11639404 0.048339844 0.33343506 0.021026611q0.1550293 -0.01953125 0.39715576 -0.09725952zm4.5405884 -1.5164185l0.9768677 0.0030517578q-0.12664795 0.866333 -0.6878662 1.4094238q-0.54577637 0.5411377 -1.506958 0.6621399q-1.1936646 0.15023804 -2.0009766 -0.50405884q-0.79174805 -0.65625 -0.9604492 -1.9893799q-0.17462158 -1.3796387 0.4423828 -2.2289429q0.61505127 -0.86483765 1.7467041 -1.0072937q1.100708 -0.13851929 1.8944702 0.53323364q0.79174805 0.65625 0.9644165 2.0203552q0.009765625 0.07751465 0.029418945 0.23254395l-4.0927124 0.5151367q0.16223145 0.9087219 0.6881714 1.330719q0.5258789 0.4220276 1.2080078 0.33615112q0.51153564 -0.06439209 0.83477783 -0.37280273q0.32122803 -0.32388306 0.46374512 -0.9402771zm-3.2443237 -1.1192017l3.069519 -0.38638306q-0.14831543 -0.6742554 -0.48797607 -0.99368286q-0.5162964 -0.47045898 -1.2139282 -0.3826599q-0.6355591 0.07998657 -1.0302124 0.5706177q-0.38110352 0.47317505 -0.33740234 1.1921082z" fill-rule="nonzero"/><path fill="#eeeeee" d="m241.0 297.13657l98.04724 0l0 27.118103l-98.04724 0z" fill-rule="evenodd"/><path stroke="#595959" stroke-width="1.0" stroke-linejoin="round" stroke-linecap="butt" d="m241.0 297.13657l98.04724 0l0 27.118103l-98.04724 0z" fill-rule="evenodd"/><path fill="#000000" d="m260.8317 315.49564l0 -9.546875l4.234375 0q1.265625 0 1.921875 0.265625q0.671875 0.25 1.0625 0.90625q0.40625 0.65625 0.40625 1.4375q0 1.015625 -0.65625 1.71875q-0.65625 0.6875 -2.03125 0.875q0.5 0.25 0.765625 0.484375q0.546875 0.5 1.046875 1.265625l1.65625 2.59375l-1.578125 0l-1.265625 -1.984375q-0.5625 -0.859375 -0.921875 -1.3125q-0.34375 -0.453125 -0.640625 -0.640625q-0.28125 -0.1875 -0.5625 -0.25q-0.21875 -0.046875 -0.703125 -0.046875l-1.46875 0l0 4.234375l-1.265625 0zm1.265625 -5.328125l2.71875 0q0.859375 0 1.34375 -0.171875q0.484375 -0.1875 0.734375 -0.578125q0.265625 -0.390625 0.265625 -0.859375q0 -0.671875 -0.5 -1.109375q-0.484375 -0.4375 -1.546875 -0.4375l-3.015625 0l0 3.15625zm7.9532776 0.6875q0 -2.375 1.28125 -3.71875q1.28125 -1.34375 3.296875 -1.34375q1.3125 0 2.375 0.625q1.0625 0.625 1.609375 1.765625q0.5625 1.125 0.5625 2.5625q0 1.4375 -0.59375 2.59375q-0.578125 1.140625 -1.65625 1.734375q-1.0625 0.578125 -2.3125 0.578125q-1.34375 0 -2.40625 -0.640625q-1.0625 -0.65625 -1.609375 -1.78125q-0.546875 -1.125 -0.546875 -2.375zm1.3125 0.015625q0 1.71875 0.921875 2.71875q0.921875 0.984375 2.328125 0.984375q1.421875 0 2.34375 -1.0q0.921875 -1.0 0.921875 -2.84375q0 -1.15625 -0.40625 -2.03125q-0.390625 -0.875 -1.15625 -1.34375q-0.75 -0.484375 -1.6875 -0.484375q-1.34375 0 -2.3125 0.921875q-0.953125 0.921875 -0.953125 3.078125zm9.054535 -0.015625q0 -2.375 1.28125 -3.71875q1.28125 -1.34375 3.296875 -1.34375q1.3125 0 2.375 0.625q1.0625 0.625 1.609375 1.765625q0.5625 1.125 0.5625 2.5625q0 1.4375 -0.59375 2.59375q-0.578125 1.140625 -1.65625 1.734375q-1.0625 0.578125 -2.3125 0.578125q-1.34375 0 -2.40625 -0.640625q-1.0625 -0.65625 -1.609375 -1.78125q-0.546875 -1.125 -0.546875 -2.375zm1.3125 0.015625q0 1.71875 0.921875 2.71875q0.921875 0.984375 2.328125 0.984375q1.421875 0 2.34375 -1.0q0.921875 -1.0 0.921875 -2.84375q0 -1.15625 -0.40625 -2.03125q-0.390625 -0.875 -1.15625 -1.34375q-0.75 -0.484375 -1.6875 -0.484375q-1.34375 0 -2.3125 0.921875q-0.953125 0.921875 -0.953125 3.078125zm11.867065 4.625l0 -8.421875l-3.140625 0l0 -1.125l7.5625 0l0 1.125l-3.15625 0l0 8.421875l-1.265625 0zm15.978455 -3.34375l1.265625 0.3125q-0.390625 1.5625 -1.421875 2.375q-1.03125 0.8125 -2.53125 0.8125q-1.53125 0 -2.5 -0.625q-0.96875 -0.625 -1.484375 -1.8125q-0.5 -1.1875 -0.5 -2.5625q0 -1.484375 0.5625 -2.59375q0.578125 -1.109375 1.625 -1.6875q1.0625 -0.578125 2.328125 -0.578125q1.421875 0 2.390625 0.734375q0.984375 0.71875 1.375 2.046875l-1.25 0.296875q-0.328125 -1.046875 -0.96875 -1.515625q-0.625 -0.484375 -1.578125 -0.484375q-1.09375 0 -1.84375 0.53125q-0.734375 0.53125 -1.03125 1.421875q-0.296875 0.875 -0.296875 1.828125q0 1.21875 0.34375 2.125q0.359375 0.90625 1.109375 1.359375q0.75 0.4375 1.625 0.4375q1.0625 0 1.796875 -0.609375q0.734375 -0.609375 0.984375 -1.8125zm1.7814026 3.34375l3.65625 -9.546875l1.359375 0l3.90625 9.546875l-1.4375 0l-1.109375 -2.890625l-3.984375 0l-1.046875 2.890625l-1.34375 0zm2.75 -3.921875l3.234375 0l-1.0 -2.640625q-0.453125 -1.203125 -0.671875 -1.96875q-0.1875 0.90625 -0.515625 1.8125l-1.046875 2.796875z" fill-rule="nonzero"/><path fill="#000000" fill-opacity="0.0" d="m905.8714 12.010499l54.141724 0l0 53.480316l-54.141724 0z" fill-rule="evenodd"/><path fill="#000000" d="m923.8089 44.0505l-2.109375 0l0 -13.4375q-0.75 0.71875 -2.0 1.453125q-1.234375 0.71875 -2.21875 1.078125l0 -2.03125q1.78125 -0.828125 3.09375 -2.015625q1.328125 -1.1875 1.875 -2.296875l1.359375 0l0 17.25zm16.347656 -12.96875l-2.09375 0.15625q-0.28125 -1.234375 -0.796875 -1.796875q-0.859375 -0.90625 -2.109375 -0.90625q-1.0 0 -1.765625 0.5625q-1.0 0.71875 -1.578125 2.125q-0.5625 1.390625 -0.59375 3.96875q0.765625 -1.15625 1.859375 -1.71875q1.109375 -0.5625 2.3125 -0.5625q2.109375 0 3.59375 1.546875q1.484375 1.546875 1.484375 4.015625q0 1.609375 -0.703125 3.0q-0.6875 1.390625 -1.90625 2.140625q-1.21875 0.734375 -2.765625 0.734375q-2.640625 0 -4.3125 -1.9375q-1.65625 -1.953125 -1.65625 -6.40625q0 -4.96875 1.84375 -7.234375q1.59375 -1.96875 4.3125 -1.96875q2.03125 0 3.328125 1.140625q1.296875 1.125 1.546875 3.140625zm-8.609375 7.40625q0 1.078125 0.453125 2.078125q0.46875 1.0 1.296875 1.53125q0.84375 0.515625 1.75 0.515625q1.34375 0 2.296875 -1.078125q0.96875 -1.078125 0.96875 -2.9375q0 -1.78125 -0.953125 -2.796875q-0.953125 -1.03125 -2.390625 -1.03125q-1.421875 0 -2.421875 1.03125q-1.0 1.015625 -1.0 2.6875z" fill-rule="nonzero"/></g></svg>