<?xml version="1.0" encoding="iso-8859-1"?>
<!-- Generator: Adobe Illustrator 19.0.0, SVG Export Plug-In . SVG Version: 6.00 Build 0)  -->
<svg version="1.1" id="Layer_1" xmlns="http://www.w3.org/2000/svg" xmlns:xlink="http://www.w3.org/1999/xlink" x="0px" y="0px"
	 viewBox="0 0 380 380" style="enable-background:new 0 0 380 380;" xml:space="preserve">
<g id="XMLID_1298_">
	<g id="XMLID_1299_">
		<path id="XMLID_1300_" style="fill:#00969B;" d="M352.833,45.001H210.66c-0.434,0-0.862,0.101-1.25,0.295l-18.16,9.08
			c-0.787,0.394-1.713,0.394-2.5,0l-18.16-9.08c-0.388-0.194-0.816-0.295-1.25-0.295H27.167C17.686,45.001,10,52.687,10,62.168
			v255.667C10,327.314,17.686,335,27.167,335h325.667c9.481,0,17.167-7.686,17.167-17.167V62.168
			C370,52.687,362.314,45.001,352.833,45.001z M330,290.796c0,2.323-1.883,4.205-4.205,4.205H57c-3.866,0-7-3.134-7-7v-196
			c0-3.866,3.134-7,7-7h102.897c0.434,0,0.862,0.101,1.25,0.295l27.603,13.802c0.787,0.393,1.713,0.393,2.5,0l0,0l27.603-13.802
			c0.388-0.194,0.816-0.295,1.25-0.295h105.692c2.322,0,4.205,1.883,4.205,4.205L330,290.796L330,290.796z"/>
		<path id="XMLID_1303_" style="fill:#1F2C47;" d="M352.833,345H27.167C12.187,345,0,332.813,0,317.835V62.167
			c0-14.979,12.187-27.166,27.167-27.166H169.34c1.972,0,3.947,0.466,5.713,1.346L190,43.82l14.938-7.469
			c1.775-0.885,3.75-1.351,5.722-1.351h142.173C367.813,35.001,380,47.188,380,62.167v255.668C380,332.813,367.813,345,352.833,345z
			 M27.167,55.001c-3.952,0-7.167,3.215-7.167,7.166v255.668c0,3.951,3.215,7.166,7.167,7.166h325.667
			c3.952,0,7.167-3.215,7.167-7.166V62.167c0-3.951-3.215-7.166-7.167-7.166H212.361l-16.639,8.319
			c-3.535,1.768-7.909,1.768-11.444,0l-16.639-8.319H27.167z M325.795,305H57c-9.374,0-17-7.626-17-17v-196c0-9.374,7.626-17,17-17
			h102.897c1.97,0,3.944,0.465,5.709,1.344L190,88.542l24.38-12.19c1.778-0.886,3.752-1.351,5.722-1.351h105.692
			c7.833,0,14.206,6.372,14.206,14.205v201.59C340,298.628,333.627,305,325.795,305z M60,285h260v-190h-98.197l-26.081,13.041
			c-3.536,1.768-7.909,1.768-11.444,0l-26.081-13.041H60V285z"/>
	</g>
	<g id="XMLID_1308_">
		<path id="XMLID_37_" style="fill:#00969B;" d="M81.852,85.668H130v82.779c0,3.437-3.495,5.77-6.669,4.451l-15.556-6.462
			c-1.184-0.492-2.514-0.492-3.698,0l-15.556,6.462c-3.174,1.319-6.669-1.014-6.669-4.451
			C81.852,168.447,81.852,85.668,81.852,85.668z"/>
		<path id="XMLID_1309_" style="fill:#1F2C47;" d="M125.184,183.271c-1.955,0-3.869-0.384-5.688-1.139l-13.57-5.637l-13.569,5.637
			c-1.819,0.755-3.733,1.139-5.688,1.139c-8.17,0-14.816-6.65-14.816-14.825V75.668H140v92.778
			C140,176.62,133.354,183.271,125.184,183.271z M91.852,95.668v65.018l8.389-3.485c3.625-1.503,7.746-1.504,11.367-0.001
			l8.392,3.486V95.668H91.852z"/>
	</g>
	<g id="XMLID_1312_">
		<rect id="XMLID_1313_" x="178.75" y="99.098" style="fill:#1F2C47;" width="20" height="195.903"/>
	</g>
</g>
<g>
</g>
<g>
</g>
<g>
</g>
<g>
</g>
<g>
</g>
<g>
</g>
<g>
</g>
<g>
</g>
<g>
</g>
<g>
</g>
<g>
</g>
<g>
</g>
<g>
</g>
<g>
</g>
<g>
</g>
</svg>
