<svg version="1.1" viewBox="0.0 0.0 960.0 540.0" fill="none" stroke="none" stroke-linecap="square" stroke-miterlimit="10" xmlns:xlink="http://www.w3.org/1999/xlink" xmlns="http://www.w3.org/2000/svg"><clipPath id="g61d07fecc8_0_429.0"><path d="m0 0l960.0 0l0 540.0l-960.0 0l0 -540.0z" clip-rule="nonzero"/></clipPath><g clip-path="url(#g61d07fecc8_0_429.0)"><path fill="#ffffff" d="m0 0l960.0 0l0 540.0l-960.0 0z" fill-rule="evenodd"/><path fill="#000000" fill-opacity="0.0" d="m10.409449 12.010499l336.7559 0l0 515.6221l-336.7559 0z" fill-rule="evenodd"/><path stroke="#595959" stroke-width="1.0" stroke-linejoin="round" stroke-linecap="butt" stroke-dasharray="4.0,3.0,1.0,3.0" d="m10.409449 12.010499l336.7559 0l0 515.6221l-336.7559 0z" fill-rule="evenodd"/><path fill="#eeeeee" d="m241.0 151.79002l98.04724 0l0 91.086624l-98.04724 0z" fill-rule="evenodd"/><path stroke="#595959" stroke-width="1.0" stroke-linejoin="round" stroke-linecap="butt" d="m241.0 151.79002l98.04724 0l0 91.086624l-98.04724 0z" fill-rule="evenodd"/><path fill="#000000" d="m269.47617 204.25333l0 -13.359375l1.765625 0l0 13.359375l-1.765625 0zm4.355194 -6.5q0 -3.328125 1.78125 -5.203125q1.78125 -1.890625 4.609375 -1.890625q1.84375 0 3.328125 0.890625q1.484375 0.875 2.265625 2.46875q0.78125 1.578125 0.78125 3.578125q0 2.03125 -0.828125 3.640625q-0.8125 1.59375 -2.3125 2.421875q-1.5 0.828125 -3.25 0.828125q-1.875 0 -3.359375 -0.90625q-1.484375 -0.921875 -2.25 -2.5q-0.765625 -1.578125 -0.765625 -3.328125zm1.8125 0.015625q0 2.421875 1.296875 3.8125q1.296875 1.390625 3.265625 1.390625q2.0 0 3.28125 -1.40625q1.28125 -1.40625 1.28125 -3.984375q0 -1.625 -0.546875 -2.84375q-0.546875 -1.21875 -1.609375 -1.875q-1.0625 -0.671875 -2.375 -0.671875q-1.890625 0 -3.25 1.296875q-1.34375 1.28125 -1.34375 4.28125zm16.636414 6.484375l0 -11.78125l-4.40625 0l0 -1.578125l10.578125 0l0 1.578125l-4.40625 0l0 11.78125l-1.765625 0zm8.052246 0l0 -13.359375l1.765625 0l0 5.484375l6.9375 0l0 -5.484375l1.765625 0l0 13.359375l-1.765625 0l0 -6.296875l-6.9375 0l0 6.296875l-1.765625 0z" fill-rule="nonzero"/><path fill="#000000" fill-opacity="0.0" d="m339.04724 168.2126l95.77954 -0.6299286" fill-rule="evenodd"/><path stroke="#595959" stroke-width="1.0" stroke-linejoin="round" stroke-linecap="butt" d="m339.04724 168.2126l91.989624 -0.6049957" fill-rule="evenodd"/><path stroke="#595959" stroke-width="1.0" stroke-linecap="butt" d="m434.32678 167.58597c0.0059814453 0.90849304 -0.725647 1.6498108 -1.6341553 1.655777c-0.9084778 0.0059814453 -1.6498108 -0.725647 -1.6557617 -1.63414c-0.0059814453 -0.90849304 0.725647 -1.6498108 1.6341248 -1.6557922c0.9085083 -0.0059661865 1.6498108 0.72566223 1.6557922 1.6341553z" fill-rule="nonzero"/><path fill="#000000" fill-opacity="0.0" d="m355.34106 142.40201l74.456696 0l0 25.574799l-74.456696 0z" fill-rule="evenodd"/><path fill="#990000" d="m365.90356 161.642l-0.859375 0l0 -7.625l0.9375 0l0 2.71875q0.59375 -0.75 1.5 -0.75q0.515625 0 0.96875 0.21875q0.453125 0.203125 0.75 0.578125q0.296875 0.359375 0.453125 0.890625q0.171875 0.53125 0.171875 1.125q0 1.421875 -0.703125 2.203125q-0.703125 0.765625 -1.6875 0.765625q-0.96875 0 -1.53125 -0.8125l0 0.6875zm0 -2.796875q0 0.984375 0.265625 1.421875q0.4375 0.734375 1.1875 0.734375q0.625 0 1.0625 -0.53125q0.453125 -0.546875 0.453125 -1.59375q0 -1.078125 -0.4375 -1.59375q-0.421875 -0.515625 -1.03125 -0.515625q-0.609375 0 -1.0625 0.53125q-0.4375 0.53125 -0.4375 1.546875zm5.0671387 -3.75l0 -1.078125l0.9375 0l0 1.078125l-0.9375 0zm0 6.546875l0 -5.53125l0.9375 0l0 5.53125l-0.9375 0zm2.3674622 0l0 -5.53125l0.84375 0l0 0.796875q0.609375 -0.921875 1.75 -0.921875q0.5 0 0.921875 0.1875q0.421875 0.171875 0.625 0.46875q0.21875 0.296875 0.296875 0.6875q0.046875 0.265625 0.046875 0.921875l0 3.390625l-0.9375 0l0 -3.359375q0 -0.578125 -0.109375 -0.859375q-0.109375 -0.28125 -0.390625 -0.453125q-0.265625 -0.171875 -0.640625 -0.171875q-0.59375 0 -1.03125 0.390625q-0.4375 0.375 -0.4375 1.4375l0 3.015625l-0.9375 0zm9.504639 0l0 -0.703125q-0.515625 0.828125 -1.546875 0.828125q-0.65625 0 -1.21875 -0.359375q-0.546875 -0.375 -0.859375 -1.015625q-0.296875 -0.65625 -0.296875 -1.5q0 -0.828125 0.28125 -1.5q0.28125 -0.6875 0.828125 -1.046875q0.546875 -0.359375 1.234375 -0.359375q0.5 0 0.890625 0.21875q0.390625 0.203125 0.625 0.546875l0 -2.734375l0.9375 0l0 7.625l-0.875 0zm-2.953125 -2.75q0 1.046875 0.4375 1.578125q0.453125 0.53125 1.0625 0.53125q0.609375 0 1.03125 -0.5q0.4375 -0.515625 0.4375 -1.53125q0 -1.140625 -0.4375 -1.671875q-0.4375 -0.53125 -1.078125 -0.53125q-0.609375 0 -1.03125 0.515625q-0.421875 0.5 -0.421875 1.609375z" fill-rule="nonzero"/><path fill="#000000" fill-opacity="0.0" d="m339.04724 192.2126l95.77954 -0.6299286" fill-rule="evenodd"/><path stroke="#595959" stroke-width="1.0" stroke-linejoin="round" stroke-linecap="butt" d="m339.04724 192.2126l91.989624 -0.6049957" fill-rule="evenodd"/><path stroke="#595959" stroke-width="1.0" stroke-linecap="butt" d="m434.32678 191.58597c0.0059814453 0.90849304 -0.725647 1.6498108 -1.6341553 1.655777c-0.9084778 0.0059814453 -1.6498108 -0.725647 -1.6557617 -1.63414c-0.0059814453 -0.90849304 0.725647 -1.6498108 1.6341248 -1.6557922c0.9085083 -0.0059661865 1.6498108 0.72566223 1.6557922 1.6341553z" fill-rule="nonzero"/><path fill="#000000" fill-opacity="0.0" d="m355.34106 166.40201l74.456696 0l0 25.574799l-74.456696 0z" fill-rule="evenodd"/><path fill="#000000" d="m368.65356 183.61075l0.921875 0.125q-0.15625 0.953125 -0.78125 1.5q-0.625 0.53125 -1.53125 0.53125q-1.125 0 -1.8125 -0.734375q-0.6875 -0.75 -0.6875 -2.125q0 -0.90625 0.296875 -1.578125q0.296875 -0.671875 0.890625 -1.0q0.609375 -0.34375 1.328125 -0.34375q0.890625 0 1.46875 0.46875q0.578125 0.453125 0.734375 1.28125l-0.90625 0.140625q-0.140625 -0.546875 -0.46875 -0.828125q-0.328125 -0.28125 -0.796875 -0.28125q-0.703125 0 -1.15625 0.515625q-0.4375 0.5 -0.4375 1.59375q0 1.109375 0.421875 1.625q0.4375 0.5 1.125 0.5q0.546875 0 0.90625 -0.34375q0.375 -0.34375 0.484375 -1.046875zm1.375 -0.734375q0 -1.53125 0.84375 -2.265625q0.71875 -0.625 1.734375 -0.625q1.140625 0 1.859375 0.75q0.734375 0.75 0.734375 2.0625q0 1.0625 -0.328125 1.6875q-0.3125 0.609375 -0.921875 0.953125q-0.609375 0.328125 -1.34375 0.328125q-1.15625 0 -1.875 -0.734375q-0.703125 -0.75 -0.703125 -2.15625zm0.953125 0q0 1.0625 0.46875 1.59375q0.46875 0.53125 1.15625 0.53125q0.703125 0 1.15625 -0.53125q0.46875 -0.53125 0.46875 -1.625q0 -1.015625 -0.46875 -1.546875q-0.453125 -0.53125 -1.15625 -0.53125q-0.6875 0 -1.15625 0.53125q-0.46875 0.515625 -0.46875 1.578125zm5.3171387 2.765625l0 -5.53125l0.84375 0l0 0.796875q0.609375 -0.921875 1.75 -0.921875q0.5 0 0.921875 0.1875q0.421875 0.171875 0.625 0.46875q0.21875 0.296875 0.296875 0.6875q0.046875 0.265625 0.046875 0.921875l0 3.390625l-0.9375 0l0 -3.359375q0 -0.578125 -0.109375 -0.859375q-0.109375 -0.28125 -0.390625 -0.453125q-0.265625 -0.171875 -0.640625 -0.171875q-0.59375 0 -1.03125 0.390625q-0.4375 0.375 -0.4375 1.4375l0 3.015625l-0.9375 0zm5.926483 0l0 -5.53125l0.84375 0l0 0.796875q0.609375 -0.921875 1.75 -0.921875q0.5 0 0.921875 0.1875q0.421875 0.171875 0.625 0.46875q0.21875 0.296875 0.296875 0.6875q0.046875 0.265625 0.046875 0.921875l0 3.390625l-0.9375 0l0 -3.359375q0 -0.578125 -0.109375 -0.859375q-0.109375 -0.28125 -0.390625 -0.453125q-0.265625 -0.171875 -0.640625 -0.171875q-0.59375 0 -1.03125 0.390625q-0.4375 0.375 -0.4375 1.4375l0 3.015625l-0.9375 0zm9.707764 -1.78125l0.96875 0.125q-0.234375 0.84375 -0.859375 1.3125q-0.609375 0.46875 -1.578125 0.46875q-1.203125 0 -1.921875 -0.75q-0.703125 -0.75 -0.703125 -2.09375q0 -1.390625 0.71875 -2.15625q0.71875 -0.78125 1.859375 -0.78125q1.109375 0 1.8125 0.765625q0.703125 0.75 0.703125 2.125q0 0.078125 0 0.234375l-4.125 0q0.046875 0.921875 0.515625 1.40625q0.46875 0.484375 1.15625 0.484375q0.515625 0 0.875 -0.265625q0.359375 -0.28125 0.578125 -0.875zm-3.078125 -1.515625l3.09375 0q-0.0625 -0.6875 -0.359375 -1.046875q-0.453125 -0.53125 -1.15625 -0.53125q-0.640625 0 -1.09375 0.4375q-0.4375 0.421875 -0.484375 1.140625zm8.832733 1.265625l0.921875 0.125q-0.15625 0.953125 -0.78125 1.5q-0.625 0.53125 -1.53125 0.53125q-1.125 0 -1.8125 -0.734375q-0.6875 -0.75 -0.6875 -2.125q0 -0.90625 0.296875 -1.578125q0.296875 -0.671875 0.890625 -1.0q0.609375 -0.34375 1.328125 -0.34375q0.890625 0 1.46875 0.46875q0.578125 0.453125 0.734375 1.28125l-0.90625 0.140625q-0.140625 -0.546875 -0.46875 -0.828125q-0.328125 -0.28125 -0.796875 -0.28125q-0.703125 0 -1.15625 0.515625q-0.4375 0.5 -0.4375 1.59375q0 1.109375 0.421875 1.625q0.4375 0.5 1.125 0.5q0.546875 0 0.90625 -0.34375q0.375 -0.34375 0.484375 -1.046875zm3.765625 1.1875l0.125 0.828125q-0.390625 0.09375 -0.703125 0.09375q-0.5 0 -0.78125 -0.15625q-0.28125 -0.171875 -0.40625 -0.4375q-0.109375 -0.265625 -0.109375 -1.109375l0 -3.171875l-0.6875 0l0 -0.734375l0.6875 0l0 -1.359375l0.9375 -0.5625l0 1.921875l0.9375 0l0 0.734375l-0.9375 0l0 3.234375q0 0.390625 0.046875 0.515625q0.046875 0.109375 0.15625 0.1875q0.109375 0.0625 0.328125 0.0625q0.15625 0 0.40625 -0.046875z" fill-rule="nonzero"/><path fill="#eeeeee" d="m241.0 242.88715l98.04724 0l0 27.118103l-98.04724 0z" fill-rule="evenodd"/><path stroke="#595959" stroke-width="1.0" stroke-linejoin="round" stroke-linecap="butt" d="m241.0 242.88715l98.04724 0l0 27.118103l-98.04724 0z" fill-rule="evenodd"/><path fill="#990000" d="m261.12128 261.2462l0 -9.54686l3.59375 0q1.09375 0 1.75 0.296875q0.65625 0.28125 1.03125 0.890625q0.375 0.609375 0.375 1.265625q0 0.609375 -0.34375 1.15625q-0.328125 0.53125 -0.984375 0.85935974q0.859375 0.25 1.328125 0.875q0.46875 0.609375 0.46875 1.4375q0 0.671875 -0.296875 1.25q-0.28125 0.578125 -0.703125 0.890625q-0.40625 0.3125 -1.03125 0.46875q-0.625 0.15625 -1.546875 0.15625l-3.640625 0zm1.265625 -5.5312347l2.0625 0q0.84375 0 1.203125 -0.109375q0.484375 -0.140625 0.71875 -0.46875q0.25 -0.34375 0.25 -0.84375q0 -0.46875 -0.234375 -0.828125q-0.21875 -0.359375 -0.640625 -0.5q-0.421875 -0.140625 -1.453125 -0.140625l-1.90625 0l0 2.890625zm0 4.4062347l2.375 0q0.609375 0 0.859375 -0.046875q0.4375 -0.078125 0.734375 -0.25q0.296875 -0.1875 0.484375 -0.53125q0.1875 -0.359375 0.1875 -0.8125q0 -0.53125 -0.28125 -0.921875q-0.265625 -0.40625 -0.75 -0.5625q-0.484375 -0.15625 -1.40625 -0.15625l-2.203125 0l0 3.28125zm7.29599 -3.515625q0 -2.3749847 1.28125 -3.7187347q1.28125 -1.34375 3.296875 -1.34375q1.3125 0 2.375 0.625q1.0625 0.625 1.609375 1.765625q0.5625 1.125 0.5625 2.5624847q0 1.4375 -0.59375 2.59375q-0.578125 1.140625 -1.65625 1.734375q-1.0625 0.578125 -2.3125 0.578125q-1.34375 0 -2.40625 -0.640625q-1.0625 -0.65625 -1.609375 -1.78125q-0.546875 -1.125 -0.546875 -2.375zm1.3125 0.015625q0 1.71875 0.921875 2.71875q0.921875 0.984375 2.328125 0.984375q1.421875 0 2.34375 -1.0q0.921875 -1.0 0.921875 -2.84375q0 -1.1562347 -0.40625 -2.0312347q-0.390625 -0.875 -1.15625 -1.34375q-0.75 -0.484375 -1.6875 -0.484375q-1.34375 0 -2.3125 0.921875q-0.953125 0.921875 -0.953125 3.0781097zm9.054535 -0.015625q0 -2.3749847 1.28125 -3.7187347q1.28125 -1.34375 3.296875 -1.34375q1.3125 0 2.375 0.625q1.0625 0.625 1.609375 1.765625q0.5625 1.125 0.5625 2.5624847q0 1.4375 -0.59375 2.59375q-0.578125 1.140625 -1.65625 1.734375q-1.0625 0.578125 -2.3125 0.578125q-1.34375 0 -2.40625 -0.640625q-1.0625 -0.65625 -1.609375 -1.78125q-0.546875 -1.125 -0.546875 -2.375zm1.3125 0.015625q0 1.71875 0.921875 2.71875q0.921875 0.984375 2.328125 0.984375q1.421875 0 2.34375 -1.0q0.921875 -1.0 0.921875 -2.84375q0 -1.1562347 -0.40625 -2.0312347q-0.390625 -0.875 -1.15625 -1.34375q-0.75 -0.484375 -1.6875 -0.484375q-1.34375 0 -2.3125 0.921875q-0.953125 0.921875 -0.953125 3.0781097zm11.867065 4.625l0 -8.42186l-3.140625 0l0 -1.125l7.5625 0l0 1.125l-3.15625 0l0 8.42186l-1.265625 0zm15.978455 -3.34375l1.265625 0.3125q-0.390625 1.5625 -1.421875 2.375q-1.03125 0.8125 -2.53125 0.8125q-1.53125 0 -2.5 -0.625q-0.96875 -0.625 -1.484375 -1.8125q-0.5 -1.1875 -0.5 -2.5625q0 -1.4843597 0.5625 -2.5937347q0.578125 -1.109375 1.625 -1.6875q1.0625 -0.578125 2.328125 -0.578125q1.421875 0 2.390625 0.734375q0.984375 0.71875 1.375 2.046875l-1.25 0.296875q-0.328125 -1.046875 -0.96875 -1.515625q-0.625 -0.484375 -1.578125 -0.484375q-1.09375 0 -1.84375 0.53125q-0.734375 0.53125 -1.03125 1.421875q-0.296875 0.875 -0.296875 1.8281097q0 1.21875 0.34375 2.125q0.359375 0.90625 1.109375 1.359375q0.75 0.4375 1.625 0.4375q1.0625 0 1.796875 -0.609375q0.734375 -0.609375 0.984375 -1.8125zm1.7814026 3.34375l3.65625 -9.54686l1.359375 0l3.90625 9.54686l-1.4375 0l-1.109375 -2.890625l-3.984375 0l-1.046875 2.890625l-1.34375 0zm2.75 -3.921875l3.234375 0l-1.0 -2.6406097q-0.453125 -1.203125 -0.671875 -1.96875q-0.1875 0.90625 -0.515625 1.8125l-1.046875 2.7968597z" fill-rule="nonzero"/><path fill="#eeeeee" d="m241.0 270.08313l98.04724 0l0 27.118103l-98.04724 0z" fill-rule="evenodd"/><path stroke="#595959" stroke-width="1.0" stroke-linejoin="round" stroke-linecap="butt" d="m241.0 270.08313l98.04724 0l0 27.118103l-98.04724 0z" fill-rule="evenodd"/><path fill="#000000" d="m283.27795 288.4422l0 -9.546875l3.59375 0q0.953125 0 1.453125 0.09375q0.703125 0.125 1.171875 0.453125q0.484375 0.328125 0.765625 0.921875q0.296875 0.59375 0.296875 1.296875q0 1.21875 -0.78125 2.0625q-0.765625 0.84375 -2.796875 0.84375l-2.4375 0l0 3.875l-1.265625 0zm1.265625 -5.0l2.453125 0q1.234375 0 1.75 -0.453125q0.515625 -0.46875 0.515625 -1.28125q0 -0.609375 -0.3125 -1.03125q-0.296875 -0.421875 -0.796875 -0.5625q-0.3125 -0.09375 -1.171875 -0.09375l-2.4375 0l0 3.421875zm7.4835205 5.0l0 -9.546875l1.171875 0l0 5.453125l2.765625 -2.8125l1.515625 0l-2.640625 2.5625l2.90625 4.34375l-1.4375 0l-2.28125 -3.53125l-0.828125 0.796875l0 2.734375l-1.171875 0z" fill-rule="nonzero"/><path fill="#eeeeee" d="m691.37006 190.80876l0 0c0 -9.964523 8.077881 -18.042358 18.042358 -18.042358l115.25391 0c4.785095 0 9.374268 1.9008942 12.757874 5.284485c3.383606 3.3835907 5.284485 7.972748 5.284485 12.757874l0 72.16725c0 9.964508 -8.077881 18.042358 -18.042358 18.042358l-115.25391 0c-9.964478 0 -18.042358 -8.07785 -18.042358 -18.042358z" fill-rule="evenodd"/><path stroke="#595959" stroke-width="1.0" stroke-linejoin="round" stroke-linecap="butt" d="m691.37006 190.80876l0 0c0 -9.964523 8.077881 -18.042358 18.042358 -18.042358l115.25391 0c4.785095 0 9.374268 1.9008942 12.757874 5.284485c3.383606 3.3835907 5.284485 7.972748 5.284485 12.757874l0 72.16725c0 9.964508 -8.077881 18.042358 -18.042358 18.042358l-115.25391 0c-9.964478 0 -18.042358 -8.07785 -18.042358 -18.042358z" fill-rule="evenodd"/><path fill="#000000" d="m711.1545 196.11646l0 -1.125l4.03125 -0.015625l0 3.546875q-0.921875 0.75 -1.921875 1.125q-0.984375 0.359375 -2.03125 0.359375q-1.40625 0 -2.5625 -0.59375q-1.140625 -0.609375 -1.734375 -1.734375q-0.578125 -1.140625 -0.578125 -2.546875q0 -1.40625 0.578125 -2.609375q0.59375 -1.203125 1.6875 -1.78125q1.09375 -0.59375 2.515625 -0.59375q1.03125 0 1.859375 0.34375q0.84375 0.328125 1.3125 0.9375q0.484375 0.59375 0.734375 1.546875l-1.140625 0.3125q-0.21875 -0.71875 -0.53125 -1.140625q-0.3125 -0.421875 -0.90625 -0.671875q-0.59375 -0.25 -1.3125 -0.25q-0.875 0 -1.515625 0.265625q-0.625 0.265625 -1.015625 0.703125q-0.375 0.421875 -0.59375 0.9375q-0.359375 0.875 -0.359375 1.921875q0 1.265625 0.4375 2.125q0.4375 0.859375 1.265625 1.28125q0.84375 0.421875 1.796875 0.421875q0.8125 0 1.59375 -0.3125q0.78125 -0.328125 1.1875 -0.6875l0 -1.765625l-2.796875 0zm10.25769 2.875q-0.65625 0.5625 -1.265625 0.796875q-0.59375 0.21875 -1.28125 0.21875q-1.140625 0 -1.75 -0.546875q-0.609375 -0.5625 -0.609375 -1.4375q0 -0.5 0.21875 -0.921875q0.234375 -0.421875 0.609375 -0.671875q0.375 -0.25 0.84375 -0.390625q0.34375 -0.078125 1.046875 -0.171875q1.421875 -0.171875 2.09375 -0.40625q0 -0.234375 0 -0.296875q0 -0.71875 -0.328125 -1.015625q-0.453125 -0.390625 -1.34375 -0.390625q-0.8125 0 -1.21875 0.296875q-0.390625 0.28125 -0.578125 1.015625l-1.140625 -0.15625q0.15625 -0.734375 0.515625 -1.1875q0.359375 -0.453125 1.03125 -0.6875q0.671875 -0.25 1.5625 -0.25q0.890625 0 1.4375 0.203125q0.5625 0.203125 0.8125 0.53125q0.265625 0.3125 0.375 0.796875q0.046875 0.296875 0.046875 1.078125l0 1.5625q0 1.625 0.078125 2.0625q0.078125 0.4375 0.296875 0.828125l-1.21875 0q-0.1875 -0.359375 -0.234375 -0.859375zm-0.09375 -2.609375q-0.640625 0.265625 -1.921875 0.4375q-0.71875 0.109375 -1.015625 0.25q-0.296875 0.125 -0.46875 0.375q-0.15625 0.25 -0.15625 0.546875q0 0.46875 0.34375 0.78125q0.359375 0.3125 1.046875 0.3125q0.671875 0 1.203125 -0.296875q0.53125 -0.296875 0.78125 -0.8125q0.1875 -0.390625 0.1875 -1.171875l0 -0.421875zm5.5531006 2.421875l0.171875 1.03125q-0.5 0.109375 -0.890625 0.109375q-0.640625 0 -1.0 -0.203125q-0.34375 -0.203125 -0.484375 -0.53125q-0.140625 -0.328125 -0.140625 -1.390625l0 -3.96875l-0.859375 0l0 -0.90625l0.859375 0l0 -1.71875l1.171875 -0.703125l0 2.421875l1.171875 0l0 0.90625l-1.171875 0l0 4.046875q0 0.5 0.046875 0.640625q0.0625 0.140625 0.203125 0.234375q0.140625 0.078125 0.40625 0.078125q0.203125 0 0.515625 -0.046875zm5.874878 -1.171875l1.203125 0.140625q-0.28125 1.0625 -1.0625 1.65625q-0.765625 0.578125 -1.96875 0.578125q-1.515625 0 -2.40625 -0.9375q-0.890625 -0.9375 -0.890625 -2.609375q0 -1.75 0.890625 -2.703125q0.90625 -0.96875 2.34375 -0.96875q1.390625 0 2.265625 0.9375q0.875 0.9375 0.875 2.65625q0 0.109375 0 0.3125l-5.15625 0q0.0625 1.140625 0.640625 1.75q0.578125 0.59375 1.4375 0.59375q0.65625 0 1.109375 -0.328125q0.453125 -0.34375 0.71875 -1.078125zm-3.84375 -1.90625l3.859375 0q-0.078125 -0.859375 -0.4375 -1.296875q-0.5625 -0.6875 -1.453125 -0.6875q-0.8125 0 -1.359375 0.546875q-0.546875 0.53125 -0.609375 1.4375zm7.8031006 4.125l-2.125 -6.90625l1.21875 0l1.09375 3.984375l0.421875 1.484375q0.015625 -0.109375 0.359375 -1.421875l1.09375 -4.046875l1.203125 0l1.03125 4.0l0.34375 1.328125l0.40625 -1.34375l1.171875 -3.984375l1.140625 0l-2.15625 6.90625l-1.21875 0l-1.09375 -4.140625l-0.265625 -1.171875l-1.40625 5.3125l-1.21875 0zm12.859497 -0.859375q-0.65625 0.5625 -1.265625 0.796875q-0.59375 0.21875 -1.28125 0.21875q-1.140625 0 -1.75 -0.546875q-0.609375 -0.5625 -0.609375 -1.4375q0 -0.5 0.21875 -0.921875q0.234375 -0.421875 0.609375 -0.671875q0.375 -0.25 0.84375 -0.390625q0.34375 -0.078125 1.046875 -0.171875q1.421875 -0.171875 2.09375 -0.40625q0 -0.234375 0 -0.296875q0 -0.71875 -0.328125 -1.015625q-0.453125 -0.390625 -1.34375 -0.390625q-0.8125 0 -1.21875 0.296875q-0.390625 0.28125 -0.578125 1.015625l-1.140625 -0.15625q0.15625 -0.734375 0.515625 -1.1875q0.359375 -0.453125 1.03125 -0.6875q0.671875 -0.25 1.5625 -0.25q0.890625 0 1.4375 0.203125q0.5625 0.203125 0.8125 0.53125q0.265625 0.3125 0.375 0.796875q0.046875 0.296875 0.046875 1.078125l0 1.5625q0 1.625 0.078125 2.0625q0.078125 0.4375 0.296875 0.828125l-1.21875 0q-0.1875 -0.359375 -0.234375 -0.859375zm-0.09375 -2.609375q-0.640625 0.265625 -1.921875 0.4375q-0.71875 0.109375 -1.015625 0.25q-0.296875 0.125 -0.46875 0.375q-0.15625 0.25 -0.15625 0.546875q0 0.46875 0.34375 0.78125q0.359375 0.3125 1.046875 0.3125q0.671875 0 1.203125 -0.296875q0.53125 -0.296875 0.78125 -0.8125q0.1875 -0.390625 0.1875 -1.171875l0 -0.421875zm2.9437256 6.125l-0.125 -1.09375q0.375 0.109375 0.65625 0.109375q0.390625 0 0.625 -0.140625q0.234375 -0.125 0.390625 -0.359375q0.109375 -0.171875 0.359375 -0.875q0.03125 -0.09375 0.109375 -0.28125l-2.625 -6.921875l1.265625 0l1.4375 4.0q0.28125 0.765625 0.5 1.59375q0.203125 -0.796875 0.46875 -1.578125l1.484375 -4.015625l1.171875 0l-2.625 7.015625q-0.421875 1.140625 -0.65625 1.578125q-0.3125 0.578125 -0.71875 0.84375q-0.40625 0.28125 -0.96875 0.28125q-0.328125 0 -0.75 -0.15625zm14.929565 -3.515625q-0.65625 0.5625 -1.265625 0.796875q-0.59375 0.21875 -1.28125 0.21875q-1.140625 0 -1.75 -0.546875q-0.609375 -0.5625 -0.609375 -1.4375q0 -0.5 0.21875 -0.921875q0.234375 -0.421875 0.609375 -0.671875q0.375 -0.25 0.84375 -0.390625q0.34375 -0.078125 1.046875 -0.171875q1.421875 -0.171875 2.09375 -0.40625q0 -0.234375 0 -0.296875q0 -0.71875 -0.328125 -1.015625q-0.453125 -0.390625 -1.34375 -0.390625q-0.8125 0 -1.21875 0.296875q-0.390625 0.28125 -0.578125 1.015625l-1.140625 -0.15625q0.15625 -0.734375 0.515625 -1.1875q0.359375 -0.453125 1.03125 -0.6875q0.671875 -0.25 1.5625 -0.25q0.890625 0 1.4375 0.203125q0.5625 0.203125 0.8125 0.53125q0.265625 0.3125 0.375 0.796875q0.046875 0.296875 0.046875 1.078125l0 1.5625q0 1.625 0.078125 2.0625q0.078125 0.4375 0.296875 0.828125l-1.21875 0q-0.1875 -0.359375 -0.234375 -0.859375zm-0.09375 -2.609375q-0.640625 0.265625 -1.921875 0.4375q-0.71875 0.109375 -1.015625 0.25q-0.296875 0.125 -0.46875 0.375q-0.15625 0.25 -0.15625 0.546875q0 0.46875 0.34375 0.78125q0.359375 0.3125 1.046875 0.3125q0.671875 0 1.203125 -0.296875q0.53125 -0.296875 0.78125 -0.8125q0.1875 -0.390625 0.1875 -1.171875l0 -0.421875zm2.9906006 6.125l0 -9.5625l1.078125 0l0 0.890625q0.375 -0.53125 0.84375 -0.78125q0.484375 -0.265625 1.15625 -0.265625q0.875 0 1.546875 0.453125q0.6875 0.453125 1.03125 1.28125q0.34375 0.828125 0.34375 1.828125q0 1.046875 -0.375 1.90625q-0.375 0.84375 -1.109375 1.296875q-0.71875 0.453125 -1.53125 0.453125q-0.578125 0 -1.046875 -0.25q-0.46875 -0.25 -0.765625 -0.625l0 3.375l-1.171875 0zm1.0625 -6.078125q0 1.34375 0.53125 1.984375q0.546875 0.625 1.3125 0.625q0.78125 0 1.34375 -0.65625q0.5625 -0.65625 0.5625 -2.046875q0 -1.3125 -0.546875 -1.96875q-0.546875 -0.671875 -1.296875 -0.671875q-0.75 0 -1.328125 0.703125q-0.578125 0.703125 -0.578125 2.03125zm6.3499756 6.078125l0 -9.5625l1.078125 0l0 0.890625q0.375 -0.53125 0.84375 -0.78125q0.484375 -0.265625 1.15625 -0.265625q0.875 0 1.546875 0.453125q0.6875 0.453125 1.03125 1.28125q0.34375 0.828125 0.34375 1.828125q0 1.046875 -0.375 1.90625q-0.375 0.84375 -1.109375 1.296875q-0.71875 0.453125 -1.53125 0.453125q-0.578125 0 -1.046875 -0.25q-0.46875 -0.25 -0.765625 -0.625l0 3.375l-1.171875 0zm1.0625 -6.078125q0 1.34375 0.53125 1.984375q0.546875 0.625 1.3125 0.625q0.78125 0 1.34375 -0.65625q0.5625 -0.65625 0.5625 -2.046875q0 -1.3125 -0.546875 -1.96875q-0.546875 -0.671875 -1.296875 -0.671875q-0.75 0 -1.328125 0.703125q-0.578125 0.703125 -0.578125 2.03125zm12.3029785 6.234375q-0.984375 -1.234375 -1.65625 -2.875q-0.65625 -1.640625 -0.65625 -3.390625q0 -1.546875 0.5 -2.96875q0.578125 -1.640625 1.8125 -3.28125l0.828125 0q-0.78125 1.359375 -1.03125 1.9375q-0.40625 0.890625 -0.625 1.875q-0.28125 1.21875 -0.28125 2.4375q0 3.140625 1.9375 6.265625l-0.828125 0zm1.2977295 -2.8125l3.65625 -9.546875l1.359375 0l3.90625 9.546875l-1.4375 0l-1.109375 -2.890625l-3.984375 0l-1.046875 2.890625l-1.34375 0zm2.75 -3.921875l3.234375 0l-1.0 -2.640625q-0.453125 -1.203125 -0.671875 -1.96875q-0.1875 0.90625 -0.515625 1.8125l-1.046875 2.796875zm7.1866455 3.921875l0 -9.546875l3.59375 0q0.953125 0 1.453125 0.09375q0.703125 0.125 1.171875 0.453125q0.484375 0.328125 0.765625 0.921875q0.296875 0.59375 0.296875 1.296875q0 1.21875 -0.78125 2.0625q-0.765625 0.84375 -2.796875 0.84375l-2.4375 0l0 3.875l-1.265625 0zm1.265625 -5.0l2.453125 0q1.234375 0 1.75 -0.453125q0.515625 -0.46875 0.515625 -1.28125q0 -0.609375 -0.3125 -1.03125q-0.296875 -0.421875 -0.796875 -0.5625q-0.3125 -0.09375 -1.171875 -0.09375l-2.4375 0l0 3.421875zm7.6241455 5.0l0 -9.546875l3.59375 0q0.953125 0 1.453125 0.09375q0.703125 0.125 1.171875 0.453125q0.484375 0.328125 0.765625 0.921875q0.296875 0.59375 0.296875 1.296875q0 1.21875 -0.78125 2.0625q-0.765625 0.84375 -2.796875 0.84375l-2.4375 0l0 3.875l-1.265625 0zm1.265625 -5.0l2.453125 0q1.234375 0 1.75 -0.453125q0.515625 -0.46875 0.515625 -1.28125q0 -0.609375 -0.3125 -1.03125q-0.296875 -0.421875 -0.796875 -0.5625q-0.3125 -0.09375 -1.171875 -0.09375l-2.4375 0l0 3.421875zm8.233459 7.8125l-0.828125 0q1.9375 -3.125 1.9375 -6.265625q0 -1.21875 -0.28125 -2.421875q-0.21875 -0.984375 -0.609375 -1.875q-0.265625 -0.59375 -1.046875 -1.953125l0.828125 0q1.234375 1.640625 1.8125 3.28125q0.5 1.421875 0.5 2.96875q0 1.75 -0.671875 3.390625q-0.671875 1.640625 -1.640625 2.875z" fill-rule="nonzero"/><path fill="#000000" fill-opacity="0.0" d="m691.8268 229.28159l150.42517 0l0 21.606308l-150.42517 0z" fill-rule="evenodd"/><path fill="#000000" d="m723.49976 248.52159l0 -7.625l2.859375 0q0.875 0 1.40625 0.234375q0.53125 0.21875 0.828125 0.703125q0.296875 0.484375 0.296875 1.015625q0 0.484375 -0.265625 0.921875q-0.265625 0.421875 -0.796875 0.6875q0.6875 0.203125 1.0625 0.703125q0.375 0.484375 0.375 1.140625q0 0.546875 -0.234375 1.015625q-0.21875 0.453125 -0.5625 0.703125q-0.328125 0.25 -0.828125 0.375q-0.5 0.125 -1.234375 0.125l-2.90625 0zm1.015625 -4.421875l1.640625 0q0.671875 0 0.96875 -0.09375q0.375 -0.109375 0.5625 -0.375q0.203125 -0.265625 0.203125 -0.671875q0 -0.375 -0.1875 -0.65625q-0.171875 -0.296875 -0.515625 -0.40625q-0.328125 -0.109375 -1.15625 -0.109375l-1.515625 0l0 2.3125zm0 3.515625l1.890625 0q0.484375 0 0.6875 -0.03125q0.34375 -0.0625 0.578125 -0.203125q0.234375 -0.15625 0.390625 -0.421875q0.15625 -0.28125 0.15625 -0.65625q0 -0.421875 -0.21875 -0.734375q-0.21875 -0.3125 -0.609375 -0.4375q-0.390625 -0.125 -1.125 -0.125l-1.75 0l0 2.609375zm5.826355 -2.8125q0 -1.890625 1.015625 -2.96875q1.03125 -1.078125 2.640625 -1.078125q1.046875 0 1.890625 0.515625q0.859375 0.5 1.296875 1.40625q0.453125 0.890625 0.453125 2.046875q0 1.15625 -0.46875 2.078125q-0.46875 0.90625 -1.328125 1.375q-0.859375 0.46875 -1.859375 0.46875q-1.078125 0 -1.921875 -0.515625q-0.84375 -0.515625 -1.28125 -1.40625q-0.4375 -0.90625 -0.4375 -1.921875zm1.046875 0.015625q0 1.375 0.734375 2.171875q0.734375 0.796875 1.859375 0.796875q1.140625 0 1.875 -0.796875q0.734375 -0.8125 0.734375 -2.28125q0 -0.921875 -0.3125 -1.609375q-0.3125 -0.703125 -0.921875 -1.078125q-0.609375 -0.390625 -1.359375 -0.390625q-1.078125 0 -1.84375 0.734375q-0.765625 0.734375 -0.765625 2.453125zm7.2419434 -0.015625q0 -1.890625 1.015625 -2.96875q1.03125 -1.078125 2.640625 -1.078125q1.046875 0 1.890625 0.515625q0.859375 0.5 1.296875 1.40625q0.453125 0.890625 0.453125 2.046875q0 1.15625 -0.46875 2.078125q-0.46875 0.90625 -1.328125 1.375q-0.859375 0.46875 -1.859375 0.46875q-1.078125 0 -1.921875 -0.515625q-0.84375 -0.515625 -1.28125 -1.40625q-0.4375 -0.90625 -0.4375 -1.921875zm1.046875 0.015625q0 1.375 0.734375 2.171875q0.734375 0.796875 1.859375 0.796875q1.140625 0 1.875 -0.796875q0.734375 -0.8125 0.734375 -2.28125q0 -0.921875 -0.3125 -1.609375q-0.3125 -0.703125 -0.921875 -1.078125q-0.609375 -0.390625 -1.359375 -0.390625q-1.078125 0 -1.84375 0.734375q-0.765625 0.734375 -0.765625 2.453125zm9.491882 3.703125l0 -6.734375l-2.515625 0l0 -0.890625l6.046875 0l0 0.890625l-2.53125 0l0 6.734375l-1.0 0zm12.777222 -2.671875l1.015625 0.25q-0.328125 1.25 -1.15625 1.90625q-0.8125 0.640625 -2.015625 0.640625q-1.234375 0 -2.0 -0.5q-0.765625 -0.5 -1.171875 -1.453125q-0.40625 -0.953125 -0.40625 -2.046875q0 -1.1875 0.453125 -2.078125q0.453125 -0.890625 1.296875 -1.34375q0.84375 -0.46875 1.84375 -0.46875q1.15625 0 1.9375 0.59375q0.78125 0.578125 1.078125 1.640625l-0.984375 0.234375q-0.265625 -0.84375 -0.78125 -1.21875q-0.5 -0.375 -1.265625 -0.375q-0.875 0 -1.46875 0.421875q-0.59375 0.421875 -0.828125 1.140625q-0.234375 0.703125 -0.234375 1.453125q0 0.96875 0.28125 1.703125q0.28125 0.71875 0.875 1.078125q0.59375 0.359375 1.296875 0.359375q0.84375 0 1.4375 -0.484375q0.59375 -0.5 0.796875 -1.453125zm1.4143066 2.671875l2.921875 -7.625l1.09375 0l3.125 7.625l-1.15625 0l-0.890625 -2.3125l-3.1875 0l-0.828125 2.3125l-1.078125 0zm2.203125 -3.125l2.578125 0l-0.796875 -2.125q-0.359375 -0.953125 -0.53125 -1.578125q-0.15625 0.734375 -0.421875 1.453125l-0.828125 2.25zm11.604736 2.4375q-0.53125 0.453125 -1.015625 0.640625q-0.46875 0.171875 -1.015625 0.171875q-0.921875 0 -1.40625 -0.4375q-0.484375 -0.453125 -0.484375 -1.140625q0 -0.40625 0.171875 -0.734375q0.1875 -0.34375 0.484375 -0.546875q0.3125 -0.203125 0.6875 -0.3125q0.265625 -0.0625 0.828125 -0.140625q1.125 -0.125 1.671875 -0.3125q0 -0.203125 0 -0.25q0 -0.578125 -0.265625 -0.8125q-0.359375 -0.3125 -1.0625 -0.3125q-0.65625 0 -0.984375 0.234375q-0.3125 0.234375 -0.453125 0.8125l-0.921875 -0.125q0.125 -0.578125 0.40625 -0.9375q0.296875 -0.375 0.828125 -0.5625q0.546875 -0.203125 1.25 -0.203125q0.71875 0 1.15625 0.171875q0.4375 0.171875 0.640625 0.421875q0.21875 0.25 0.296875 0.640625q0.046875 0.234375 0.046875 0.859375l0 1.25q0 1.296875 0.0625 1.65625q0.0625 0.34375 0.234375 0.65625l-0.96875 0q-0.15625 -0.296875 -0.1875 -0.6875zm-0.078125 -2.078125q-0.515625 0.203125 -1.53125 0.34375q-0.578125 0.078125 -0.828125 0.1875q-0.234375 0.109375 -0.359375 0.3125q-0.125 0.1875 -0.125 0.4375q0 0.375 0.28125 0.625q0.28125 0.25 0.828125 0.25q0.53125 0 0.953125 -0.234375q0.421875 -0.234375 0.625 -0.65625q0.15625 -0.3125 0.15625 -0.9375l0 -0.328125zm2.3952637 2.765625l0 -5.53125l0.84375 0l0 0.796875q0.609375 -0.921875 1.75 -0.921875q0.5 0 0.921875 0.1875q0.421875 0.171875 0.625 0.46875q0.21875 0.296875 0.296875 0.6875q0.046875 0.265625 0.046875 0.921875l0 3.390625l-0.9375 0l0 -3.359375q0 -0.578125 -0.109375 -0.859375q-0.109375 -0.28125 -0.390625 -0.453125q-0.265625 -0.171875 -0.640625 -0.171875q-0.59375 0 -1.03125 0.390625q-0.4375 0.375 -0.4375 1.4375l0 3.015625l-0.9375 0zm9.504639 0l0 -0.703125q-0.515625 0.828125 -1.546875 0.828125q-0.65625 0 -1.21875 -0.359375q-0.546875 -0.375 -0.859375 -1.015625q-0.296875 -0.65625 -0.296875 -1.5q0 -0.828125 0.28125 -1.5q0.28125 -0.6875 0.828125 -1.046875q0.546875 -0.359375 1.234375 -0.359375q0.5 0 0.890625 0.21875q0.390625 0.203125 0.625 0.546875l0 -2.734375l0.9375 0l0 7.625l-0.875 0zm-2.953125 -2.75q0 1.046875 0.4375 1.578125q0.453125 0.53125 1.0625 0.53125q0.609375 0 1.03125 -0.5q0.4375 -0.515625 0.4375 -1.53125q0 -1.140625 -0.4375 -1.671875q-0.4375 -0.53125 -1.078125 -0.53125q-0.609375 0 -1.03125 0.515625q-0.421875 0.5 -0.421875 1.609375zm11.871521 0.71875l0.921875 0.125q-0.15625 0.953125 -0.78125 1.5q-0.625 0.53125 -1.53125 0.53125q-1.125 0 -1.8125 -0.734375q-0.6875 -0.75 -0.6875 -2.125q0 -0.90625 0.296875 -1.578125q0.296875 -0.671875 0.890625 -1.0q0.609375 -0.34375 1.328125 -0.34375q0.890625 0 1.46875 0.46875q0.578125 0.453125 0.734375 1.28125l-0.90625 0.140625q-0.140625 -0.546875 -0.46875 -0.828125q-0.328125 -0.28125 -0.796875 -0.28125q-0.703125 0 -1.15625 0.515625q-0.4375 0.5 -0.4375 1.59375q0 1.109375 0.421875 1.625q0.4375 0.5 1.125 0.5q0.546875 0 0.90625 -0.34375q0.375 -0.34375 0.484375 -1.046875zm5.5 0.25l0.96875 0.125q-0.234375 0.84375 -0.859375 1.3125q-0.609375 0.46875 -1.578125 0.46875q-1.203125 0 -1.921875 -0.75q-0.703125 -0.75 -0.703125 -2.09375q0 -1.390625 0.71875 -2.15625q0.71875 -0.78125 1.859375 -0.78125q1.109375 0 1.8125 0.765625q0.703125 0.75 0.703125 2.125q0 0.078125 0 0.234375l-4.125 0q0.046875 0.921875 0.515625 1.40625q0.46875 0.484375 1.15625 0.484375q0.515625 0 0.875 -0.265625q0.359375 -0.28125 0.578125 -0.875zm-3.078125 -1.515625l3.09375 0q-0.0625 -0.6875 -0.359375 -1.046875q-0.453125 -0.53125 -1.15625 -0.53125q-0.640625 0 -1.09375 0.4375q-0.4375 0.421875 -0.484375 1.140625zm5.2077637 3.296875l0 -5.53125l0.84375 0l0 0.84375q0.328125 -0.59375 0.59375 -0.78125q0.28125 -0.1875 0.609375 -0.1875q0.46875 0 0.953125 0.3125l-0.3125 0.859375q-0.34375 -0.203125 -0.6875 -0.203125q-0.3125 0 -0.5625 0.1875q-0.234375 0.1875 -0.34375 0.515625q-0.15625 0.5 -0.15625 1.09375l0 2.890625l-0.9375 0zm5.611084 -0.84375l0.125 0.828125q-0.390625 0.09375 -0.703125 0.09375q-0.5 0 -0.78125 -0.15625q-0.28125 -0.171875 -0.40625 -0.4375q-0.109375 -0.265625 -0.109375 -1.109375l0 -3.171875l-0.6875 0l0 -0.734375l0.6875 0l0 -1.359375l0.9375 -0.5625l0 1.921875l0.9375 0l0 0.734375l-0.9375 0l0 3.234375q0 0.390625 0.046875 0.515625q0.046875 0.109375 0.15625 0.1875q0.109375 0.0625 0.328125 0.0625q0.15625 0 0.40625 -0.046875z" fill-rule="nonzero"/><path fill="#000000" fill-opacity="0.0" d="m692.0688 234.65617l150.42523 0" fill-rule="evenodd"/><path stroke="#595959" stroke-width="1.0" stroke-linejoin="round" stroke-linecap="butt" d="m692.0688 234.65617l150.42523 0" fill-rule="evenodd"/><path fill="#000000" fill-opacity="0.0" d="m691.8268 253.28159l150.42517 0l0 21.606293l-150.42517 0z" fill-rule="evenodd"/><path fill="#000000" d="m761.6496 272.52158l0 -7.625l2.875 0q0.75 0 1.15625 0.0625q0.5625 0.09375 0.9375 0.359375q0.390625 0.265625 0.609375 0.75q0.234375 0.46875 0.234375 1.03125q0 0.96875 -0.625 1.65625q-0.609375 0.671875 -2.234375 0.671875l-1.953125 0l0 3.09375l-1.0 0zm1.0 -4.0l1.96875 0q0.984375 0 1.390625 -0.359375q0.421875 -0.375 0.421875 -1.03125q0 -0.484375 -0.25 -0.8125q-0.234375 -0.34375 -0.640625 -0.453125q-0.25 -0.078125 -0.9375 -0.078125l-1.953125 0l0 2.734375zm5.982666 4.0l0 -7.625l0.9375 0l0 4.34375l2.21875 -2.25l1.21875 0l-2.125 2.0625l2.328125 3.46875l-1.15625 0l-1.8125 -2.828125l-0.671875 0.640625l0 2.1875l-0.9375 0z" fill-rule="nonzero"/><path fill="#000000" fill-opacity="0.0" d="m692.0688 258.65616l150.42523 0" fill-rule="evenodd"/><path stroke="#595959" stroke-width="1.0" stroke-linejoin="round" stroke-linecap="butt" d="m692.0688 258.65616l150.42523 0" fill-rule="evenodd"/><path fill="#000000" fill-opacity="0.0" d="m905.8714 12.010499l44.59839 0l0 53.480316l-44.59839 0z" fill-rule="evenodd"/><path fill="#000000" d="m926.9495 42.01925l0 2.03125l-11.34375 0q-0.03125 -0.765625 0.234375 -1.46875q0.4375 -1.15625 1.390625 -2.28125q0.953125 -1.125 2.765625 -2.609375q2.796875 -2.296875 3.78125 -3.625q0.984375 -1.34375 0.984375 -2.546875q0 -1.25 -0.90625 -2.109375q-0.890625 -0.859375 -2.328125 -0.859375q-1.515625 0 -2.4375 0.921875q-0.90625 0.90625 -0.921875 2.515625l-2.171875 -0.21875q0.21875 -2.421875 1.671875 -3.6875q1.453125 -1.28125 3.90625 -1.28125q2.46875 0 3.90625 1.375q1.453125 1.359375 1.453125 3.390625q0 1.03125 -0.421875 2.03125q-0.421875 1.0 -1.40625 2.109375q-0.96875 1.09375 -3.25 3.015625q-1.890625 1.59375 -2.4375 2.15625q-0.53125 0.5625 -0.890625 1.140625l8.421875 0z" fill-rule="nonzero"/><path fill="#000000" fill-opacity="0.0" d="m364.98425 420.39108l582.2047 0l0 103.77951l-582.2047 0z" fill-rule="evenodd"/><path fill="#000000" d="m375.24988 444.75107l0 -11.453125l8.28125 0l0 1.34375l-6.765625 0l0 3.515625l6.34375 0l0 1.34375l-6.34375 0l0 3.890625l7.03125 0l0 1.359375l-8.546875 0zm15.875 -1.03125q-0.78125 0.671875 -1.5 0.953125q-0.71875 0.265625 -1.546875 0.265625q-1.375 0 -2.109375 -0.671875q-0.734375 -0.671875 -0.734375 -1.703125q0 -0.609375 0.28125 -1.109375q0.28125 -0.515625 0.71875 -0.8125q0.453125 -0.3125 1.015625 -0.46875q0.421875 -0.109375 1.25 -0.203125q1.703125 -0.203125 2.515625 -0.484375q0 -0.296875 0 -0.375q0 -0.859375 -0.390625 -1.203125q-0.546875 -0.484375 -1.609375 -0.484375q-0.984375 0 -1.46875 0.359375q-0.46875 0.34375 -0.6875 1.21875l-1.375 -0.1875q0.1875 -0.875 0.609375 -1.421875q0.4375 -0.546875 1.25 -0.828125q0.8125 -0.296875 1.875 -0.296875q1.0625 0 1.71875 0.25q0.671875 0.25 0.984375 0.625q0.3125 0.375 0.4375 0.953125q0.078125 0.359375 0.078125 1.296875l0 1.875q0 1.96875 0.078125 2.484375q0.09375 0.515625 0.359375 1.0l-1.46875 0q-0.21875 -0.4375 -0.28125 -1.03125zm-0.109375 -3.140625q-0.765625 0.3125 -2.296875 0.53125q-0.875 0.125 -1.234375 0.28125q-0.359375 0.15625 -0.5625 0.46875q-0.1875 0.296875 -0.1875 0.65625q0 0.5625 0.421875 0.9375q0.4375 0.375 1.25 0.375q0.8125 0 1.4375 -0.34375q0.640625 -0.359375 0.9375 -0.984375q0.234375 -0.46875 0.234375 -1.40625l0 -0.515625zm9.0078125 1.125l1.390625 0.1875q-0.234375 1.421875 -1.171875 2.234375q-0.921875 0.8125 -2.28125 0.8125q-1.703125 0 -2.75 -1.109375q-1.03125 -1.125 -1.03125 -3.203125q0 -1.34375 0.4375 -2.34375q0.453125 -1.015625 1.359375 -1.515625q0.921875 -0.5 1.984375 -0.5q1.359375 0 2.21875 0.6875q0.859375 0.671875 1.09375 1.9375l-1.359375 0.203125q-0.203125 -0.828125 -0.703125 -1.25q-0.484375 -0.421875 -1.1875 -0.421875q-1.0625 0 -1.734375 0.765625q-0.65625 0.75 -0.65625 2.40625q0 1.671875 0.640625 2.4375q0.640625 0.75 1.671875 0.75q0.828125 0 1.375 -0.5q0.5625 -0.515625 0.703125 -1.578125zm2.59375 3.046875l0 -11.453125l1.40625 0l0 4.109375q0.984375 -1.140625 2.484375 -1.140625q0.921875 0 1.59375 0.359375q0.6875 0.359375 0.96875 1.0q0.296875 0.640625 0.296875 1.859375l0 5.265625l-1.40625 0l0 -5.265625q0 -1.046875 -0.453125 -1.53125q-0.453125 -0.484375 -1.296875 -0.484375q-0.625 0 -1.171875 0.328125q-0.546875 0.328125 -0.78125 0.890625q-0.234375 0.546875 -0.234375 1.515625l0 4.546875l-1.40625 0zm12.8125 -4.15625q0 -2.296875 1.28125 -3.40625q1.078125 -0.921875 2.609375 -0.921875q1.71875 0 2.796875 1.125q1.09375 1.109375 1.09375 3.09375q0 1.59375 -0.484375 2.515625q-0.484375 0.921875 -1.40625 1.4375q-0.90625 0.5 -2.0 0.5q-1.734375 0 -2.8125 -1.109375q-1.078125 -1.125 -1.078125 -3.234375zm1.453125 0q0 1.59375 0.6875 2.390625q0.703125 0.796875 1.75 0.796875q1.046875 0 1.734375 -0.796875q0.703125 -0.796875 0.703125 -2.4375q0 -1.53125 -0.703125 -2.328125q-0.6875 -0.796875 -1.734375 -0.796875q-1.046875 0 -1.75 0.796875q-0.6875 0.78125 -0.6875 2.375zm8.3046875 4.15625l0 -7.203125l-1.234375 0l0 -1.09375l1.234375 0l0 -0.890625q0 -0.828125 0.15625 -1.234375q0.203125 -0.546875 0.703125 -0.890625q0.515625 -0.34375 1.4375 -0.34375q0.59375 0 1.3125 0.140625l-0.203125 1.234375q-0.4375 -0.078125 -0.828125 -0.078125q-0.640625 0 -0.90625 0.28125q-0.265625 0.265625 -0.265625 1.015625l0 0.765625l1.609375 0l0 1.09375l-1.609375 0l0 7.203125l-1.40625 0zm11.625 -1.265625l0.203125 1.25q-0.59375 0.125 -1.0625 0.125q-0.765625 0 -1.1875 -0.234375q-0.421875 -0.25 -0.59375 -0.640625q-0.171875 -0.40625 -0.171875 -1.671875l0 -4.765625l-1.03125 0l0 -1.09375l1.03125 0l0 -2.0625l1.40625 -0.84375l0 2.90625l1.40625 0l0 1.09375l-1.40625 0l0 4.84375q0 0.609375 0.0625 0.78125q0.078125 0.171875 0.25 0.28125q0.171875 0.09375 0.484375 0.09375q0.234375 0 0.609375 -0.0625zm1.3828125 1.265625l0 -11.453125l1.40625 0l0 4.109375q0.984375 -1.140625 2.484375 -1.140625q0.921875 0 1.59375 0.359375q0.6875 0.359375 0.96875 1.0q0.296875 0.640625 0.296875 1.859375l0 5.265625l-1.40625 0l0 -5.265625q0 -1.046875 -0.453125 -1.53125q-0.453125 -0.484375 -1.296875 -0.484375q-0.625 0 -1.171875 0.328125q-0.546875 0.328125 -0.78125 0.890625q-0.234375 0.546875 -0.234375 1.515625l0 4.546875l-1.40625 0zm14.5703125 -2.671875l1.453125 0.171875q-0.34375 1.28125 -1.28125 1.984375q-0.921875 0.703125 -2.359375 0.703125q-1.828125 0 -2.890625 -1.125q-1.0625 -1.125 -1.0625 -3.140625q0 -2.09375 1.078125 -3.25q1.078125 -1.15625 2.796875 -1.15625q1.65625 0 2.703125 1.140625q1.0625 1.125 1.0625 3.171875q0 0.125 0 0.375l-6.1875 0q0.078125 1.375 0.765625 2.109375q0.703125 0.71875 1.734375 0.71875q0.78125 0 1.328125 -0.40625q0.546875 -0.40625 0.859375 -1.296875zm-4.609375 -2.28125l4.625 0q-0.09375 -1.046875 -0.53125 -1.5625q-0.671875 -0.8125 -1.734375 -0.8125q-0.96875 0 -1.640625 0.65625q-0.65625 0.640625 -0.71875 1.71875zm12.71875 4.953125l0 -11.453125l1.515625 0l0 11.453125l-1.515625 0zm3.7265625 -5.578125q0 -2.859375 1.53125 -4.46875q1.53125 -1.609375 3.953125 -1.609375q1.578125 0 2.84375 0.765625q1.28125 0.75 1.953125 2.109375q0.671875 1.34375 0.671875 3.0625q0 1.75 -0.703125 3.125q-0.703125 1.375 -2.0 2.09375q-1.28125 0.703125 -2.78125 0.703125q-1.609375 0 -2.890625 -0.78125q-1.265625 -0.796875 -1.921875 -2.140625q-0.65625 -1.359375 -0.65625 -2.859375zm1.5625 0.015625q0 2.078125 1.109375 3.265625q1.109375 1.1875 2.796875 1.1875q1.703125 0 2.8125 -1.203125q1.109375 -1.203125 1.109375 -3.40625q0 -1.40625 -0.484375 -2.4375q-0.46875 -1.046875 -1.375 -1.625q-0.90625 -0.578125 -2.046875 -0.578125q-1.609375 0 -2.765625 1.109375q-1.15625 1.109375 -1.15625 3.6875zm14.2578125 5.5625l0 -10.109375l-3.78125 0l0 -1.34375l9.078125 0l0 1.34375l-3.78125 0l0 10.109375l-1.515625 0zm6.8984375 0l0 -11.453125l1.515625 0l0 4.703125l5.953125 0l0 -4.703125l1.515625 0l0 11.453125l-1.515625 0l0 -5.40625l-5.953125 0l0 5.40625l-1.515625 0zm21.1875 -1.03125q-0.78125 0.671875 -1.5 0.953125q-0.71875 0.265625 -1.546875 0.265625q-1.375 0 -2.109375 -0.671875q-0.734375 -0.671875 -0.734375 -1.703125q0 -0.609375 0.28125 -1.109375q0.28125 -0.515625 0.71875 -0.8125q0.453125 -0.3125 1.015625 -0.46875q0.421875 -0.109375 1.25 -0.203125q1.703125 -0.203125 2.515625 -0.484375q0 -0.296875 0 -0.375q0 -0.859375 -0.390625 -1.203125q-0.546875 -0.484375 -1.609375 -0.484375q-0.984375 0 -1.46875 0.359375q-0.46875 0.34375 -0.6875 1.21875l-1.375 -0.1875q0.1875 -0.875 0.609375 -1.421875q0.4375 -0.546875 1.25 -0.828125q0.8125 -0.296875 1.875 -0.296875q1.0625 0 1.71875 0.25q0.671875 0.25 0.984375 0.625q0.3125 0.375 0.4375 0.953125q0.078125 0.359375 0.078125 1.296875l0 1.875q0 1.96875 0.078125 2.484375q0.09375 0.515625 0.359375 1.0l-1.46875 0q-0.21875 -0.4375 -0.28125 -1.03125zm-0.109375 -3.140625q-0.765625 0.3125 -2.296875 0.53125q-0.875 0.125 -1.234375 0.28125q-0.359375 0.15625 -0.5625 0.46875q-0.1875 0.296875 -0.1875 0.65625q0 0.5625 0.421875 0.9375q0.4375 0.375 1.25 0.375q0.8125 0 1.4375 -0.34375q0.640625 -0.359375 0.9375 -0.984375q0.234375 -0.46875 0.234375 -1.40625l0 -0.515625zm3.6015625 4.171875l0 -8.296875l1.265625 0l0 1.171875q0.90625 -1.359375 2.640625 -1.359375q0.75 0 1.375 0.265625q0.625 0.265625 0.9375 0.703125q0.3125 0.4375 0.4375 1.046875q0.078125 0.390625 0.078125 1.359375l0 5.109375l-1.40625 0l0 -5.046875q0 -0.859375 -0.171875 -1.28125q-0.15625 -0.4375 -0.578125 -0.6875q-0.40625 -0.25 -0.96875 -0.25q-0.90625 0 -1.5625 0.578125q-0.640625 0.5625 -0.640625 2.15625l0 4.53125l-1.40625 0zm14.2734375 0l0 -1.046875q-0.78125 1.234375 -2.3125 1.234375q-1.0 0 -1.828125 -0.546875q-0.828125 -0.546875 -1.296875 -1.53125q-0.453125 -0.984375 -0.453125 -2.25q0 -1.25 0.40625 -2.25q0.421875 -1.015625 1.25 -1.546875q0.828125 -0.546875 1.859375 -0.546875q0.75 0 1.328125 0.3125q0.59375 0.3125 0.953125 0.828125l0 -4.109375l1.40625 0l0 11.453125l-1.3125 0zm-4.4375 -4.140625q0 1.59375 0.671875 2.390625q0.671875 0.78125 1.578125 0.78125q0.921875 0 1.5625 -0.75q0.65625 -0.765625 0.65625 -2.3125q0 -1.703125 -0.65625 -2.5q-0.65625 -0.796875 -1.625 -0.796875q-0.9375 0 -1.5625 0.765625q-0.625 0.765625 -0.625 2.421875zm15.46875 2.875l0.203125 1.25q-0.59375 0.125 -1.0625 0.125q-0.765625 0 -1.1875 -0.234375q-0.421875 -0.25 -0.59375 -0.640625q-0.171875 -0.40625 -0.171875 -1.671875l0 -4.765625l-1.03125 0l0 -1.09375l1.03125 0l0 -2.0625l1.40625 -0.84375l0 2.90625l1.40625 0l0 1.09375l-1.40625 0l0 4.84375q0 0.609375 0.0625 0.78125q0.078125 0.171875 0.25 0.28125q0.171875 0.09375 0.484375 0.09375q0.234375 0 0.609375 -0.0625zm1.3828125 1.265625l0 -11.453125l1.40625 0l0 4.109375q0.984375 -1.140625 2.484375 -1.140625q0.921875 0 1.59375 0.359375q0.6875 0.359375 0.96875 1.0q0.296875 0.640625 0.296875 1.859375l0 5.265625l-1.40625 0l0 -5.265625q0 -1.046875 -0.453125 -1.53125q-0.453125 -0.484375 -1.296875 -0.484375q-0.625 0 -1.171875 0.328125q-0.546875 0.328125 -0.78125 0.890625q-0.234375 0.546875 -0.234375 1.515625l0 4.546875l-1.40625 0zm14.5703125 -2.671875l1.453125 0.171875q-0.34375 1.28125 -1.28125 1.984375q-0.921875 0.703125 -2.359375 0.703125q-1.828125 0 -2.890625 -1.125q-1.0625 -1.125 -1.0625 -3.140625q0 -2.09375 1.078125 -3.25q1.078125 -1.15625 2.796875 -1.15625q1.65625 0 2.703125 1.140625q1.0625 1.125 1.0625 3.171875q0 0.125 0 0.375l-6.1875 0q0.078125 1.375 0.765625 2.109375q0.703125 0.71875 1.734375 0.71875q0.78125 0 1.328125 -0.40625q0.546875 -0.40625 0.859375 -1.296875zm-4.609375 -2.28125l4.625 0q-0.09375 -1.046875 -0.53125 -1.5625q-0.671875 -0.8125 -1.734375 -0.8125q-0.96875 0 -1.640625 0.65625q-0.65625 0.640625 -0.71875 1.71875zm17.8125 0.453125l0 -1.34375l4.859375 0l0 4.25q-1.125 0.890625 -2.3125 1.34375q-1.1875 0.453125 -2.4375 0.453125q-1.6875 0 -3.0625 -0.71875q-1.375 -0.734375 -2.078125 -2.09375q-0.703125 -1.375 -0.703125 -3.0625q0 -1.671875 0.6875 -3.125q0.703125 -1.453125 2.015625 -2.15625q1.3125 -0.703125 3.03125 -0.703125q1.234375 0 2.234375 0.40625q1.015625 0.40625 1.578125 1.125q0.578125 0.71875 0.875 1.875l-1.375 0.375q-0.25 -0.875 -0.640625 -1.375q-0.375 -0.5 -1.09375 -0.796875q-0.703125 -0.3125 -1.578125 -0.3125q-1.03125 0 -1.796875 0.328125q-0.75 0.3125 -1.21875 0.828125q-0.46875 0.515625 -0.71875 1.125q-0.4375 1.0625 -0.4375 2.3125q0 1.53125 0.515625 2.5625q0.53125 1.03125 1.53125 1.53125q1.015625 0.5 2.15625 0.5q0.984375 0 1.921875 -0.375q0.9375 -0.390625 1.421875 -0.8125l0 -2.140625l-3.375 0zm12.3203125 3.46875q-0.78125 0.671875 -1.5 0.953125q-0.71875 0.265625 -1.546875 0.265625q-1.375 0 -2.109375 -0.671875q-0.734375 -0.671875 -0.734375 -1.703125q0 -0.609375 0.28125 -1.109375q0.28125 -0.515625 0.71875 -0.8125q0.453125 -0.3125 1.015625 -0.46875q0.421875 -0.109375 1.25 -0.203125q1.703125 -0.203125 2.515625 -0.484375q0 -0.296875 0 -0.375q0 -0.859375 -0.390625 -1.203125q-0.546875 -0.484375 -1.609375 -0.484375q-0.984375 0 -1.46875 0.359375q-0.46875 0.34375 -0.6875 1.21875l-1.375 -0.1875q0.1875 -0.875 0.609375 -1.421875q0.4375 -0.546875 1.25 -0.828125q0.8125 -0.296875 1.875 -0.296875q1.0625 0 1.71875 0.25q0.671875 0.25 0.984375 0.625q0.3125 0.375 0.4375 0.953125q0.078125 0.359375 0.078125 1.296875l0 1.875q0 1.96875 0.078125 2.484375q0.09375 0.515625 0.359375 1.0l-1.46875 0q-0.21875 -0.4375 -0.28125 -1.03125zm-0.109375 -3.140625q-0.765625 0.3125 -2.296875 0.53125q-0.875 0.125 -1.234375 0.28125q-0.359375 0.15625 -0.5625 0.46875q-0.1875 0.296875 -0.1875 0.65625q0 0.5625 0.421875 0.9375q0.4375 0.375 1.25 0.375q0.8125 0 1.4375 -0.34375q0.640625 -0.359375 0.9375 -0.984375q0.234375 -0.46875 0.234375 -1.40625l0 -0.515625zm6.6640625 2.90625l0.203125 1.25q-0.59375 0.125 -1.0625 0.125q-0.765625 0 -1.1875 -0.234375q-0.421875 -0.25 -0.59375 -0.640625q-0.171875 -0.40625 -0.171875 -1.671875l0 -4.765625l-1.03125 0l0 -1.09375l1.03125 0l0 -2.0625l1.40625 -0.84375l0 2.90625l1.40625 0l0 1.09375l-1.40625 0l0 4.84375q0 0.609375 0.0625 0.78125q0.078125 0.171875 0.25 0.28125q0.171875 0.09375 0.484375 0.09375q0.234375 0 0.609375 -0.0625zm7.0546875 -1.40625l1.453125 0.171875q-0.34375 1.28125 -1.28125 1.984375q-0.921875 0.703125 -2.359375 0.703125q-1.828125 0 -2.890625 -1.125q-1.0625 -1.125 -1.0625 -3.140625q0 -2.09375 1.078125 -3.25q1.078125 -1.15625 2.796875 -1.15625q1.65625 0 2.703125 1.140625q1.0625 1.125 1.0625 3.171875q0 0.125 0 0.375l-6.1875 0q0.078125 1.375 0.765625 2.109375q0.703125 0.71875 1.734375 0.71875q0.78125 0 1.328125 -0.40625q0.546875 -0.40625 0.859375 -1.296875zm-4.609375 -2.28125l4.625 0q-0.09375 -1.046875 -0.53125 -1.5625q-0.671875 -0.8125 -1.734375 -0.8125q-0.96875 0 -1.640625 0.65625q-0.65625 0.640625 -0.71875 1.71875zm9.3671875 4.953125l-2.546875 -8.296875l1.453125 0l1.328125 4.78125l0.484375 1.78125q0.03125 -0.125 0.4375 -1.703125l1.3125 -4.859375l1.453125 0l1.234375 4.8125l0.421875 1.578125l0.46875 -1.59375l1.421875 -4.796875l1.375 0l-2.59375 8.296875l-1.46875 0l-1.3125 -4.96875l-0.328125 -1.421875l-1.671875 6.390625l-1.46875 0zm15.4296875 -1.03125q-0.78125 0.671875 -1.5 0.953125q-0.71875 0.265625 -1.546875 0.265625q-1.375 0 -2.109375 -0.671875q-0.734375 -0.671875 -0.734375 -1.703125q0 -0.609375 0.28125 -1.109375q0.28125 -0.515625 0.71875 -0.8125q0.453125 -0.3125 1.015625 -0.46875q0.421875 -0.109375 1.25 -0.203125q1.703125 -0.203125 2.515625 -0.484375q0 -0.296875 0 -0.375q0 -0.859375 -0.390625 -1.203125q-0.546875 -0.484375 -1.609375 -0.484375q-0.984375 0 -1.46875 0.359375q-0.46875 0.34375 -0.6875 1.21875l-1.375 -0.1875q0.1875 -0.875 0.609375 -1.421875q0.4375 -0.546875 1.25 -0.828125q0.8125 -0.296875 1.875 -0.296875q1.0625 0 1.71875 0.25q0.671875 0.25 0.984375 0.625q0.3125 0.375 0.4375 0.953125q0.078125 0.359375 0.078125 1.296875l0 1.875q0 1.96875 0.078125 2.484375q0.09375 0.515625 0.359375 1.0l-1.46875 0q-0.21875 -0.4375 -0.28125 -1.03125zm-0.109375 -3.140625q-0.765625 0.3125 -2.296875 0.53125q-0.875 0.125 -1.234375 0.28125q-0.359375 0.15625 -0.5625 0.46875q-0.1875 0.296875 -0.1875 0.65625q0 0.5625 0.421875 0.9375q0.4375 0.375 1.25 0.375q0.8125 0 1.4375 -0.34375q0.640625 -0.359375 0.9375 -0.984375q0.234375 -0.46875 0.234375 -1.40625l0 -0.515625zm3.5390625 7.375l-0.15625 -1.328125q0.453125 0.125 0.796875 0.125q0.46875 0 0.75 -0.15625q0.28125 -0.15625 0.46875 -0.4375q0.125 -0.203125 0.421875 -1.046875q0.046875 -0.109375 0.125 -0.34375l-3.140625 -8.3125l1.515625 0l1.71875 4.796875q0.34375 0.921875 0.609375 1.921875q0.234375 -0.96875 0.578125 -1.890625l1.765625 -4.828125l1.40625 0l-3.15625 8.4375q-0.5 1.375 -0.78125 1.890625q-0.375 0.6875 -0.859375 1.015625q-0.484375 0.328125 -1.15625 0.328125q-0.40625 0 -0.90625 -0.171875zm10.53125 -3.203125l4.40625 -11.453125l1.640625 0l4.6875 11.453125l-1.734375 0l-1.328125 -3.46875l-4.796875 0l-1.25 3.46875l-1.625 0zm3.3125 -4.703125l3.890625 0l-1.203125 -3.171875q-0.546875 -1.453125 -0.8125 -2.375q-0.21875 1.09375 -0.609375 2.1875l-1.265625 3.359375zm8.625 4.703125l0 -11.453125l4.328125 0q1.140625 0 1.734375 0.109375q0.84375 0.140625 1.40625 0.53125q0.578125 0.390625 0.921875 1.109375q0.359375 0.703125 0.359375 1.5625q0 1.453125 -0.9375 2.46875q-0.921875 1.015625 -3.359375 1.015625l-2.9375 0l0 4.65625l-1.515625 0zm1.515625 -6.015625l2.96875 0q1.46875 0 2.078125 -0.546875q0.625 -0.546875 0.625 -1.53125q0 -0.71875 -0.375 -1.234375q-0.359375 -0.515625 -0.953125 -0.671875q-0.375 -0.109375 -1.40625 -0.109375l-2.9375 0l0 4.09375zm9.15625 6.015625l0 -11.453125l4.328125 0q1.140625 0 1.734375 0.109375q0.84375 0.140625 1.40625 0.53125q0.578125 0.390625 0.921875 1.109375q0.359375 0.703125 0.359375 1.5625q0 1.453125 -0.9375 2.46875q-0.921875 1.015625 -3.359375 1.015625l-2.9375 0l0 4.65625l-1.515625 0zm1.515625 -6.015625l2.96875 0q1.46875 0 2.078125 -0.546875q0.625 -0.546875 0.625 -1.53125q0 -0.71875 -0.375 -1.234375q-0.359375 -0.515625 -0.953125 -0.671875q-0.375 -0.109375 -1.40625 -0.109375l-2.9375 0l0 4.09375zm16.203125 4.75l0.203125 1.25q-0.59375 0.125 -1.0625 0.125q-0.765625 0 -1.1875 -0.234375q-0.421875 -0.25 -0.59375 -0.640625q-0.171875 -0.40625 -0.171875 -1.671875l0 -4.765625l-1.03125 0l0 -1.09375l1.03125 0l0 -2.0625l1.40625 -0.84375l0 2.90625l1.40625 0l0 1.09375l-1.40625 0l0 4.84375q0 0.609375 0.0625 0.78125q0.078125 0.171875 0.25 0.28125q0.171875 0.09375 0.484375 0.09375q0.234375 0 0.609375 -0.0625zm1.3828125 1.265625l0 -11.453125l1.40625 0l0 4.109375q0.984375 -1.140625 2.484375 -1.140625q0.921875 0 1.59375 0.359375q0.6875 0.359375 0.96875 1.0q0.296875 0.640625 0.296875 1.859375l0 5.265625l-1.40625 0l0 -5.265625q0 -1.046875 -0.453125 -1.53125q-0.453125 -0.484375 -1.296875 -0.484375q-0.625 0 -1.171875 0.328125q-0.546875 0.328125 -0.78125 0.890625q-0.234375 0.546875 -0.234375 1.515625l0 4.546875l-1.40625 0zm14.5703125 -2.671875l1.453125 0.171875q-0.34375 1.28125 -1.28125 1.984375q-0.921875 0.703125 -2.359375 0.703125q-1.828125 0 -2.890625 -1.125q-1.0625 -1.125 -1.0625 -3.140625q0 -2.09375 1.078125 -3.25q1.078125 -1.15625 2.796875 -1.15625q1.65625 0 2.703125 1.140625q1.0625 1.125 1.0625 3.171875q0 0.125 0 0.375l-6.1875 0q0.078125 1.375 0.765625 2.109375q0.703125 0.71875 1.734375 0.71875q0.78125 0 1.328125 -0.40625q0.546875 -0.40625 0.859375 -1.296875zm-4.609375 -2.28125l4.625 0q-0.09375 -1.046875 -0.53125 -1.5625q-0.671875 -0.8125 -1.734375 -0.8125q-0.96875 0 -1.640625 0.65625q-0.65625 0.640625 -0.71875 1.71875zm7.8359375 4.953125l0 -8.296875l1.265625 0l0 1.171875q0.90625 -1.359375 2.640625 -1.359375q0.75 0 1.375 0.265625q0.625 0.265625 0.9375 0.703125q0.3125 0.4375 0.4375 1.046875q0.078125 0.390625 0.078125 1.359375l0 5.109375l-1.40625 0l0 -5.046875q0 -0.859375 -0.171875 -1.28125q-0.15625 -0.4375 -0.578125 -0.6875q-0.40625 -0.25 -0.96875 -0.25q-0.90625 0 -1.5625 0.578125q-0.640625 0.5625 -0.640625 2.15625l0 4.53125l-1.40625 0zm13.078125 0.6875l1.375 0.203125q0.078125 0.640625 0.46875 0.921875q0.53125 0.390625 1.4375 0.390625q0.96875 0 1.5 -0.390625q0.53125 -0.390625 0.71875 -1.09375q0.109375 -0.421875 0.109375 -1.8125q-0.921875 1.09375 -2.296875 1.09375q-1.71875 0 -2.65625 -1.234375q-0.9375 -1.234375 -0.9375 -2.96875q0 -1.1875 0.421875 -2.1875q0.4375 -1.0 1.25 -1.546875q0.828125 -0.546875 1.921875 -0.546875q1.46875 0 2.421875 1.1875l0 -1.0l1.296875 0l0 7.171875q0 1.9375 -0.390625 2.75q-0.390625 0.8125 -1.25 1.28125q-0.859375 0.46875 -2.109375 0.46875q-1.484375 0 -2.40625 -0.671875q-0.90625 -0.671875 -0.875 -2.015625zm1.171875 -4.984375q0 1.625 0.640625 2.375q0.65625 0.75 1.625 0.75q0.96875 0 1.625 -0.734375q0.65625 -0.75 0.65625 -2.34375q0 -1.53125 -0.671875 -2.296875q-0.671875 -0.78125 -1.625 -0.78125q-0.9375 0 -1.59375 0.765625q-0.65625 0.765625 -0.65625 2.265625zm13.6640625 1.625l1.453125 0.171875q-0.34375 1.28125 -1.28125 1.984375q-0.921875 0.703125 -2.359375 0.703125q-1.828125 0 -2.890625 -1.125q-1.0625 -1.125 -1.0625 -3.140625q0 -2.09375 1.078125 -3.25q1.078125 -1.15625 2.796875 -1.15625q1.65625 0 2.703125 1.140625q1.0625 1.125 1.0625 3.171875q0 0.125 0 0.375l-6.1875 0q0.078125 1.375 0.765625 2.109375q0.703125 0.71875 1.734375 0.71875q0.78125 0 1.328125 -0.40625q0.546875 -0.40625 0.859375 -1.296875zm-4.609375 -2.28125l4.625 0q-0.09375 -1.046875 -0.53125 -1.5625q-0.671875 -0.8125 -1.734375 -0.8125q-0.96875 0 -1.640625 0.65625q-0.65625 0.640625 -0.71875 1.71875zm7.8359375 4.953125l0 -8.296875l1.265625 0l0 1.171875q0.90625 -1.359375 2.640625 -1.359375q0.75 0 1.375 0.265625q0.625 0.265625 0.9375 0.703125q0.3125 0.4375 0.4375 1.046875q0.078125 0.390625 0.078125 1.359375l0 5.109375l-1.40625 0l0 -5.046875q0 -0.859375 -0.171875 -1.28125q-0.15625 -0.4375 -0.578125 -0.6875q-0.40625 -0.25 -0.96875 -0.25q-0.90625 0 -1.5625 0.578125q-0.640625 0.5625 -0.640625 2.15625l0 4.53125l-1.40625 0zm14.5703125 -2.671875l1.453125 0.171875q-0.34375 1.28125 -1.28125 1.984375q-0.921875 0.703125 -2.359375 0.703125q-1.828125 0 -2.890625 -1.125q-1.0625 -1.125 -1.0625 -3.140625q0 -2.09375 1.078125 -3.25q1.078125 -1.15625 2.796875 -1.15625q1.65625 0 2.703125 1.140625q1.0625 1.125 1.0625 3.171875q0 0.125 0 0.375l-6.1875 0q0.078125 1.375 0.765625 2.109375q0.703125 0.71875 1.734375 0.71875q0.78125 0 1.328125 -0.40625q0.546875 -0.40625 0.859375 -1.296875zm-4.609375 -2.28125l4.625 0q-0.09375 -1.046875 -0.53125 -1.5625q-0.671875 -0.8125 -1.734375 -0.8125q-0.96875 0 -1.640625 0.65625q-0.65625 0.640625 -0.71875 1.71875zm7.8203125 4.953125l0 -8.296875l1.265625 0l0 1.25q0.484375 -0.875 0.890625 -1.15625q0.40625 -0.28125 0.90625 -0.28125q0.703125 0 1.4375 0.453125l-0.484375 1.296875q-0.515625 -0.296875 -1.03125 -0.296875q-0.453125 0 -0.828125 0.28125q-0.359375 0.265625 -0.515625 0.765625q-0.234375 0.75 -0.234375 1.640625l0 4.34375l-1.40625 0zm10.75 -1.03125q-0.78125 0.671875 -1.5 0.953125q-0.71875 0.265625 -1.546875 0.265625q-1.375 0 -2.109375 -0.671875q-0.734375 -0.671875 -0.734375 -1.703125q0 -0.609375 0.28125 -1.109375q0.28125 -0.515625 0.71875 -0.8125q0.453125 -0.3125 1.015625 -0.46875q0.421875 -0.109375 1.25 -0.203125q1.703125 -0.203125 2.515625 -0.484375q0 -0.296875 0 -0.375q0 -0.859375 -0.390625 -1.203125q-0.546875 -0.484375 -1.609375 -0.484375q-0.984375 0 -1.46875 0.359375q-0.46875 0.34375 -0.6875 1.21875l-1.375 -0.1875q0.1875 -0.875 0.609375 -1.421875q0.4375 -0.546875 1.25 -0.828125q0.8125 -0.296875 1.875 -0.296875q1.0625 0 1.71875 0.25q0.671875 0.25 0.984375 0.625q0.3125 0.375 0.4375 0.953125q0.078125 0.359375 0.078125 1.296875l0 1.875q0 1.96875 0.078125 2.484375q0.09375 0.515625 0.359375 1.0l-1.46875 0q-0.21875 -0.4375 -0.28125 -1.03125zm-0.109375 -3.140625q-0.765625 0.3125 -2.296875 0.53125q-0.875 0.125 -1.234375 0.28125q-0.359375 0.15625 -0.5625 0.46875q-0.1875 0.296875 -0.1875 0.65625q0 0.5625 0.421875 0.9375q0.4375 0.375 1.25 0.375q0.8125 0 1.4375 -0.34375q0.640625 -0.359375 0.9375 -0.984375q0.234375 -0.46875 0.234375 -1.40625l0 -0.515625zm6.6640625 2.90625l0.203125 1.25q-0.59375 0.125 -1.0625 0.125q-0.765625 0 -1.1875 -0.234375q-0.421875 -0.25 -0.59375 -0.640625q-0.171875 -0.40625 -0.171875 -1.671875l0 -4.765625l-1.03125 0l0 -1.09375l1.03125 0l0 -2.0625l1.40625 -0.84375l0 2.90625l1.40625 0l0 1.09375l-1.40625 0l0 4.84375q0 0.609375 0.0625 0.78125q0.078125 0.171875 0.25 0.28125q0.171875 0.09375 0.484375 0.09375q0.234375 0 0.609375 -0.0625zm7.0546875 -1.40625l1.453125 0.171875q-0.34375 1.28125 -1.28125 1.984375q-0.921875 0.703125 -2.359375 0.703125q-1.828125 0 -2.890625 -1.125q-1.0625 -1.125 -1.0625 -3.140625q0 -2.09375 1.078125 -3.25q1.078125 -1.15625 2.796875 -1.15625q1.65625 0 2.703125 1.140625q1.0625 1.125 1.0625 3.171875q0 0.125 0 0.375l-6.1875 0q0.078125 1.375 0.765625 2.109375q0.703125 0.71875 1.734375 0.71875q0.78125 0 1.328125 -0.40625q0.546875 -0.40625 0.859375 -1.296875zm-4.609375 -2.28125l4.625 0q-0.09375 -1.046875 -0.53125 -1.5625q-0.671875 -0.8125 -1.734375 -0.8125q-0.96875 0 -1.640625 0.65625q-0.65625 0.640625 -0.71875 1.71875zm7.2734375 2.46875l1.390625 -0.21875q0.109375 0.84375 0.640625 1.296875q0.546875 0.4375 1.5 0.4375q0.96875 0 1.4375 -0.390625q0.46875 -0.40625 0.46875 -0.9375q0 -0.46875 -0.40625 -0.75q-0.296875 -0.1875 -1.4375 -0.46875q-1.546875 -0.390625 -2.15625 -0.671875q-0.59375 -0.296875 -0.90625 -0.796875q-0.296875 -0.5 -0.296875 -1.109375q0 -0.5625 0.25 -1.03125q0.25 -0.46875 0.6875 -0.78125q0.328125 -0.25 0.890625 -0.40625q0.578125 -0.171875 1.21875 -0.171875q0.984375 0 1.71875 0.28125q0.734375 0.28125 1.078125 0.765625q0.359375 0.46875 0.5 1.28125l-1.375 0.1875q-0.09375 -0.640625 -0.546875 -1.0q-0.453125 -0.359375 -1.265625 -0.359375q-0.96875 0 -1.390625 0.328125q-0.40625 0.3125 -0.40625 0.734375q0 0.28125 0.171875 0.5q0.171875 0.21875 0.53125 0.375q0.21875 0.078125 1.25 0.359375q1.484375 0.390625 2.078125 0.65625q0.59375 0.25 0.921875 0.734375q0.34375 0.484375 0.34375 1.203125q0 0.703125 -0.421875 1.328125q-0.40625 0.609375 -1.1875 0.953125q-0.765625 0.34375 -1.734375 0.34375q-1.625 0 -2.46875 -0.671875q-0.84375 -0.671875 -1.078125 -2.0zm18.414062 1.453125q-0.78125 0.671875 -1.5 0.953125q-0.71875 0.265625 -1.546875 0.265625q-1.375 0 -2.109375 -0.671875q-0.734375 -0.671875 -0.734375 -1.703125q0 -0.609375 0.28125 -1.109375q0.28125 -0.515625 0.71875 -0.8125q0.453125 -0.3125 1.015625 -0.46875q0.421875 -0.109375 1.25 -0.203125q1.703125 -0.203125 2.515625 -0.484375q0 -0.296875 0 -0.375q0 -0.859375 -0.390625 -1.203125q-0.546875 -0.484375 -1.609375 -0.484375q-0.984375 0 -1.46875 0.359375q-0.46875 0.34375 -0.6875 1.21875l-1.375 -0.1875q0.1875 -0.875 0.609375 -1.421875q0.4375 -0.546875 1.25 -0.828125q0.8125 -0.296875 1.875 -0.296875q1.0625 0 1.71875 0.25q0.671875 0.25 0.984375 0.625q0.3125 0.375 0.4375 0.953125q0.078125 0.359375 0.078125 1.296875l0 1.875q0 1.96875 0.078125 2.484375q0.09375 0.515625 0.359375 1.0l-1.46875 0q-0.21875 -0.4375 -0.28125 -1.03125zm-0.109375 -3.140625q-0.765625 0.3125 -2.296875 0.53125q-0.875 0.125 -1.234375 0.28125q-0.359375 0.15625 -0.5625 0.46875q-0.1875 0.296875 -0.1875 0.65625q0 0.5625 0.421875 0.9375q0.4375 0.375 1.25 0.375q0.8125 0 1.4375 -0.34375q0.640625 -0.359375 0.9375 -0.984375q0.234375 -0.46875 0.234375 -1.40625l0 -0.515625zm3.6015625 4.171875l0 -8.296875l1.265625 0l0 1.171875q0.90625 -1.359375 2.640625 -1.359375q0.75 0 1.375 0.265625q0.625 0.265625 0.9375 0.703125q0.3125 0.4375 0.4375 1.046875q0.078125 0.390625 0.078125 1.359375l0 5.109375l-1.40625 0l0 -5.046875q0 -0.859375 -0.171875 -1.28125q-0.15625 -0.4375 -0.578125 -0.6875q-0.40625 -0.25 -0.96875 -0.25q-0.90625 0 -1.5625 0.578125q-0.640625 0.5625 -0.640625 2.15625l0 4.53125l-1.40625 0zm16.03125 3.375q-1.171875 -1.46875 -1.984375 -3.4375q-0.796875 -1.984375 -0.796875 -4.09375q0 -1.859375 0.609375 -3.5625q0.703125 -1.96875 2.171875 -3.9375l1.0 0q-0.9375 1.625 -1.25 2.328125q-0.46875 1.078125 -0.75 2.25q-0.328125 1.453125 -0.328125 2.9375q0 3.75 2.328125 7.515625l-1.0 0zm2.84375 -3.375l0 -11.453125l5.078125 0q1.53125 0 2.328125 0.3125q0.796875 0.296875 1.265625 1.078125q0.484375 0.78125 0.484375 1.734375q0 1.21875 -0.796875 2.0625q-0.78125 0.828125 -2.4375 1.046875q0.609375 0.296875 0.921875 0.578125q0.65625 0.609375 1.25 1.515625l2.0 3.125l-1.90625 0l-1.515625 -2.390625q-0.671875 -1.03125 -1.109375 -1.578125q-0.421875 -0.546875 -0.765625 -0.765625q-0.328125 -0.21875 -0.6875 -0.296875q-0.25 -0.0625 -0.84375 -0.0625l-1.75 0l0 5.09375l-1.515625 0zm1.515625 -6.40625l3.25 0q1.046875 0 1.625 -0.203125q0.59375 -0.21875 0.890625 -0.6875q0.3125 -0.484375 0.3125 -1.03125q0 -0.8125 -0.59375 -1.328125q-0.59375 -0.53125 -1.859375 -0.53125l-3.625 0l0 3.78125zm9.4921875 2.71875l1.4375 -0.125q0.09375 0.859375 0.46875 1.421875q0.375 0.546875 1.15625 0.890625q0.78125 0.328125 1.75 0.328125q0.875 0 1.53125 -0.25q0.671875 -0.265625 0.984375 -0.703125q0.328125 -0.453125 0.328125 -0.984375q0 -0.546875 -0.3125 -0.9375q-0.3125 -0.40625 -1.03125 -0.6875q-0.453125 -0.171875 -2.03125 -0.546875q-1.578125 -0.390625 -2.21875 -0.71875q-0.8125 -0.4375 -1.21875 -1.0625q-0.40625 -0.640625 -0.40625 -1.4375q0 -0.859375 0.484375 -1.609375q0.5 -0.765625 1.4375 -1.15625q0.953125 -0.390625 2.109375 -0.390625q1.28125 0 2.25 0.421875q0.96875 0.40625 1.484375 1.203125q0.53125 0.796875 0.578125 1.796875l-1.453125 0.109375q-0.125 -1.078125 -0.796875 -1.625q-0.671875 -0.5625 -2.0 -0.5625q-1.375 0 -2.0 0.5q-0.625 0.5 -0.625 1.21875q0 0.609375 0.4375 1.015625q0.4375 0.390625 2.28125 0.8125q1.859375 0.421875 2.546875 0.734375q1.0 0.453125 1.46875 1.171875q0.484375 0.703125 0.484375 1.625q0 0.90625 -0.53125 1.71875q-0.515625 0.8125 -1.5 1.265625q-0.984375 0.453125 -2.203125 0.453125q-1.5625 0 -2.609375 -0.453125q-1.046875 -0.46875 -1.65625 -1.375q-0.59375 -0.90625 -0.625 -2.0625zm9.921875 3.6875l4.40625 -11.453125l1.640625 0l4.6875 11.453125l-1.734375 0l-1.328125 -3.46875l-4.796875 0l-1.25 3.46875l-1.625 0zm3.3125 -4.703125l3.890625 0l-1.203125 -3.171875q-0.546875 -1.453125 -0.8125 -2.375q-0.21875 1.09375 -0.609375 2.1875l-1.265625 3.359375zm19.015625 3.34375l0 1.359375l-7.578125 0q-0.015625 -0.515625 0.171875 -0.984375q0.28125 -0.765625 0.921875 -1.515625q0.640625 -0.75 1.84375 -1.734375q1.859375 -1.53125 2.515625 -2.421875q0.65625 -0.90625 0.65625 -1.703125q0 -0.828125 -0.59375 -1.40625q-0.59375 -0.578125 -1.5625 -0.578125q-1.015625 0 -1.625 0.609375q-0.609375 0.609375 -0.609375 1.6875l-1.453125 -0.140625q0.15625 -1.625 1.125 -2.46875q0.96875 -0.84375 2.59375 -0.84375q1.65625 0 2.609375 0.921875q0.96875 0.90625 0.96875 2.25q0 0.6875 -0.28125 1.359375q-0.28125 0.65625 -0.9375 1.390625q-0.65625 0.734375 -2.171875 2.015625q-1.265625 1.0625 -1.625 1.453125q-0.359375 0.375 -0.59375 0.75l5.625 0zm1.5078125 -4.296875q0 -2.03125 0.40625 -3.265625q0.421875 -1.234375 1.25 -1.90625q0.828125 -0.671875 2.078125 -0.671875q0.921875 0 1.609375 0.375q0.703125 0.359375 1.15625 1.0625q0.453125 0.703125 0.703125 1.703125q0.265625 1.0 0.265625 2.703125q0 2.015625 -0.421875 3.265625q-0.40625 1.234375 -1.234375 1.921875q-0.828125 0.671875 -2.078125 0.671875q-1.65625 0 -2.609375 -1.203125q-1.125 -1.421875 -1.125 -4.65625zm1.4375 0q0 2.828125 0.65625 3.765625q0.671875 0.921875 1.640625 0.921875q0.96875 0 1.625 -0.9375q0.65625 -0.9375 0.65625 -3.75q0 -2.828125 -0.65625 -3.75q-0.65625 -0.9375 -1.640625 -0.9375q-0.96875 0 -1.546875 0.828125q-0.734375 1.046875 -0.734375 3.859375zm11.9609375 5.65625l0 -2.75l-4.96875 0l0 -1.28125l5.234375 -7.421875l1.140625 0l0 7.421875l1.546875 0l0 1.28125l-1.546875 0l0 2.75l-1.40625 0zm0 -4.03125l0 -5.171875l-3.578125 5.171875l3.578125 0zm6.5546875 -2.1875q-0.875 -0.3125 -1.296875 -0.90625q-0.421875 -0.59375 -0.421875 -1.421875q0 -1.25 0.890625 -2.09375q0.90625 -0.859375 2.40625 -0.859375q1.5 0 2.40625 0.875q0.921875 0.859375 0.921875 2.109375q0 0.796875 -0.421875 1.390625q-0.421875 0.59375 -1.265625 0.90625q1.046875 0.34375 1.59375 1.109375q0.5625 0.765625 0.5625 1.828125q0 1.46875 -1.046875 2.484375q-1.03125 1.0 -2.734375 1.0q-1.6875 0 -2.734375 -1.0q-1.03125 -1.015625 -1.03125 -2.515625q0 -1.125 0.5625 -1.875q0.5625 -0.75 1.609375 -1.03125zm-0.28125 -2.375q0 0.8125 0.515625 1.328125q0.53125 0.515625 1.375 0.515625q0.8125 0 1.328125 -0.515625q0.515625 -0.515625 0.515625 -1.25q0 -0.78125 -0.53125 -1.296875q-0.53125 -0.53125 -1.328125 -0.53125q-0.8125 0 -1.34375 0.515625q-0.53125 0.515625 -0.53125 1.234375zm-0.453125 5.28125q0 0.609375 0.28125 1.171875q0.296875 0.5625 0.859375 0.875q0.5625 0.296875 1.203125 0.296875q1.015625 0 1.671875 -0.640625q0.65625 -0.65625 0.65625 -1.65625q0 -1.015625 -0.6875 -1.671875q-0.671875 -0.671875 -1.6875 -0.671875q-0.984375 0 -1.640625 0.65625q-0.65625 0.65625 -0.65625 1.640625zm13.609375 3.3125l-1.3125 0l0 -11.453125l1.40625 0l0 4.078125q0.890625 -1.109375 2.28125 -1.109375q0.765625 0 1.4375 0.3125q0.6875 0.296875 1.125 0.859375q0.453125 0.5625 0.703125 1.359375q0.25 0.78125 0.25 1.671875q0 2.140625 -1.0625 3.3125q-1.046875 1.15625 -2.53125 1.15625q-1.46875 0 -2.296875 -1.234375l0 1.046875zm-0.015625 -4.21875q0 1.5 0.40625 2.15625q0.65625 1.09375 1.796875 1.09375q0.921875 0 1.59375 -0.796875q0.671875 -0.8125 0.671875 -2.390625q0 -1.625 -0.65625 -2.390625q-0.640625 -0.78125 -1.546875 -0.78125q-0.921875 0 -1.59375 0.796875q-0.671875 0.796875 -0.671875 2.3125zm7.6171875 -5.625l0 -1.609375l1.40625 0l0 1.609375l-1.40625 0zm0 9.84375l0 -8.296875l1.40625 0l0 8.296875l-1.40625 0zm6.6171875 -1.265625l0.203125 1.25q-0.59375 0.125 -1.0625 0.125q-0.765625 0 -1.1875 -0.234375q-0.421875 -0.25 -0.59375 -0.640625q-0.171875 -0.40625 -0.171875 -1.671875l0 -4.765625l-1.03125 0l0 -1.09375l1.03125 0l0 -2.0625l1.40625 -0.84375l0 2.90625l1.40625 0l0 1.09375l-1.40625 0l0 4.84375q0 0.609375 0.0625 0.78125q0.078125 0.171875 0.25 0.28125q0.171875 0.09375 0.484375 0.09375q0.234375 0 0.609375 -0.0625zm2.3046875 4.640625l-1.015625 0q2.34375 -3.765625 2.34375 -7.515625q0 -1.46875 -0.34375 -2.921875q-0.265625 -1.171875 -0.734375 -2.25q-0.3125 -0.703125 -1.265625 -2.34375l1.015625 0q1.46875 1.96875 2.171875 3.9375q0.59375 1.703125 0.59375 3.5625q0 2.109375 -0.8125 4.09375q-0.796875 1.96875 -1.953125 3.4375z" fill-rule="nonzero"/><path fill="#000000" d="m375.04675 466.93857l0 -11.484375l1.28125 0l0 1.078125q0.453125 -0.640625 1.015625 -0.953125q0.578125 -0.3125 1.390625 -0.3125q1.0625 0 1.875 0.546875q0.8125 0.546875 1.21875 1.546875q0.421875 0.984375 0.421875 2.171875q0 1.28125 -0.46875 2.296875q-0.453125 1.015625 -1.328125 1.5625q-0.859375 0.546875 -1.828125 0.546875q-0.703125 0 -1.265625 -0.296875q-0.546875 -0.296875 -0.90625 -0.75l0 4.046875l-1.40625 0zm1.265625 -7.296875q0 1.609375 0.640625 2.375q0.65625 0.765625 1.578125 0.765625q0.9375 0 1.609375 -0.796875q0.671875 -0.796875 0.671875 -2.453125q0 -1.59375 -0.65625 -2.375q-0.65625 -0.796875 -1.5625 -0.796875q-0.890625 0 -1.59375 0.84375q-0.6875 0.84375 -0.6875 2.4375zm7.6171875 4.109375l0 -8.296875l1.265625 0l0 1.25q0.484375 -0.875 0.890625 -1.15625q0.40625 -0.28125 0.90625 -0.28125q0.703125 0 1.4375 0.453125l-0.484375 1.296875q-0.515625 -0.296875 -1.03125 -0.296875q-0.453125 0 -0.828125 0.28125q-0.359375 0.265625 -0.515625 0.765625q-0.234375 0.75 -0.234375 1.640625l0 4.34375l-1.40625 0zm5.34375 -9.84375l0 -1.609375l1.40625 0l0 1.609375l-1.40625 0zm0 9.84375l0 -8.296875l1.40625 0l0 8.296875l-1.40625 0zm5.8515625 0l-3.15625 -8.296875l1.484375 0l1.78125 4.96875q0.296875 0.796875 0.53125 1.671875q0.1875 -0.65625 0.53125 -1.578125l1.84375 -5.0625l1.4375 0l-3.140625 8.296875l-1.3125 0zm11.109375 -1.03125q-0.78125 0.671875 -1.5 0.953125q-0.71875 0.265625 -1.546875 0.265625q-1.375 0 -2.109375 -0.671875q-0.734375 -0.671875 -0.734375 -1.703125q0 -0.609375 0.28125 -1.109375q0.28125 -0.515625 0.71875 -0.8125q0.453125 -0.3125 1.015625 -0.46875q0.421875 -0.109375 1.25 -0.203125q1.703125 -0.203125 2.515625 -0.484375q0 -0.296875 0 -0.375q0 -0.859375 -0.390625 -1.203125q-0.546875 -0.484375 -1.609375 -0.484375q-0.984375 0 -1.46875 0.359375q-0.46875 0.34375 -0.6875 1.21875l-1.375 -0.1875q0.1875 -0.875 0.609375 -1.421875q0.4375 -0.546875 1.25 -0.828125q0.8125 -0.296875 1.875 -0.296875q1.0625 0 1.71875 0.25q0.671875 0.25 0.984375 0.625q0.3125 0.375 0.4375 0.953125q0.078125 0.359375 0.078125 1.296875l0 1.875q0 1.96875 0.078125 2.484375q0.09375 0.515625 0.359375 1.0l-1.46875 0q-0.21875 -0.4375 -0.28125 -1.03125zm-0.109375 -3.140625q-0.765625 0.3125 -2.296875 0.53125q-0.875 0.125 -1.234375 0.28125q-0.359375 0.15625 -0.5625 0.46875q-0.1875 0.296875 -0.1875 0.65625q0 0.5625 0.421875 0.9375q0.4375 0.375 1.25 0.375q0.8125 0 1.4375 -0.34375q0.640625 -0.359375 0.9375 -0.984375q0.234375 -0.46875 0.234375 -1.40625l0 -0.515625zm6.6640625 2.90625l0.203125 1.25q-0.59375 0.125 -1.0625 0.125q-0.765625 0 -1.1875 -0.234375q-0.421875 -0.25 -0.59375 -0.640625q-0.171875 -0.40625 -0.171875 -1.671875l0 -4.765625l-1.03125 0l0 -1.09375l1.03125 0l0 -2.0625l1.40625 -0.84375l0 2.90625l1.40625 0l0 1.09375l-1.40625 0l0 4.84375q0 0.609375 0.0625 0.78125q0.078125 0.171875 0.25 0.28125q0.171875 0.09375 0.484375 0.09375q0.234375 0 0.609375 -0.0625zm7.0546875 -1.40625l1.453125 0.171875q-0.34375 1.28125 -1.28125 1.984375q-0.921875 0.703125 -2.359375 0.703125q-1.828125 0 -2.890625 -1.125q-1.0625 -1.125 -1.0625 -3.140625q0 -2.09375 1.078125 -3.25q1.078125 -1.15625 2.796875 -1.15625q1.65625 0 2.703125 1.140625q1.0625 1.125 1.0625 3.171875q0 0.125 0 0.375l-6.1875 0q0.078125 1.375 0.765625 2.109375q0.703125 0.71875 1.734375 0.71875q0.78125 0 1.328125 -0.40625q0.546875 -0.40625 0.859375 -1.296875zm-4.609375 -2.28125l4.625 0q-0.09375 -1.046875 -0.53125 -1.5625q-0.671875 -0.8125 -1.734375 -0.8125q-0.96875 0 -1.640625 0.65625q-0.65625 0.640625 -0.71875 1.71875zm12.28125 4.953125l0 -11.453125l1.40625 0l0 6.53125l3.328125 -3.375l1.828125 0l-3.171875 3.078125l3.484375 5.21875l-1.734375 0l-2.734375 -4.25l-1.0 0.953125l0 3.296875l-1.40625 0zm13.671875 -2.671875l1.453125 0.171875q-0.34375 1.28125 -1.28125 1.984375q-0.921875 0.703125 -2.359375 0.703125q-1.828125 0 -2.890625 -1.125q-1.0625 -1.125 -1.0625 -3.140625q0 -2.09375 1.078125 -3.25q1.078125 -1.15625 2.796875 -1.15625q1.65625 0 2.703125 1.140625q1.0625 1.125 1.0625 3.171875q0 0.125 0 0.375l-6.1875 0q0.078125 1.375 0.765625 2.109375q0.703125 0.71875 1.734375 0.71875q0.78125 0 1.328125 -0.40625q0.546875 -0.40625 0.859375 -1.296875zm-4.609375 -2.28125l4.625 0q-0.09375 -1.046875 -0.53125 -1.5625q-0.671875 -0.8125 -1.734375 -0.8125q-0.96875 0 -1.640625 0.65625q-0.65625 0.640625 -0.71875 1.71875zm7.7734375 8.15625l-0.15625 -1.328125q0.453125 0.125 0.796875 0.125q0.46875 0 0.75 -0.15625q0.28125 -0.15625 0.46875 -0.4375q0.125 -0.203125 0.421875 -1.046875q0.046875 -0.109375 0.125 -0.34375l-3.140625 -8.3125l1.515625 0l1.71875 4.796875q0.34375 0.921875 0.609375 1.921875q0.234375 -0.96875 0.578125 -1.890625l1.765625 -4.828125l1.40625 0l-3.15625 8.4375q-0.5 1.375 -0.78125 1.890625q-0.375 0.6875 -0.859375 1.015625q-0.484375 0.328125 -1.15625 0.328125q-0.40625 0 -0.90625 -0.171875zm7.265625 -3.203125l0 -1.609375l1.609375 0l0 1.609375l-1.609375 0z" fill-rule="nonzero"/><path fill="#000000" d="m378.1405 501.75107l0 -10.109375l-3.78125 0l0 -1.34375l9.078125 0l0 1.34375l-3.78125 0l0 10.109375l-1.515625 0zm6.6796875 0l0 -11.453125l1.40625 0l0 4.109375q0.984375 -1.140625 2.484375 -1.140625q0.921875 0 1.59375 0.359375q0.6875 0.359375 0.96875 1.0q0.296875 0.640625 0.296875 1.859375l0 5.265625l-1.40625 0l0 -5.265625q0 -1.046875 -0.453125 -1.53125q-0.453125 -0.484375 -1.296875 -0.484375q-0.625 0 -1.171875 0.328125q-0.546875 0.328125 -0.78125 0.890625q-0.234375 0.546875 -0.234375 1.515625l0 4.546875l-1.40625 0zm14.5703125 -2.671875l1.453125 0.171875q-0.34375 1.28125 -1.28125 1.984375q-0.921875 0.703125 -2.359375 0.703125q-1.828125 0 -2.890625 -1.125q-1.0625 -1.125 -1.0625 -3.140625q0 -2.09375 1.078125 -3.25q1.078125 -1.15625 2.796875 -1.15625q1.65625 0 2.703125 1.140625q1.0625 1.125 1.0625 3.171875q0 0.125 0 0.375l-6.1875 0q0.078125 1.375 0.765625 2.109375q0.703125 0.71875 1.734375 0.71875q0.78125 0 1.328125 -0.40625q0.546875 -0.40625 0.859375 -1.296875zm-4.609375 -2.28125l4.625 0q-0.09375 -1.046875 -0.53125 -1.5625q-0.671875 -0.8125 -1.734375 -0.8125q-0.96875 0 -1.640625 0.65625q-0.65625 0.640625 -0.71875 1.71875zm7.2734375 2.46875l1.390625 -0.21875q0.109375 0.84375 0.640625 1.296875q0.546875 0.4375 1.5 0.4375q0.96875 0 1.4375 -0.390625q0.46875 -0.40625 0.46875 -0.9375q0 -0.46875 -0.40625 -0.75q-0.296875 -0.1875 -1.4375 -0.46875q-1.546875 -0.390625 -2.15625 -0.671875q-0.59375 -0.296875 -0.90625 -0.796875q-0.296875 -0.5 -0.296875 -1.109375q0 -0.5625 0.25 -1.03125q0.25 -0.46875 0.6875 -0.78125q0.328125 -0.25 0.890625 -0.40625q0.578125 -0.171875 1.21875 -0.171875q0.984375 0 1.71875 0.28125q0.734375 0.28125 1.078125 0.765625q0.359375 0.46875 0.5 1.28125l-1.375 0.1875q-0.09375 -0.640625 -0.546875 -1.0q-0.453125 -0.359375 -1.265625 -0.359375q-0.96875 0 -1.390625 0.328125q-0.40625 0.3125 -0.40625 0.734375q0 0.28125 0.171875 0.5q0.171875 0.21875 0.53125 0.375q0.21875 0.078125 1.25 0.359375q1.484375 0.390625 2.078125 0.65625q0.59375 0.25 0.921875 0.734375q0.34375 0.484375 0.34375 1.203125q0 0.703125 -0.421875 1.328125q-0.40625 0.609375 -1.1875 0.953125q-0.765625 0.34375 -1.734375 0.34375q-1.625 0 -2.46875 -0.671875q-0.84375 -0.671875 -1.078125 -2.0zm14.234375 -0.1875l1.453125 0.171875q-0.34375 1.28125 -1.28125 1.984375q-0.921875 0.703125 -2.359375 0.703125q-1.828125 0 -2.890625 -1.125q-1.0625 -1.125 -1.0625 -3.140625q0 -2.09375 1.078125 -3.25q1.078125 -1.15625 2.796875 -1.15625q1.65625 0 2.703125 1.140625q1.0625 1.125 1.0625 3.171875q0 0.125 0 0.375l-6.1875 0q0.078125 1.375 0.765625 2.109375q0.703125 0.71875 1.734375 0.71875q0.78125 0 1.328125 -0.40625q0.546875 -0.40625 0.859375 -1.296875zm-4.609375 -2.28125l4.625 0q-0.09375 -1.046875 -0.53125 -1.5625q-0.671875 -0.8125 -1.734375 -0.8125q-0.96875 0 -1.640625 0.65625q-0.65625 0.640625 -0.71875 1.71875zm17.6875 3.921875q-0.78125 0.671875 -1.5 0.953125q-0.71875 0.265625 -1.546875 0.265625q-1.375 0 -2.109375 -0.671875q-0.734375 -0.671875 -0.734375 -1.703125q0 -0.609375 0.28125 -1.109375q0.28125 -0.515625 0.71875 -0.8125q0.453125 -0.3125 1.015625 -0.46875q0.421875 -0.109375 1.25 -0.203125q1.703125 -0.203125 2.515625 -0.484375q0 -0.296875 0 -0.375q0 -0.859375 -0.390625 -1.203125q-0.546875 -0.484375 -1.609375 -0.484375q-0.984375 0 -1.46875 0.359375q-0.46875 0.34375 -0.6875 1.21875l-1.375 -0.1875q0.1875 -0.875 0.609375 -1.421875q0.4375 -0.546875 1.25 -0.828125q0.8125 -0.296875 1.875 -0.296875q1.0625 0 1.71875 0.25q0.671875 0.25 0.984375 0.625q0.3125 0.375 0.4375 0.953125q0.078125 0.359375 0.078125 1.296875l0 1.875q0 1.96875 0.078125 2.484375q0.09375 0.515625 0.359375 1.0l-1.46875 0q-0.21875 -0.4375 -0.28125 -1.03125zm-0.109375 -3.140625q-0.765625 0.3125 -2.296875 0.53125q-0.875 0.125 -1.234375 0.28125q-0.359375 0.15625 -0.5625 0.46875q-0.1875 0.296875 -0.1875 0.65625q0 0.5625 0.421875 0.9375q0.4375 0.375 1.25 0.375q0.8125 0 1.4375 -0.34375q0.640625 -0.359375 0.9375 -0.984375q0.234375 -0.46875 0.234375 -1.40625l0 -0.515625zm3.5859375 4.171875l0 -8.296875l1.265625 0l0 1.25q0.484375 -0.875 0.890625 -1.15625q0.40625 -0.28125 0.90625 -0.28125q0.703125 0 1.4375 0.453125l-0.484375 1.296875q-0.515625 -0.296875 -1.03125 -0.296875q-0.453125 0 -0.828125 0.28125q-0.359375 0.265625 -0.515625 0.765625q-0.234375 0.75 -0.234375 1.640625l0 4.34375l-1.40625 0zm11.015625 -2.671875l1.453125 0.171875q-0.34375 1.28125 -1.28125 1.984375q-0.921875 0.703125 -2.359375 0.703125q-1.828125 0 -2.890625 -1.125q-1.0625 -1.125 -1.0625 -3.140625q0 -2.09375 1.078125 -3.25q1.078125 -1.15625 2.796875 -1.15625q1.65625 0 2.703125 1.140625q1.0625 1.125 1.0625 3.171875q0 0.125 0 0.375l-6.1875 0q0.078125 1.375 0.765625 2.109375q0.703125 0.71875 1.734375 0.71875q0.78125 0 1.328125 -0.40625q0.546875 -0.40625 0.859375 -1.296875zm-4.609375 -2.28125l4.625 0q-0.09375 -1.046875 -0.53125 -1.5625q-0.671875 -0.8125 -1.734375 -0.8125q-0.96875 0 -1.640625 0.65625q-0.65625 0.640625 -0.71875 1.71875zm11.71875 2.46875l1.390625 -0.21875q0.109375 0.84375 0.640625 1.296875q0.546875 0.4375 1.5 0.4375q0.96875 0 1.4375 -0.390625q0.46875 -0.40625 0.46875 -0.9375q0 -0.46875 -0.40625 -0.75q-0.296875 -0.1875 -1.4375 -0.46875q-1.546875 -0.390625 -2.15625 -0.671875q-0.59375 -0.296875 -0.90625 -0.796875q-0.296875 -0.5 -0.296875 -1.109375q0 -0.5625 0.25 -1.03125q0.25 -0.46875 0.6875 -0.78125q0.328125 -0.25 0.890625 -0.40625q0.578125 -0.171875 1.21875 -0.171875q0.984375 0 1.71875 0.28125q0.734375 0.28125 1.078125 0.765625q0.359375 0.46875 0.5 1.28125l-1.375 0.1875q-0.09375 -0.640625 -0.546875 -1.0q-0.453125 -0.359375 -1.265625 -0.359375q-0.96875 0 -1.390625 0.328125q-0.40625 0.3125 -0.40625 0.734375q0 0.28125 0.171875 0.5q0.171875 0.21875 0.53125 0.375q0.21875 0.078125 1.25 0.359375q1.484375 0.390625 2.078125 0.65625q0.59375 0.25 0.921875 0.734375q0.34375 0.484375 0.34375 1.203125q0 0.703125 -0.421875 1.328125q-0.40625 0.609375 -1.1875 0.953125q-0.765625 0.34375 -1.734375 0.34375q-1.625 0 -2.46875 -0.671875q-0.84375 -0.671875 -1.078125 -2.0zm11.625 1.21875l0.203125 1.25q-0.59375 0.125 -1.0625 0.125q-0.765625 0 -1.1875 -0.234375q-0.421875 -0.25 -0.59375 -0.640625q-0.171875 -0.40625 -0.171875 -1.671875l0 -4.765625l-1.03125 0l0 -1.09375l1.03125 0l0 -2.0625l1.40625 -0.84375l0 2.90625l1.40625 0l0 1.09375l-1.40625 0l0 4.84375q0 0.609375 0.0625 0.78125q0.078125 0.171875 0.25 0.28125q0.171875 0.09375 0.484375 0.09375q0.234375 0 0.609375 -0.0625zm0.8515625 -2.890625q0 -2.296875 1.28125 -3.40625q1.078125 -0.921875 2.609375 -0.921875q1.71875 0 2.796875 1.125q1.09375 1.109375 1.09375 3.09375q0 1.59375 -0.484375 2.515625q-0.484375 0.921875 -1.40625 1.4375q-0.90625 0.5 -2.0 0.5q-1.734375 0 -2.8125 -1.109375q-1.078125 -1.125 -1.078125 -3.234375zm1.453125 0q0 1.59375 0.6875 2.390625q0.703125 0.796875 1.75 0.796875q1.046875 0 1.734375 -0.796875q0.703125 -0.796875 0.703125 -2.4375q0 -1.53125 -0.703125 -2.328125q-0.6875 -0.796875 -1.734375 -0.796875q-1.046875 0 -1.75 0.796875q-0.6875 0.78125 -0.6875 2.375zm7.9609375 4.15625l0 -8.296875l1.265625 0l0 1.25q0.484375 -0.875 0.890625 -1.15625q0.40625 -0.28125 0.90625 -0.28125q0.703125 0 1.4375 0.453125l-0.484375 1.296875q-0.515625 -0.296875 -1.03125 -0.296875q-0.453125 0 -0.828125 0.28125q-0.359375 0.265625 -0.515625 0.765625q-0.234375 0.75 -0.234375 1.640625l0 4.34375l-1.40625 0zm11.015625 -2.671875l1.453125 0.171875q-0.34375 1.28125 -1.28125 1.984375q-0.921875 0.703125 -2.359375 0.703125q-1.828125 0 -2.890625 -1.125q-1.0625 -1.125 -1.0625 -3.140625q0 -2.09375 1.078125 -3.25q1.078125 -1.15625 2.796875 -1.15625q1.65625 0 2.703125 1.140625q1.0625 1.125 1.0625 3.171875q0 0.125 0 0.375l-6.1875 0q0.078125 1.375 0.765625 2.109375q0.703125 0.71875 1.734375 0.71875q0.78125 0 1.328125 -0.40625q0.546875 -0.40625 0.859375 -1.296875zm-4.609375 -2.28125l4.625 0q-0.09375 -1.046875 -0.53125 -1.5625q-0.671875 -0.8125 -1.734375 -0.8125q-0.96875 0 -1.640625 0.65625q-0.65625 0.640625 -0.71875 1.71875zm13.2109375 4.953125l0 -1.046875q-0.78125 1.234375 -2.3125 1.234375q-1.0 0 -1.828125 -0.546875q-0.828125 -0.546875 -1.296875 -1.53125q-0.453125 -0.984375 -0.453125 -2.25q0 -1.25 0.40625 -2.25q0.421875 -1.015625 1.25 -1.546875q0.828125 -0.546875 1.859375 -0.546875q0.75 0 1.328125 0.3125q0.59375 0.3125 0.953125 0.828125l0 -4.109375l1.40625 0l0 11.453125l-1.3125 0zm-4.4375 -4.140625q0 1.59375 0.671875 2.390625q0.671875 0.78125 1.578125 0.78125q0.921875 0 1.5625 -0.75q0.65625 -0.765625 0.65625 -2.3125q0 -1.703125 -0.65625 -2.5q-0.65625 -0.796875 -1.625 -0.796875q-0.9375 0 -1.5625 0.765625q-0.625 0.765625 -0.625 2.421875zm12.40625 -5.703125l0 -1.609375l1.40625 0l0 1.609375l-1.40625 0zm0 9.84375l0 -8.296875l1.40625 0l0 8.296875l-1.40625 0zm3.5546875 0l0 -8.296875l1.265625 0l0 1.171875q0.90625 -1.359375 2.640625 -1.359375q0.75 0 1.375 0.265625q0.625 0.265625 0.9375 0.703125q0.3125 0.4375 0.4375 1.046875q0.078125 0.390625 0.078125 1.359375l0 5.109375l-1.40625 0l0 -5.046875q0 -0.859375 -0.171875 -1.28125q-0.15625 -0.4375 -0.578125 -0.6875q-0.40625 -0.25 -0.96875 -0.25q-0.90625 0 -1.5625 0.578125q-0.640625 0.5625 -0.640625 2.15625l0 4.53125l-1.40625 0zm16.40625 -1.265625l0.203125 1.25q-0.59375 0.125 -1.0625 0.125q-0.765625 0 -1.1875 -0.234375q-0.421875 -0.25 -0.59375 -0.640625q-0.171875 -0.40625 -0.171875 -1.671875l0 -4.765625l-1.03125 0l0 -1.09375l1.03125 0l0 -2.0625l1.40625 -0.84375l0 2.90625l1.40625 0l0 1.09375l-1.40625 0l0 4.84375q0 0.609375 0.0625 0.78125q0.078125 0.171875 0.25 0.28125q0.171875 0.09375 0.484375 0.09375q0.234375 0 0.609375 -0.0625zm1.3828125 1.265625l0 -11.453125l1.40625 0l0 4.109375q0.984375 -1.140625 2.484375 -1.140625q0.921875 0 1.59375 0.359375q0.6875 0.359375 0.96875 1.0q0.296875 0.640625 0.296875 1.859375l0 5.265625l-1.40625 0l0 -5.265625q0 -1.046875 -0.453125 -1.53125q-0.453125 -0.484375 -1.296875 -0.484375q-0.625 0 -1.171875 0.328125q-0.546875 0.328125 -0.78125 0.890625q-0.234375 0.546875 -0.234375 1.515625l0 4.546875l-1.40625 0zm14.5703125 -2.671875l1.453125 0.171875q-0.34375 1.28125 -1.28125 1.984375q-0.921875 0.703125 -2.359375 0.703125q-1.828125 0 -2.890625 -1.125q-1.0625 -1.125 -1.0625 -3.140625q0 -2.09375 1.078125 -3.25q1.078125 -1.15625 2.796875 -1.15625q1.65625 0 2.703125 1.140625q1.0625 1.125 1.0625 3.171875q0 0.125 0 0.375l-6.1875 0q0.078125 1.375 0.765625 2.109375q0.703125 0.71875 1.734375 0.71875q0.78125 0 1.328125 -0.40625q0.546875 -0.40625 0.859375 -1.296875zm-4.609375 -2.28125l4.625 0q-0.09375 -1.046875 -0.53125 -1.5625q-0.671875 -0.8125 -1.734375 -0.8125q-0.96875 0 -1.640625 0.65625q-0.65625 0.640625 -0.71875 1.71875zm12.0 -0.625q0 -2.859375 1.53125 -4.46875q1.53125 -1.609375 3.953125 -1.609375q1.578125 0 2.84375 0.765625q1.28125 0.75 1.953125 2.109375q0.671875 1.34375 0.671875 3.0625q0 1.75 -0.703125 3.125q-0.703125 1.375 -2.0 2.09375q-1.28125 0.703125 -2.78125 0.703125q-1.609375 0 -2.890625 -0.78125q-1.265625 -0.796875 -1.921875 -2.140625q-0.65625 -1.359375 -0.65625 -2.859375zm1.5625 0.015625q0 2.078125 1.109375 3.265625q1.109375 1.1875 2.796875 1.1875q1.703125 0 2.8125 -1.203125q1.109375 -1.203125 1.109375 -3.40625q0 -1.40625 -0.484375 -2.4375q-0.46875 -1.046875 -1.375 -1.625q-0.90625 -0.578125 -2.046875 -0.578125q-1.609375 0 -2.765625 1.109375q-1.15625 1.109375 -1.15625 3.6875zm10.8203125 1.875l1.4375 -0.125q0.09375 0.859375 0.46875 1.421875q0.375 0.546875 1.15625 0.890625q0.78125 0.328125 1.75 0.328125q0.875 0 1.53125 -0.25q0.671875 -0.265625 0.984375 -0.703125q0.328125 -0.453125 0.328125 -0.984375q0 -0.546875 -0.3125 -0.9375q-0.3125 -0.40625 -1.03125 -0.6875q-0.453125 -0.171875 -2.03125 -0.546875q-1.578125 -0.390625 -2.21875 -0.71875q-0.8125 -0.4375 -1.21875 -1.0625q-0.40625 -0.640625 -0.40625 -1.4375q0 -0.859375 0.484375 -1.609375q0.5 -0.765625 1.4375 -1.15625q0.953125 -0.390625 2.109375 -0.390625q1.28125 0 2.25 0.421875q0.96875 0.40625 1.484375 1.203125q0.53125 0.796875 0.578125 1.796875l-1.453125 0.109375q-0.125 -1.078125 -0.796875 -1.625q-0.671875 -0.5625 -2.0 -0.5625q-1.375 0 -2.0 0.5q-0.625 0.5 -0.625 1.21875q0 0.609375 0.4375 1.015625q0.4375 0.390625 2.28125 0.8125q1.859375 0.421875 2.546875 0.734375q1.0 0.453125 1.46875 1.171875q0.484375 0.703125 0.484375 1.625q0 0.90625 -0.53125 1.71875q-0.515625 0.8125 -1.5 1.265625q-0.984375 0.453125 -2.203125 0.453125q-1.5625 0 -2.609375 -0.453125q-1.046875 -0.46875 -1.65625 -1.375q-0.59375 -0.90625 -0.625 -2.0625zm15.4609375 3.6875l0 -11.453125l1.40625 0l0 6.53125l3.328125 -3.375l1.828125 0l-3.171875 3.078125l3.484375 5.21875l-1.734375 0l-2.734375 -4.25l-1.0 0.953125l0 3.296875l-1.40625 0zm13.671875 -2.671875l1.453125 0.171875q-0.34375 1.28125 -1.28125 1.984375q-0.921875 0.703125 -2.359375 0.703125q-1.828125 0 -2.890625 -1.125q-1.0625 -1.125 -1.0625 -3.140625q0 -2.09375 1.078125 -3.25q1.078125 -1.15625 2.796875 -1.15625q1.65625 0 2.703125 1.140625q1.0625 1.125 1.0625 3.171875q0 0.125 0 0.375l-6.1875 0q0.078125 1.375 0.765625 2.109375q0.703125 0.71875 1.734375 0.71875q0.78125 0 1.328125 -0.40625q0.546875 -0.40625 0.859375 -1.296875zm-4.609375 -2.28125l4.625 0q-0.09375 -1.046875 -0.53125 -1.5625q-0.671875 -0.8125 -1.734375 -0.8125q-0.96875 0 -1.640625 0.65625q-0.65625 0.640625 -0.71875 1.71875zm7.7734375 8.15625l-0.15625 -1.328125q0.453125 0.125 0.796875 0.125q0.46875 0 0.75 -0.15625q0.28125 -0.15625 0.46875 -0.4375q0.125 -0.203125 0.421875 -1.046875q0.046875 -0.109375 0.125 -0.34375l-3.140625 -8.3125l1.515625 0l1.71875 4.796875q0.34375 0.921875 0.609375 1.921875q0.234375 -0.96875 0.578125 -1.890625l1.765625 -4.828125l1.40625 0l-3.15625 8.4375q-0.5 1.375 -0.78125 1.890625q-0.375 0.6875 -0.859375 1.015625q-0.484375 0.328125 -1.15625 0.328125q-0.40625 0 -0.90625 -0.171875zm13.46875 -6.25l1.390625 0.1875q-0.234375 1.421875 -1.171875 2.234375q-0.921875 0.8125 -2.28125 0.8125q-1.703125 0 -2.75 -1.109375q-1.03125 -1.125 -1.03125 -3.203125q0 -1.34375 0.4375 -2.34375q0.453125 -1.015625 1.359375 -1.515625q0.921875 -0.5 1.984375 -0.5q1.359375 0 2.21875 0.6875q0.859375 0.671875 1.09375 1.9375l-1.359375 0.203125q-0.203125 -0.828125 -0.703125 -1.25q-0.484375 -0.421875 -1.1875 -0.421875q-1.0625 0 -1.734375 0.765625q-0.65625 0.75 -0.65625 2.40625q0 1.671875 0.640625 2.4375q0.640625 0.75 1.671875 0.75q0.828125 0 1.375 -0.5q0.5625 -0.515625 0.703125 -1.578125zm2.59375 3.046875l0 -11.453125l1.40625 0l0 4.109375q0.984375 -1.140625 2.484375 -1.140625q0.921875 0 1.59375 0.359375q0.6875 0.359375 0.96875 1.0q0.296875 0.640625 0.296875 1.859375l0 5.265625l-1.40625 0l0 -5.265625q0 -1.046875 -0.453125 -1.53125q-0.453125 -0.484375 -1.296875 -0.484375q-0.625 0 -1.171875 0.328125q-0.546875 0.328125 -0.78125 0.890625q-0.234375 0.546875 -0.234375 1.515625l0 4.546875l-1.40625 0zm14.3046875 -1.03125q-0.78125 0.671875 -1.5 0.953125q-0.71875 0.265625 -1.546875 0.265625q-1.375 0 -2.109375 -0.671875q-0.734375 -0.671875 -0.734375 -1.703125q0 -0.609375 0.28125 -1.109375q0.28125 -0.515625 0.71875 -0.8125q0.453125 -0.3125 1.015625 -0.46875q0.421875 -0.109375 1.25 -0.203125q1.703125 -0.203125 2.515625 -0.484375q0 -0.296875 0 -0.375q0 -0.859375 -0.390625 -1.203125q-0.546875 -0.484375 -1.609375 -0.484375q-0.984375 0 -1.46875 0.359375q-0.46875 0.34375 -0.6875 1.21875l-1.375 -0.1875q0.1875 -0.875 0.609375 -1.421875q0.4375 -0.546875 1.25 -0.828125q0.8125 -0.296875 1.875 -0.296875q1.0625 0 1.71875 0.25q0.671875 0.25 0.984375 0.625q0.3125 0.375 0.4375 0.953125q0.078125 0.359375 0.078125 1.296875l0 1.875q0 1.96875 0.078125 2.484375q0.09375 0.515625 0.359375 1.0l-1.46875 0q-0.21875 -0.4375 -0.28125 -1.03125zm-0.109375 -3.140625q-0.765625 0.3125 -2.296875 0.53125q-0.875 0.125 -1.234375 0.28125q-0.359375 0.15625 -0.5625 0.46875q-0.1875 0.296875 -0.1875 0.65625q0 0.5625 0.421875 0.9375q0.4375 0.375 1.25 0.375q0.8125 0 1.4375 -0.34375q0.640625 -0.359375 0.9375 -0.984375q0.234375 -0.46875 0.234375 -1.40625l0 -0.515625zm3.6015625 -5.671875l0 -1.609375l1.40625 0l0 1.609375l-1.40625 0zm0 9.84375l0 -8.296875l1.40625 0l0 8.296875l-1.40625 0zm3.5546875 0l0 -8.296875l1.265625 0l0 1.171875q0.90625 -1.359375 2.640625 -1.359375q0.75 0 1.375 0.265625q0.625 0.265625 0.9375 0.703125q0.3125 0.4375 0.4375 1.046875q0.078125 0.390625 0.078125 1.359375l0 5.109375l-1.40625 0l0 -5.046875q0 -0.859375 -0.171875 -1.28125q-0.15625 -0.4375 -0.578125 -0.6875q-0.40625 -0.25 -0.96875 -0.25q-0.90625 0 -1.5625 0.578125q-0.640625 0.5625 -0.640625 2.15625l0 4.53125l-1.40625 0zm12.78125 -2.484375l1.390625 -0.21875q0.109375 0.84375 0.640625 1.296875q0.546875 0.4375 1.5 0.4375q0.96875 0 1.4375 -0.390625q0.46875 -0.40625 0.46875 -0.9375q0 -0.46875 -0.40625 -0.75q-0.296875 -0.1875 -1.4375 -0.46875q-1.546875 -0.390625 -2.15625 -0.671875q-0.59375 -0.296875 -0.90625 -0.796875q-0.296875 -0.5 -0.296875 -1.109375q0 -0.5625 0.25 -1.03125q0.25 -0.46875 0.6875 -0.78125q0.328125 -0.25 0.890625 -0.40625q0.578125 -0.171875 1.21875 -0.171875q0.984375 0 1.71875 0.28125q0.734375 0.28125 1.078125 0.765625q0.359375 0.46875 0.5 1.28125l-1.375 0.1875q-0.09375 -0.640625 -0.546875 -1.0q-0.453125 -0.359375 -1.265625 -0.359375q-0.96875 0 -1.390625 0.328125q-0.40625 0.3125 -0.40625 0.734375q0 0.28125 0.171875 0.5q0.171875 0.21875 0.53125 0.375q0.21875 0.078125 1.25 0.359375q1.484375 0.390625 2.078125 0.65625q0.59375 0.25 0.921875 0.734375q0.34375 0.484375 0.34375 1.203125q0 0.703125 -0.421875 1.328125q-0.40625 0.609375 -1.1875 0.953125q-0.765625 0.34375 -1.734375 0.34375q-1.625 0 -2.46875 -0.671875q-0.84375 -0.671875 -1.078125 -2.0zm11.625 1.21875l0.203125 1.25q-0.59375 0.125 -1.0625 0.125q-0.765625 0 -1.1875 -0.234375q-0.421875 -0.25 -0.59375 -0.640625q-0.171875 -0.40625 -0.171875 -1.671875l0 -4.765625l-1.03125 0l0 -1.09375l1.03125 0l0 -2.0625l1.40625 -0.84375l0 2.90625l1.40625 0l0 1.09375l-1.40625 0l0 4.84375q0 0.609375 0.0625 0.78125q0.078125 0.171875 0.25 0.28125q0.171875 0.09375 0.484375 0.09375q0.234375 0 0.609375 -0.0625zm0.8515625 -2.890625q0 -2.296875 1.28125 -3.40625q1.078125 -0.921875 2.609375 -0.921875q1.71875 0 2.796875 1.125q1.09375 1.109375 1.09375 3.09375q0 1.59375 -0.484375 2.515625q-0.484375 0.921875 -1.40625 1.4375q-0.90625 0.5 -2.0 0.5q-1.734375 0 -2.8125 -1.109375q-1.078125 -1.125 -1.078125 -3.234375zm1.453125 0q0 1.59375 0.6875 2.390625q0.703125 0.796875 1.75 0.796875q1.046875 0 1.734375 -0.796875q0.703125 -0.796875 0.703125 -2.4375q0 -1.53125 -0.703125 -2.328125q-0.6875 -0.796875 -1.734375 -0.796875q-1.046875 0 -1.75 0.796875q-0.6875 0.78125 -0.6875 2.375zm7.9609375 4.15625l0 -8.296875l1.265625 0l0 1.25q0.484375 -0.875 0.890625 -1.15625q0.40625 -0.28125 0.90625 -0.28125q0.703125 0 1.4375 0.453125l-0.484375 1.296875q-0.515625 -0.296875 -1.03125 -0.296875q-0.453125 0 -0.828125 0.28125q-0.359375 0.265625 -0.515625 0.765625q-0.234375 0.75 -0.234375 1.640625l0 4.34375l-1.40625 0zm11.015625 -2.671875l1.453125 0.171875q-0.34375 1.28125 -1.28125 1.984375q-0.921875 0.703125 -2.359375 0.703125q-1.828125 0 -2.890625 -1.125q-1.0625 -1.125 -1.0625 -3.140625q0 -2.09375 1.078125 -3.25q1.078125 -1.15625 2.796875 -1.15625q1.65625 0 2.703125 1.140625q1.0625 1.125 1.0625 3.171875q0 0.125 0 0.375l-6.1875 0q0.078125 1.375 0.765625 2.109375q0.703125 0.71875 1.734375 0.71875q0.78125 0 1.328125 -0.40625q0.546875 -0.40625 0.859375 -1.296875zm-4.609375 -2.28125l4.625 0q-0.09375 -1.046875 -0.53125 -1.5625q-0.671875 -0.8125 -1.734375 -0.8125q-0.96875 0 -1.640625 0.65625q-0.65625 0.640625 -0.71875 1.71875zm8.2265625 4.953125l0 -1.609375l1.609375 0l0 1.609375l-1.609375 0z" fill-rule="nonzero"/></g></svg>